<svg width="40" height="34" viewBox="0 0 40 34" fill="none" xmlns="http://www.w3.org/2000/svg">
<ellipse cx="19.9627" cy="17" rx="19.0877" ry="17" fill="#BDBDBD"/>
<ellipse cx="19.9627" cy="14.614" rx="19.0877" ry="14.614" fill="#E0E0E0"/>
<path d="M18.4122 4.54285C18.4122 3.57102 17.6228 2.77493 16.6549 2.86174C14.7057 3.03656 12.8131 3.50112 11.0838 4.23425C8.83842 5.18617 6.94124 6.56006 5.56829 8.22842C4.19533 9.89677 3.3911 11.8055 3.23021 13.7776C3.11528 15.1863 3.3313 16.5947 3.86177 17.9362C4.23843 18.8886 5.34009 19.2579 6.30288 18.9085C7.58181 18.4444 8.07539 16.9057 7.85114 15.5637C7.76474 15.0467 7.74206 14.5227 7.78482 13.9986C7.89744 12.6181 8.46041 11.282 9.42147 10.1142C10.3825 8.9463 11.7106 7.98458 13.2823 7.31823C14.337 6.8711 15.4785 6.56668 16.6573 6.41478C17.6212 6.29059 18.4122 5.51468 18.4122 4.54285Z" fill="#EEEEEE"/>
<path fill-rule="evenodd" clip-rule="evenodd" d="M23.0948 12.3147V13.2091C24.0993 13.5227 24.8313 14.4322 24.8313 15.5186V18.3984C24.8313 19.7433 23.7165 20.8337 22.3421 20.8337H17.406C16.031 20.8337 14.9163 19.7433 14.9163 18.3984V15.5186C14.9163 14.4322 15.6488 13.5227 16.6527 13.2091V12.3147C16.6586 10.5756 18.0988 9.16699 19.8649 9.16699C21.6547 9.16699 23.0948 10.5756 23.0948 12.3147ZM19.8767 10.1814C21.0798 10.1814 22.0577 11.1379 22.0577 12.3147V13.0833H17.6899V12.3031C17.6958 11.1321 18.6737 10.1814 19.8767 10.1814ZM20.3923 17.599C20.3923 17.8831 20.1612 18.1092 19.8708 18.1092C19.5863 18.1092 19.3552 17.8831 19.3552 17.599V16.3121C19.3552 16.0339 19.5863 15.8078 19.8708 15.8078C20.1612 15.8078 20.3923 16.0339 20.3923 16.3121V17.599Z" fill="#8E8E95"/>
</svg>
