<svg width="39" height="34" viewBox="0 0 39 34" fill="none" xmlns="http://www.w3.org/2000/svg">
<ellipse cx="19.5443" cy="17" rx="19.0816" ry="17" fill="#00AD30"/>
<ellipse cx="19.5443" cy="14.614" rx="19.0816" ry="14.614" fill="#79D57D"/>
<path d="M17.9944 4.54285C17.9944 3.57102 17.2049 2.77492 16.237 2.86179C14.2887 3.03665 12.3968 3.50119 10.6682 4.23425C8.42359 5.18617 6.52702 6.56006 5.15451 8.22842C3.78199 9.89677 2.97802 11.8055 2.81718 13.7776C2.70229 15.1863 2.91822 16.5946 3.44849 17.936C3.82501 18.8885 4.92664 19.2578 5.88935 18.9083C7.16775 18.4442 7.66115 16.9062 7.43682 15.5649C7.3503 15.0475 7.32756 14.5231 7.37033 13.9986C7.48292 12.6181 8.0457 11.282 9.00646 10.1142C9.96722 8.9463 11.2948 7.98458 12.8661 7.31823C13.9203 6.87117 15.0612 6.56678 16.2395 6.41485C17.2033 6.29058 17.9944 5.51468 17.9944 4.54285Z" fill="#D6FFD7"/>
<path fill-rule="evenodd" clip-rule="evenodd" d="M17.0197 8.63477H22.0748C24.0513 8.63477 25.3748 10.0477 25.3748 12.1492V16.9999C25.3748 19.0949 24.0513 20.5078 22.0748 20.5078H17.0197C15.0432 20.5078 13.7138 19.0949 13.7138 16.9999V12.1492C13.7138 10.0477 15.0432 8.63477 17.0197 8.63477ZM19.212 16.3463L21.9815 13.5264C22.1797 13.3246 22.1797 12.9981 21.9815 12.7903C21.7832 12.5885 21.4567 12.5885 21.2585 12.7903L18.8505 15.2421L17.8302 14.2032C17.6319 14.0014 17.3054 14.0014 17.1072 14.2032C16.909 14.4051 16.909 14.7316 17.1072 14.9393L18.4948 16.3463C18.594 16.4472 18.7222 16.4947 18.8505 16.4947C18.9846 16.4947 19.1129 16.4472 19.212 16.3463Z" fill="white"/>
</svg>
