<svg width="24" height="25" viewBox="0 0 24 25" fill="none" xmlns="http://www.w3.org/2000/svg">
<path d="M3.35288 15.5617L4.08229 15.3872L3.35288 15.5617ZM3.35288 9.58297L4.08229 9.75752L3.35288 9.58297ZM20.6471 9.58298L19.9177 9.75752L20.6471 9.58298ZM20.6471 15.5617L19.9177 15.3872L20.6471 15.5617ZM15.0496 21.0488L14.8815 20.3179L15.0496 21.0488ZM8.95044 21.0488L8.78237 21.7797L8.95044 21.0488ZM8.95043 4.09591L9.1185 4.82684L8.95043 4.09591ZM15.0496 4.09591L14.8815 4.82684L15.0496 4.09591ZM4.08229 15.3872C3.63924 13.5357 3.63924 11.609 4.08229 9.75752L2.62347 9.40843C2.12551 11.4894 2.12551 13.6553 2.62347 15.7363L4.08229 15.3872ZM19.9177 9.75752C20.3608 11.609 20.3608 13.5357 19.9177 15.3872L21.3765 15.7363C21.8745 13.6553 21.8745 11.4894 21.3765 9.40844L19.9177 9.75752ZM14.8815 20.3179C12.9863 20.7536 11.0137 20.7536 9.1185 20.3179L8.78237 21.7797C10.8988 22.2664 13.1012 22.2664 15.2176 21.7797L14.8815 20.3179ZM9.1185 4.82684C11.0137 4.39105 12.9863 4.39105 14.8815 4.82684L15.2176 3.36498C13.1012 2.87834 10.8988 2.87834 8.78237 3.36499L9.1185 4.82684ZM9.1185 20.3179C6.61229 19.7416 4.66599 17.8265 4.08229 15.3872L2.62347 15.7363C3.34276 18.7422 5.73374 21.0787 8.78237 21.7797L9.1185 20.3179ZM15.2176 21.7797C18.2663 21.0787 20.6572 18.7422 21.3765 15.7363L19.9177 15.3872C19.334 17.8265 17.3877 19.7416 14.8815 20.3179L15.2176 21.7797ZM14.8815 4.82684C17.3877 5.40311 19.334 7.31823 19.9177 9.75752L21.3765 9.40844C20.6572 6.40253 18.2663 4.06598 15.2176 3.36498L14.8815 4.82684ZM8.78237 3.36499C5.73373 4.06598 3.34276 6.40252 2.62347 9.40843L4.08229 9.75752C4.66599 7.31823 6.61228 5.40311 9.1185 4.82684L8.78237 3.36499ZM14.8305 21.75C14.8305 20.2863 14.8322 19.2654 14.9378 18.4951C15.0403 17.748 15.2278 17.3493 15.5196 17.0632L14.4696 15.992C13.8474 16.602 13.5778 17.3723 13.4518 18.2913C13.3289 19.1872 13.3305 20.3295 13.3305 21.75H14.8305ZM20.3222 14.8816C18.8718 14.8816 17.7101 14.88 16.7998 15C15.8695 15.1226 15.0897 15.3841 14.4696 15.992L15.5196 17.0632C15.8135 16.7751 16.2264 16.5885 16.9958 16.4871C17.7852 16.3831 18.8302 16.3816 20.3222 16.3816V14.8816Z" fill="#212121"/>
<path d="M9 9.75H12M9 12.75H14" stroke="#212121" stroke-width="1.5" stroke-linecap="round"/>
</svg>
