<svg width="24" height="25" viewBox="0 0 24 25" fill="none" xmlns="http://www.w3.org/2000/svg">
<path d="M12 14.7379H13C14.1 14.7379 15 13.8379 15 12.7379V2.73792H6C4.5 2.73792 3.19001 3.5679 2.51001 4.7879" stroke="#7ACB8B" stroke-width="1.5" stroke-linecap="round" stroke-linejoin="round"/>
<path d="M2 17.7379C2 19.3979 3.34 20.7379 5 20.7379H6C6 19.6379 6.9 18.7379 8 18.7379C9.1 18.7379 10 19.6379 10 20.7379H14C14 19.6379 14.9 18.7379 16 18.7379C17.1 18.7379 18 19.6379 18 20.7379H19C20.66 20.7379 22 19.3979 22 17.7379V14.7379H19C18.45 14.7379 18 14.2879 18 13.7379V10.7379C18 10.1879 18.45 9.73792 19 9.73792H20.29L18.58 6.74792C18.22 6.12792 17.56 5.73792 16.84 5.73792H15V12.7379C15 13.8379 14.1 14.7379 13 14.7379H12" stroke="#7ACB8B" stroke-width="1.5" stroke-linecap="round" stroke-linejoin="round"/>
<path d="M8 22.7379C9.10457 22.7379 10 21.8425 10 20.7379C10 19.6333 9.10457 18.7379 8 18.7379C6.89543 18.7379 6 19.6333 6 20.7379C6 21.8425 6.89543 22.7379 8 22.7379Z" stroke="#7ACB8B" stroke-width="1.5" stroke-linecap="round" stroke-linejoin="round"/>
<path d="M16 22.7379C17.1046 22.7379 18 21.8425 18 20.7379C18 19.6333 17.1046 18.7379 16 18.7379C14.8954 18.7379 14 19.6333 14 20.7379C14 21.8425 14.8954 22.7379 16 22.7379Z" stroke="#7ACB8B" stroke-width="1.5" stroke-linecap="round" stroke-linejoin="round"/>
<path d="M22 12.7379V14.7379H19C18.45 14.7379 18 14.2879 18 13.7379V10.7379C18 10.1879 18.45 9.73792 19 9.73792H20.29L22 12.7379Z" stroke="#7ACB8B" stroke-width="1.5" stroke-linecap="round" stroke-linejoin="round"/>
<path d="M2 8.73792H8" stroke="#7ACB8B" stroke-width="1.5" stroke-linecap="round" stroke-linejoin="round"/>
<path d="M2 11.7379H6" stroke="#7ACB8B" stroke-width="1.5" stroke-linecap="round" stroke-linejoin="round"/>
<path d="M2 14.7379H4" stroke="#7ACB8B" stroke-width="1.5" stroke-linecap="round" stroke-linejoin="round"/>
</svg>
