<svg width="25" height="24" viewBox="0 0 25 24" fill="none" xmlns="http://www.w3.org/2000/svg">
<path fill-rule="evenodd" clip-rule="evenodd" d="M19.666 5H5.66602C5.11373 5 4.66602 5.44772 4.66602 6V15C4.66602 15.5523 5.11373 16 5.66602 16H19.666C20.2183 16 20.666 15.5523 20.666 15V6C20.666 5.44771 20.2183 5 19.666 5ZM5.66602 3C4.00916 3 2.66602 4.34315 2.66602 6V15C2.66602 16.6569 4.00916 18 5.66602 18H19.666C21.3229 18 22.666 16.6569 22.666 15V6C22.666 4.34315 21.3229 3 19.666 3H5.66602Z" fill="#212121"/>
<path fill-rule="evenodd" clip-rule="evenodd" d="M1.66602 20C1.66602 19.4477 2.11373 19 2.66602 19H22.666C23.2183 19 23.666 19.4477 23.666 20C23.666 20.5523 23.2183 21 22.666 21H2.66602C2.11373 21 1.66602 20.5523 1.66602 20Z" fill="#212121"/>
</svg>
