<svg width="22" height="21" viewBox="0 0 22 21" fill="none" xmlns="http://www.w3.org/2000/svg">
<path d="M4.495 2.04532L4.49517 2.04506C4.60926 1.87375 4.76388 1.73326 4.9453 1.63606C5.12667 1.5389 5.32921 1.48802 5.53496 1.48792C5.535 1.48792 5.53503 1.48792 5.53507 1.48792C5.5351 1.48792 5.53514 1.48792 5.53517 1.48792L16.4648 1.48891C16.4648 1.48891 16.4648 1.48891 16.4648 1.48891C16.4649 1.48891 16.4649 1.48891 16.465 1.48891C16.6705 1.48906 16.8729 1.53989 17.0541 1.63692C17.2354 1.73398 17.3899 1.87427 17.504 2.04534L17.5041 2.04543L21.0944 7.42639C21.0945 7.42656 21.0946 7.42673 21.0947 7.42689C21.2151 7.60867 21.2291 7.83975 21.1328 8.03231C19.1984 11.9012 16.5099 15.3444 13.2256 18.1593L13.2256 18.1593L11.4756 19.6593L11.801 20.0389L11.4756 19.6593C11.3433 19.7727 11.1748 19.8351 11.0005 19.8351C10.8262 19.8351 10.6577 19.7727 10.5254 19.6593L8.77553 18.1584L8.77541 18.1583C5.49156 15.3435 2.80351 11.9008 0.869223 8.03231C0.772486 7.83883 0.786467 7.60778 0.90632 7.42684C0.906419 7.42669 0.906518 7.42654 0.906617 7.42639L4.495 2.04532ZM4.91142 2.32091L4.91096 2.32161L1.92896 6.79561L1.47006 7.4841L2.29298 7.5702L3.69756 7.71716C4.40495 7.79177 5.11344 7.85557 5.82279 7.90853L6.26243 7.94135L6.35004 7.50928C6.36621 7.42952 6.39013 7.35153 6.42147 7.27642L6.42155 7.27622L8.33655 2.68022L8.62501 1.98792H7.87501L5.53542 1.98792C5.53536 1.98792 5.53531 1.98792 5.53525 1.98792C5.53517 1.98792 5.53509 1.98792 5.53501 1.98792C5.41177 1.98788 5.29043 2.01822 5.1817 2.07624C5.07285 2.13433 4.98001 2.21837 4.91142 2.32091ZM2.33257 8.07669L1.38493 7.97652L1.84099 8.81321C3.66392 12.1576 6.07019 15.1491 8.94618 17.6464L9.74218 17.0934L6.61718 8.75937L6.50423 8.45814L6.18328 8.43609C5.33678 8.37793 4.49141 8.30445 3.64757 8.21569C3.64749 8.21568 3.6474 8.21567 3.64732 8.21566L2.33257 8.07669ZM7.78501 8.52792L7.77354 9.03259L7.31782 9.20342L10.5318 17.7774L10.9999 19.0262L11.4682 17.7775L14.6832 9.20346L14.9492 8.49402L14.1923 8.52843C12.1753 8.62012 10.1554 8.62487 8.13809 8.54267L8.13256 8.52792H7.78601H7.78501ZM15.8185 8.43611L15.4977 8.45829L15.3848 8.75937L12.2598 17.0934L13.0558 17.6464C15.9318 15.1491 18.3381 12.1576 20.161 8.81321L20.6171 7.97652L19.6695 8.07669L18.3549 8.21563C18.3548 8.21564 18.3547 8.21566 18.3546 8.21567C17.5106 8.30404 16.6655 8.37752 15.8185 8.43611ZM19.7084 7.57017L20.5308 7.4836L20.072 6.79554L17.089 2.32154L17.0886 2.32092C17.02 2.21836 16.9272 2.13432 16.8183 2.07624C16.7096 2.01821 16.5882 1.98788 16.465 1.98792C16.4649 1.98792 16.4649 1.98792 16.4648 1.98792C16.4647 1.98792 16.4647 1.98792 16.4646 1.98792L14.125 1.98792H13.3749L13.6635 2.68031L15.5789 7.2749C15.579 7.27512 15.5791 7.27535 15.5792 7.27557C15.6102 7.35067 15.6338 7.42862 15.6496 7.50831L15.7358 7.94248L16.1772 7.90953C16.8865 7.85658 17.595 7.79278 18.3024 7.71817C18.3024 7.71816 18.3024 7.71816 18.3025 7.71816L19.7084 7.57017ZM14.6189 8.00725L14.6058 7.50217L15.0535 7.31558L12.9615 2.29558L12.8333 1.98792H12.5H9.50001H9.16664L9.03845 2.29566L6.94745 7.31566L6.67467 7.97055L7.38315 8.00725C9.79437 8.13214 12.2086 8.13214 14.6189 8.00725Z" stroke="#7ACB8B"/>
</svg>
