<svg width="41" height="60" viewBox="0 0 41 60" fill="none" xmlns="http://www.w3.org/2000/svg">
<path d="M23.8945 60C23.8823 60 23.8702 60 23.8581 59.9987C22.9432 59.9379 22.475 59.5884 22.425 59.5493C22.2874 59.4414 22.2105 59.2741 22.2186 59.1013L22.5033 52.7512C22.5155 52.4544 22.7718 52.2263 23.066 52.2371C23.3642 52.2493 23.5949 52.5016 23.5815 52.7998L23.3129 58.8031C23.4506 58.8517 23.6543 58.9043 23.9296 58.9219C24.2264 58.9421 24.4518 59.1985 24.4329 59.4967C24.414 59.7814 24.1765 60 23.8945 60Z" fill="#3C3F42"/>
<path d="M5.05464 49.8232C2.74724 49.8232 0.54911 48.2755 0.0876295 46.2825C-0.141762 45.2962 -0.225401 42.812 3.90769 41.0241C4.18161 40.9067 4.4987 41.0322 4.61744 41.3061C4.73619 41.58 4.60934 41.8971 4.33677 42.0159C1.9511 43.0468 0.785253 44.5135 1.13879 46.0383C1.50446 47.617 3.34635 48.8247 5.24489 48.7397C5.54445 48.7222 5.79544 48.9556 5.81028 49.2538C5.82378 49.5507 5.59436 49.803 5.29615 49.8179C5.21519 49.8219 5.13425 49.8232 5.05464 49.8232Z" fill="#3C3F42"/>
<path d="M6.00736 50.9609C5.84274 50.9609 5.67946 50.938 5.52294 50.8881C4.82937 50.6681 4.44479 50.0204 4.49337 49.1569C4.55544 48.0396 5.19504 47.6618 5.72534 47.6901C6.03704 47.7022 6.33796 47.8507 6.57409 48.0733C7.03288 48.1786 7.40259 48.4201 7.62119 48.7736C7.87487 49.1838 7.88163 49.6791 7.63874 50.065C7.29196 50.6196 6.63616 50.9609 6.00736 50.9609Z" fill="#3C3F42"/>
<path d="M13.1818 60C12.8998 60 12.6623 59.7814 12.6434 59.4967C12.6246 59.1985 12.8486 58.9421 13.1468 58.9219C13.4207 58.9043 13.6244 58.8517 13.7634 58.8018L13.4949 52.7998C13.4814 52.5016 13.7121 52.2493 14.0104 52.2371C14.3018 52.2223 14.5595 52.453 14.573 52.7512L14.8578 59.1013C14.8645 59.2741 14.7889 59.4414 14.6513 59.5493C14.6014 59.5884 14.1332 59.9379 13.2183 59.9987C13.2061 60 13.194 60 13.1818 60Z" fill="#3C3F42"/>
<path d="M33.4924 44.2129C32.8177 44.2129 32.1012 44.0847 31.3537 43.8256C31.0716 43.7285 30.9232 43.4208 31.0204 43.1388C31.1175 42.8568 31.4252 42.707 31.7072 42.8055C33.2063 43.325 34.4734 43.2346 35.4746 42.537C36.7349 41.6599 37.4838 39.8626 37.5297 37.6064C37.5364 37.3123 37.7766 37.0775 38.0694 37.0775H38.0802C38.3784 37.0829 38.6159 37.3298 38.6092 37.628C38.5565 40.2336 37.639 42.3454 36.0913 43.4235C35.337 43.9484 34.4585 44.2129 33.4924 44.2129Z" fill="#3C3F42"/>
<path d="M39.9316 35.5573C39.9289 35.564 39.7319 35.8838 39.4094 36.2144C39.4013 35.8474 39.3568 35.4628 39.2987 35.1026C39.2502 34.8098 38.9749 34.6141 38.6821 34.6654C38.3893 34.7166 38.1909 34.9946 38.2381 35.2874C38.3083 35.7138 38.338 36.1794 38.3259 36.5194C38.1909 36.2279 38.0492 35.8191 37.9548 35.4264C37.886 35.139 37.5958 34.9636 37.3084 35.0364C37.0197 35.108 36.8416 35.3994 36.9104 35.6882C37.0143 36.1227 37.1546 36.5828 37.3395 36.9755C36.878 36.9202 36.5906 36.7555 36.5663 36.7407C36.3166 36.5882 35.9874 36.6665 35.8295 36.9175C35.6717 37.1698 35.7445 37.5017 35.9941 37.6569C36.04 37.6852 37.1276 38.3478 38.6443 37.9268L38.6605 37.9227C38.6848 37.916 38.7077 37.9092 38.7307 37.9011C40.0031 37.5004 40.8168 36.1605 40.8518 36.1024L40.8707 36.0674C40.9962 35.8177 40.9112 35.5114 40.6697 35.3684C40.416 35.2173 40.0854 35.3023 39.9316 35.5573Z" fill="#3C3F42"/>
<path d="M32.6719 39.7316C32.6719 47.7818 26.1464 54.306 18.0975 54.306C10.0486 54.306 3.52307 47.7818 3.52307 39.7316C3.52307 30.1334 11.8122 18.2036 15.8879 12.918C17.0235 11.4453 19.1715 11.4453 20.307 12.918C24.3828 18.2036 32.6719 30.1334 32.6719 39.7316Z" fill="#2EA3F2"/>
<path d="M18.4121 53.374C12.6665 53.374 8.0072 49.7982 8.0072 45.3872C8.0072 40.9761 12.6665 37.4003 18.4121 37.4003C24.159 37.4003 28.8183 40.9761 28.8183 45.3872C28.8183 49.7982 24.159 53.374 18.4121 53.374Z" fill="#0C71C3"/>
<path d="M16.9478 15.1204C16.933 14.9963 16.7765 14.9194 16.6645 14.9491C15.9925 15.1272 15.5432 16.0339 15.1626 16.5723C14.6539 17.2929 14.1735 18.0256 13.7148 18.7785C13.2587 19.5301 12.8094 20.2871 12.3911 21.0603C12.0362 21.7161 11.3156 22.6364 11.3831 23.4001C11.4155 23.7658 11.7838 24.1072 12.159 23.8778C12.8431 23.4581 13.1359 22.4488 13.507 21.7579C13.9239 20.9821 14.3368 20.2048 14.77 19.4397C15.2031 18.6719 15.6376 17.9069 16.0735 17.1418C16.4135 16.5481 17.0342 15.8315 16.9478 15.1204Z" fill="white"/>
<path d="M10.9635 24.9022C10.5911 24.7875 10.274 25.0101 10.1336 25.3407C10.054 25.5269 9.97441 25.7145 9.8948 25.9007C9.76121 26.1355 9.65192 26.3851 9.57635 26.6509C9.4792 26.9856 9.6654 27.3553 10.0027 27.4592C10.3725 27.5725 10.6653 27.3512 10.811 27.0314C11.008 26.5983 11.205 26.1652 11.402 25.732C11.5504 25.4055 11.2738 24.998 10.9635 24.9022Z" fill="white"/>
<path d="M7.24953 40.7419C7.34263 42.9022 9.17237 44.5781 11.3367 44.485C13.5011 44.3905 15.1783 42.5635 15.0852 40.4032C14.9908 38.2415 13.1611 36.5656 10.9967 36.6601C8.83366 36.7532 7.15507 38.5802 7.24953 40.7419Z" fill="white"/>
<path d="M12.9128 42.0899C12.6713 42.3638 12.2894 42.4245 12.0614 42.2235C11.8333 42.0238 11.8455 41.6392 12.087 41.3639C12.3285 41.09 12.7091 41.0293 12.9371 41.2304C13.1651 41.4301 13.1543 41.8146 12.9128 42.0899ZM10.8334 40.2953C10.4151 40.7702 9.758 40.8728 9.36264 40.5273C8.96862 40.1805 8.9875 39.5153 9.40581 39.0417C9.82411 38.5667 10.4826 38.4628 10.8766 38.8096C11.2706 39.155 11.2517 39.8203 10.8334 40.2953ZM13.8627 40.4558C13.798 38.9675 12.5377 37.8124 11.048 37.8772C9.55695 37.942 8.40054 39.2009 8.46531 40.6893C8.53008 42.1776 9.79037 43.3313 11.2814 43.2665C12.7725 43.2031 13.9275 41.9442 13.8627 40.4558Z" fill="#3C3F42"/>
<path d="M21.6308 40.7419C21.7252 42.9022 23.555 44.5781 25.7193 44.485C27.8837 44.3905 29.561 42.5635 29.4679 40.4032C29.3734 38.2415 27.5437 36.5656 25.3793 36.6601C23.2163 36.7532 21.5377 38.5802 21.6308 40.7419Z" fill="white"/>
<path d="M27.4762 41.9914C27.2347 42.2667 26.8542 42.326 26.6262 42.1263C26.3981 41.9253 26.4089 41.5407 26.6505 41.2668C26.892 40.9915 27.2738 40.9321 27.5019 41.1319C27.7299 41.3329 27.7191 41.7175 27.4762 41.9914ZM25.2539 40.1374C24.7789 40.5557 24.1123 40.5759 23.7655 40.1832C23.4174 39.7892 23.5199 39.1321 23.9949 38.7138C24.4685 38.2955 25.1351 38.2753 25.4819 38.6679C25.83 39.0619 25.7275 39.7191 25.2539 40.1374ZM28.2454 40.4558C28.1806 38.9675 26.9203 37.8124 25.4306 37.8772C23.9396 37.942 22.7832 39.2009 22.8479 40.6893C22.9127 42.1776 24.1744 43.3313 25.6641 43.2665C27.1551 43.2031 28.3102 41.9442 28.2454 40.4558Z" fill="#3C3F42"/>
<path d="M22.7576 33.8651C22.8439 34.5533 24.115 34.6369 25.463 34.4386C26.6693 34.2618 27.8608 34.197 27.9081 33.2754C28.0039 31.3809 22.4998 31.7925 22.7576 33.8651Z" fill="#3C3F42"/>
<path d="M8.808 33.2754C8.85523 34.197 10.0467 34.2618 11.2544 34.4386C12.6024 34.6369 13.8721 34.5533 13.9585 33.8651C14.2162 31.7925 8.71219 31.3809 8.808 33.2754Z" fill="#3C3F42"/>
<path d="M29.766 45.5208C29.766 46.0241 29.0036 46.4316 28.0631 46.4316C27.1213 46.4316 26.3589 46.0241 26.3589 45.5208C26.3589 45.0189 27.1213 44.61 28.0631 44.61C29.0036 44.61 29.766 45.0189 29.766 45.5208Z" fill="#B6DFE9"/>
<path d="M10.0225 45.5208C10.0225 46.0241 9.26008 46.4316 8.31958 46.4316C7.37773 46.4316 6.61536 46.0241 6.61536 45.5208C6.61536 45.0189 7.37773 44.61 8.31958 44.61C9.26008 44.61 10.0225 45.0189 10.0225 45.5208Z" fill="#B6DFE9"/>
<path d="M20.6069 44.8038C21.3517 45.7052 20.6271 47.3838 18.1766 47.3838C15.7276 47.3838 15.1258 45.5703 15.7492 44.8038C16.1081 44.3653 16.9325 44.5839 18.1766 44.5839C19.4221 44.5839 20.2371 44.3572 20.6069 44.8038Z" fill="#AB1700"/>
<path d="M20.2587 44.9671C20.2587 45.1722 19.3574 45.3382 18.2455 45.3382C17.135 45.3382 16.2336 45.1722 16.2336 44.9671C16.2336 44.762 17.135 44.8119 18.2455 44.8119C19.3574 44.8119 20.2587 44.762 20.2587 44.9671Z" fill="white"/>
<path d="M16.5157 46.7037C16.8962 46.9399 17.4454 47.1018 18.1875 47.1018C19.0201 47.1018 19.6232 46.9129 20.0172 46.643C18.5977 45.2721 17.2618 46.0277 16.5157 46.7037Z" fill="#FD6C6C"/>
</svg>
