<svg width="24" height="25" viewBox="0 0 24 25" fill="none" xmlns="http://www.w3.org/2000/svg">
    <path
        d="M20.6471 15.7873C19.9956 18.5647 17.827 20.7333 15.0496 21.3848C13.0437 21.8553 10.9563 21.8553 8.95044 21.3848C6.17301 20.7333 4.00437 18.5647 3.35288 15.7873C2.88237 13.7814 2.88237 11.694 3.35288 9.68813C4.00437 6.91071 6.17301 4.74207 8.95043 4.09058"
        stroke="#212121" stroke-width="1.5" stroke-linecap="round" />
    <path
        d="M12.1754 8.72727L12.9056 8.55599L12.1754 8.72727ZM12.1754 5.69557L12.9056 5.86685L12.1754 5.69557ZM20.7718 5.69557L21.502 5.5243L20.7718 5.69557ZM20.7718 8.72726L21.502 8.89854L20.7718 8.72726ZM17.9895 11.5096L17.8182 10.7795L17.9895 11.5096ZM14.9578 11.5096L14.7865 12.2398L14.9578 11.5096ZM14.9578 2.9132L14.7865 2.18302L14.9578 2.9132ZM17.9895 2.9132L18.1607 2.18302L17.9895 2.9132ZM21.4697 13.2681C21.7626 13.561 22.2374 13.561 22.5303 13.2681C22.8232 12.9752 22.8232 12.5004 22.5303 12.2075L21.4697 13.2681ZM12.9056 8.55599C12.6981 7.67161 12.6981 6.75123 12.9056 5.86685L11.4452 5.52429C11.1849 6.63398 11.1849 7.78885 11.4452 8.89854L12.9056 8.55599ZM20.0417 5.86685C20.2491 6.75123 20.2491 7.67161 20.0417 8.55599L21.502 8.89854C21.7623 7.78885 21.7623 6.63398 21.502 5.5243L20.0417 5.86685ZM17.8182 10.7795C16.9338 10.9869 16.0134 10.9869 15.1291 10.7795L14.7865 12.2398C15.8962 12.5001 17.0511 12.5001 18.1607 12.2398L17.8182 10.7795ZM15.1291 3.64338C16.0134 3.43593 16.9338 3.43593 17.8182 3.64338L18.1607 2.18302C17.0511 1.92272 15.8962 1.92272 14.7865 2.18302L15.1291 3.64338ZM15.1291 10.7795C14.0258 10.5207 13.1644 9.65924 12.9056 8.55599L11.4452 8.89854C11.8341 10.5564 13.1286 11.8509 14.7865 12.2398L15.1291 10.7795ZM18.1607 12.2398C19.8186 11.8509 21.1131 10.5564 21.502 8.89854L20.0417 8.55599C19.7829 9.65924 18.9214 10.5207 17.8182 10.7795L18.1607 12.2398ZM17.8182 3.64338C18.9214 3.90217 19.7829 4.7636 20.0417 5.86685L21.502 5.5243C21.1131 3.8664 19.8186 2.57191 18.1607 2.18302L17.8182 3.64338ZM14.7865 2.18302C13.1286 2.57191 11.8341 3.8664 11.4452 5.52429L12.9056 5.86685C13.1644 4.76359 14.0258 3.90217 15.1291 3.64338L14.7865 2.18302ZM19.4336 11.2321L21.4697 13.2681L22.5303 12.2075L20.4943 10.1714L19.4336 11.2321Z"
        fill="#212121" />
</svg>
    