<svg width="40" height="41" viewBox="0 0 40 41" fill="none" xmlns="http://www.w3.org/2000/svg">
<path d="M10.819 13.6457C10.6409 15.5457 10.5159 18.9082 11.6378 20.3394C11.6378 20.3394 11.1097 16.6457 15.844 12.0113C17.7503 10.1457 18.1909 7.6082 17.5253 5.70507C17.1472 4.62695 16.4565 3.73632 15.8565 3.11445C15.5065 2.74882 15.7753 2.1457 16.2847 2.16757C19.3659 2.30507 24.3597 3.16132 26.4815 8.48632C27.4128 10.8238 27.4815 13.2394 27.0378 15.6957C26.7565 17.2644 25.7565 20.7519 28.0378 21.1801C29.6659 21.4863 30.4534 20.1926 30.8065 19.2613C30.9534 18.8738 31.4628 18.7769 31.7378 19.0863C34.4878 22.2144 34.7222 25.8988 34.1534 29.0707C33.0534 35.2019 26.844 39.6644 20.6753 39.6644C12.969 39.6644 6.83466 35.2551 5.24404 27.2738C4.60341 24.0519 4.92841 17.6769 9.89716 13.1769C10.2659 12.8394 10.869 13.1394 10.819 13.6457Z" fill="url(#paint0_radial_2644_16115)"/>
<path d="M23.4916 25.1121C20.651 21.4558 21.9229 17.2839 22.6197 15.6214C22.7135 15.4027 22.4635 15.1964 22.2666 15.3308C21.0447 16.1621 18.5416 18.1183 17.376 20.8714C15.7979 24.5933 15.9104 26.4152 16.8447 28.6402C17.4072 29.9808 16.7541 30.2652 16.426 30.3152C16.1072 30.3652 15.8135 30.1527 15.5791 29.9308C14.9049 29.2835 14.4244 28.461 14.1916 27.5558C14.1416 27.3621 13.8885 27.3089 13.7729 27.4683C12.8979 28.6777 12.4447 30.6183 12.4229 31.9902C12.3541 36.2308 15.8572 39.6683 20.0947 39.6683C25.4354 39.6683 29.326 33.7621 26.2572 28.8246C25.3666 27.3871 24.5291 26.4464 23.4916 25.1121Z" fill="url(#paint1_radial_2644_16115)"/>
<defs>
<radialGradient id="paint0_radial_2644_16115" cx="0" cy="0" r="1" gradientUnits="userSpaceOnUse" gradientTransform="translate(19.149 39.7616) rotate(-179.751) scale(22.0586 36.1938)">
<stop offset="0.314" stop-color="#FF9800"/>
<stop offset="0.662" stop-color="#FF6D00"/>
<stop offset="0.972" stop-color="#F44336"/>
</radialGradient>
<radialGradient id="paint1_radial_2644_16115" cx="0" cy="0" r="1" gradientUnits="userSpaceOnUse" gradientTransform="translate(20.3885 17.8116) rotate(90.5787) scale(23.0801 17.3695)">
<stop offset="0.214" stop-color="#FFF176"/>
<stop offset="0.328" stop-color="#FFF27D"/>
<stop offset="0.487" stop-color="#FFF48F"/>
<stop offset="0.672" stop-color="#FFF7AD"/>
<stop offset="0.793" stop-color="#FFF9C4"/>
<stop offset="0.822" stop-color="#FFF8BD" stop-opacity="0.804"/>
<stop offset="0.863" stop-color="#FFF6AB" stop-opacity="0.529"/>
<stop offset="0.91" stop-color="#FFF38D" stop-opacity="0.209"/>
<stop offset="0.941" stop-color="#FFF176" stop-opacity="0"/>
</radialGradient>
</defs>
</svg>
