<svg width="48" height="48" viewBox="0 0 48 48" fill="none" xmlns="http://www.w3.org/2000/svg">
    <path opacity="0.4"
        d="M39.9399 20V36C39.9399 42 37.9399 44 31.9399 44H15.9399C9.93994 44 7.93994 42 7.93994 36V20H39.9399Z"
        fill="white" />
    <path
        d="M43 14V16C43 18.2 41.94 20 39 20H9C5.94 20 5 18.2 5 16V14C5 11.8 5.94 10 9 10H39C41.94 10 43 11.8 43 14Z"
        fill="white" />
    <path opacity="0.4"
        d="M23.2801 10H12.2401C11.5601 9.26 11.5801 8.12001 12.3001 7.40001L15.1401 4.56C15.8801 3.82 17.1001 3.82 17.8401 4.56L23.2801 10Z"
        fill="white" />
    <path opacity="0.4"
        d="M35.74 10H24.7L30.1399 4.56C30.8799 3.82 32.0999 3.82 32.8399 4.56L35.6799 7.40001C36.3999 8.12001 36.4199 9.26 35.74 10Z"
        fill="white" />
    <path opacity="0.6"
        d="M17.88 20V30.28C17.88 31.88 19.64 32.82 20.98 31.96L22.86 30.72C23.54 30.28 24.4 30.28 25.06 30.72L26.84 31.92C28.16 32.8 29.94 31.86 29.94 30.26V20H17.88Z"
        fill="white" />
</svg>
    