<svg width="22" height="17" viewBox="0 0 22 17" fill="none" xmlns="http://www.w3.org/2000/svg">
<path d="M10.949 11.2775C14.3802 11.2775 17.31 11.8215 17.31 13.9983C17.31 16.1741 14.399 16.7379 10.949 16.7379C7.51785 16.7379 4.58809 16.1939 4.58809 14.0181C4.58809 11.8413 7.49904 11.2775 10.949 11.2775ZM16.4351 9.96679C17.7468 9.94248 19.1571 10.1226 19.6782 10.2505C20.7823 10.4675 21.5084 10.9106 21.8093 11.5546C22.0636 12.0832 22.0636 12.6965 21.8093 13.2243C21.349 14.2231 19.8654 14.5437 19.2887 14.6265C19.1696 14.6445 19.0738 14.541 19.0864 14.4212C19.3809 11.6536 17.0377 10.3414 16.4315 10.0397C16.4055 10.0262 16.4002 10.0055 16.4028 9.99291C16.4046 9.9839 16.4154 9.96949 16.4351 9.96679ZM5.5656 9.96715C5.5853 9.96986 5.59515 9.98427 5.59694 9.99237C5.59962 10.0059 5.59425 10.0257 5.56918 10.0401C4.9621 10.3418 2.61883 11.654 2.91342 14.4207C2.92595 14.5413 2.83104 14.644 2.71195 14.6269C2.13531 14.544 0.651629 14.2234 0.191392 13.2246C-0.0637974 12.696 -0.0637974 12.0836 0.191392 11.5549C0.492248 10.911 1.21752 10.4679 2.32156 10.2499C2.84358 10.123 4.25294 9.94284 5.5656 9.96715ZM10.949 0.737915C13.2851 0.737915 15.1583 2.62018 15.1583 4.97077C15.1583 7.32045 13.2851 9.20452 10.949 9.20452C8.61292 9.20452 6.73974 7.32045 6.73974 4.97077C6.73974 2.62018 8.61292 0.737915 10.949 0.737915ZM16.6634 1.44381C18.9198 1.44381 20.6918 3.57915 20.0883 5.95765C19.6809 7.55893 18.2062 8.62255 16.5631 8.57932C16.3984 8.57481 16.2363 8.5595 16.0796 8.53249C15.9659 8.51267 15.9086 8.38389 15.973 8.28842C16.5998 7.3608 16.9571 6.24495 16.9571 5.04714C16.9571 3.7971 16.5667 2.63171 15.8889 1.67617C15.8674 1.64645 15.8513 1.60052 15.8728 1.56629C15.8907 1.53837 15.9238 1.52396 15.9551 1.51676C16.1835 1.46993 16.4181 1.44381 16.6634 1.44381ZM5.33593 1.44372C5.58127 1.44372 5.81586 1.46984 6.04509 1.51667C6.07553 1.52387 6.10956 1.53918 6.12746 1.5662C6.14806 1.60043 6.13284 1.64636 6.11135 1.67608C5.43353 2.63162 5.04313 3.79701 5.04313 5.04705C5.04313 6.24485 5.4004 7.36071 6.02718 8.28833C6.09165 8.3838 6.03434 8.51258 5.92063 8.5324C5.76304 8.56032 5.60186 8.57472 5.43711 8.57923C3.79404 8.62246 2.31932 7.55884 1.91191 5.95756C1.30751 3.57906 3.07951 1.44372 5.33593 1.44372Z" fill="#7ACB8B"/>
</svg>
