<svg width="24" height="25" viewBox="0 0 24 25" fill="none" xmlns="http://www.w3.org/2000/svg">
    <path
        d="M15.8754 20.2374L16.0559 20.1125C16.6209 19.7219 16.9035 19.5265 17.1562 19.317C18.5294 18.1789 19.4518 16.5924 19.7588 14.8405C19.8153 14.5181 19.8446 14.1771 19.9033 13.4949L19.9337 13.1422C20.0309 12.0132 20.0212 10.8775 19.9048 9.75023L19.8687 9.40139C19.665 7.4287 18.4539 5.69971 16.6644 4.82663C13.7221 3.39112 10.2779 3.39112 7.33559 4.82663C5.54608 5.69971 4.33504 7.4287 4.13127 9.40139L4.09524 9.75023C3.9788 10.8775 3.96911 12.0132 4.0663 13.1422L4.09666 13.4949C4.15537 14.1771 4.18473 14.5181 4.24123 14.8405C4.54821 16.5924 5.47055 18.1789 6.8438 19.317C7.09652 19.5265 7.3791 19.7219 7.94406 20.1126L8.12461 20.2374C8.89273 20.7685 9.27682 21.0342 9.66175 21.2187C11.1393 21.9271 12.8607 21.9271 14.3382 21.2187C14.7232 21.0342 15.1073 20.7686 15.8754 20.2374Z"
        stroke="#212121" stroke-width="1.5" />
    <path d="M13.7678 10.9822L10.2322 14.5178M13.7678 14.5178L10.2322 10.9822" stroke="#212121" stroke-width="1.5"
        stroke-linecap="round" />
</svg>