<svg width="24" height="25" viewBox="0 0 24 25" fill="none" xmlns="http://www.w3.org/2000/svg">
    <path
        d="M7.92563 7.14211C5.62654 7.68141 3.8314 9.47655 3.2921 11.7756C2.90263 13.436 2.90263 15.164 3.2921 16.8244C3.8314 19.1235 5.62655 20.9186 7.92564 21.4579C9.58601 21.8474 11.314 21.8474 12.9744 21.4579C15.2734 20.9186 17.0686 19.1235 17.6079 16.8244M7.92563 7.14211C9.58601 6.75264 11.314 6.75264 12.9744 7.14211C15.2734 7.68141 17.0686 9.47656 17.6079 11.7756C17.9974 13.436 17.9974 15.164 17.6079 16.8244M7.92563 7.14211C7.52772 7.23545 7.14491 7.36641 6.78108 7.53108C7.56789 5.79278 9.12447 4.48806 11.0256 4.0421C12.686 3.65263 14.414 3.65263 16.0744 4.0421C18.3735 4.5814 20.1686 6.37655 20.7079 8.67563C21.0974 10.336 21.0974 12.064 20.7079 13.7244C20.2619 15.6255 18.9572 17.1821 17.2189 17.9689C17.3836 17.6051 17.5145 17.2223 17.6079 16.8244"
        stroke="#212121" stroke-width="1.5" />
</svg>