<svg width="25" height="24" viewBox="0 0 25 24" fill="none" xmlns="http://www.w3.org/2000/svg">
<path d="M17.1519 14.0587C17.1518 15.2247 16.8584 16.3719 16.2987 17.3947C15.7391 18.4176 14.9311 19.2832 13.9492 19.9119C12.9673 20.5407 11.843 20.9123 10.6798 20.9927C9.51666 21.073 8.35195 20.8594 7.29294 20.3716C6.23392 19.8839 5.31463 19.1375 4.61967 18.2013C3.92471 17.2651 3.47642 16.1691 3.31606 15.0142C3.1557 13.8594 3.28842 12.6827 3.70201 11.5926C4.11561 10.5025 4.79678 9.53387 5.68283 8.776" stroke="#212121" stroke-width="1.3" stroke-linecap="round" stroke-linejoin="round"/>
<path d="M9.89518 11.4868C9.76116 11.7644 9.68626 12.0667 9.67525 12.3747C9.66424 12.6827 9.71736 12.9896 9.83124 13.276C9.99121 13.6659 10.2641 13.9991 10.6149 14.2327C10.9657 14.4663 11.3783 14.5897 11.7997 14.5869C12.0836 14.5869 12.3559 14.6997 12.5567 14.9005C12.7574 15.1012 12.8702 15.3735 12.8702 15.6574V20.4813M3.34741 15.1291H5.91925C6.20504 15.1217 6.48943 15.1716 6.75562 15.2758C7.02182 15.3801 7.26444 15.5366 7.46917 15.7362C7.67389 15.9357 7.83658 16.1742 7.94763 16.4377C8.05868 16.7011 8.11584 16.9841 8.11575 17.27V20.676M20.9889 4.98077L19.5987 4.5081C19.501 4.47491 19.3951 4.47461 19.2972 4.50724C19.1993 4.53988 19.1148 4.60365 19.0565 4.68883L18.0417 6.25974L12.4809 3.47937C12.0414 3.22036 11.5501 3.06169 11.0422 3.01471C10.5342 2.96773 10.0221 3.03361 9.5426 3.20762C9.06307 3.38163 8.62792 3.65949 8.2683 4.0213C7.90868 4.38311 7.63347 4.81993 7.46236 5.30051C7.4152 5.42518 7.39494 5.55842 7.40291 5.69148C7.41088 5.82453 7.4469 5.9544 7.5086 6.07255C7.5703 6.1907 7.65629 6.29447 7.76093 6.37705C7.86557 6.45962 7.98649 6.51913 8.11575 6.55167L11.7441 7.71943L12.1056 7.84455L12.7868 10.1801C12.8086 10.2614 12.8507 10.3359 12.909 10.3966C12.9673 10.4574 13.0401 10.5024 13.1204 10.5276L14.7608 11.0559C14.8446 11.0832 14.9339 11.0885 15.0203 11.0713C15.1067 11.0542 15.1873 11.0151 15.2542 10.9579C15.3212 10.9007 15.3724 10.8273 15.4028 10.7446C15.4333 10.662 15.442 10.5729 15.4281 10.4859L15.0667 8.74817H15.303L18.848 9.90202C19.0803 9.98211 19.3349 9.96714 19.5562 9.86038C19.7775 9.75362 19.9477 9.56371 20.0296 9.33205L21.2808 5.48123C21.2946 5.37724 21.2734 5.27163 21.2205 5.18102C21.1677 5.09042 21.0862 5.01997 20.9889 4.98077Z" stroke="#212121" stroke-width="1.3" stroke-linecap="round" stroke-linejoin="round"/>
</svg>
