<svg width="24" height="25" viewBox="0 0 24 25" fill="none" xmlns="http://www.w3.org/2000/svg">
<path d="M3.68764 9.80641C4.31391 7.13651 6.39859 5.05183 9.06849 4.42555V4.42555C10.9967 3.97327 13.0033 3.97327 14.9315 4.42555V4.42555C17.6014 5.05183 19.6861 7.13651 20.3124 9.80641V9.80641C20.7646 11.7346 20.7646 13.7413 20.3124 15.6694V15.6694C19.6861 18.3393 17.6014 20.424 14.9315 21.0503V21.0503C13.0033 21.5026 10.9967 21.5026 9.0685 21.0503V21.0503C6.3986 20.424 4.31391 18.3393 3.68764 15.6694V15.6694C3.23535 13.7413 3.23535 11.7346 3.68764 9.80641V9.80641Z" stroke="#7ACB8B" stroke-width="1.5"/>
<path d="M14.1618 11.6086C14.9461 12.1105 14.9461 13.3653 14.1618 13.8673L11.5147 15.5613C10.7304 16.0632 9.75 15.4358 9.75 14.4319L9.75 11.0439C9.75 10.0401 10.7304 9.41264 11.5147 9.91457L14.1618 11.6086Z" stroke="#7ACB8B" stroke-width="1.5"/>
</svg>
