<svg width="24" height="25" viewBox="0 0 24 25" fill="none" xmlns="http://www.w3.org/2000/svg">
    <path
        d="M3 19.183C3 17.1808 4.45485 15.4754 6.43204 15.1598L6.61013 15.1314C8.19336 14.8787 9.80664 14.8787 11.3899 15.1314L11.568 15.1598C13.5451 15.4754 15 17.1808 15 19.183C15 20.0484 14.2984 20.75 13.433 20.75H4.56697C3.70156 20.75 3 20.0484 3 19.183Z"
        stroke="#212121" stroke-width="1.5" />
    <path
        d="M12.5 8.25C12.5 10.183 10.933 11.75 9 11.75C7.067 11.75 5.5 10.183 5.5 8.25C5.5 6.317 7.067 4.75 9 4.75C10.933 4.75 12.5 6.317 12.5 8.25Z"
        stroke="#212121" stroke-width="1.5" />
    <path
        d="M15 11.75C16.933 11.75 18.5 10.183 18.5 8.25C18.5 6.317 16.933 4.75 15 4.75M17.3899 20.75H19.433C20.2984 20.75 21 20.0484 21 19.183C21 17.1808 19.5451 15.4754 17.568 15.1598V15.1598C17.4494 15.1409 17.3293 15.1314 17.2093 15.1314C16.8895 15.1314 16.7902 15.1314 16.2412 15.1314"
        stroke="#212121" stroke-width="1.5" stroke-linecap="round" />
</svg>