<svg width="24" height="25" viewBox="0 0 24 25" fill="none" xmlns="http://www.w3.org/2000/svg">
<g clip-path="url(#clip0_14214_1367)">
<path d="M13.0566 16.6812L13.0614 16.699" stroke="#212121" stroke-width="2" stroke-linecap="round"/>
<path d="M11.9292 8.53027L9.95753 9.05859" stroke="#212121" stroke-width="1.2" stroke-linecap="round"/>
<path d="M18.1986 12.841L6.68346 15.9265M16.1218 18.9211C14.721 19.7231 13.1362 20.1477 11.5221 20.1536C9.53375 20.1609 7.71165 19.0435 6.81557 17.2673L6.64434 16.9279C5.83674 15.3271 5.3678 13.577 5.26681 11.7869L5.2454 11.4073C5.13335 9.42112 6.15263 7.54237 7.87824 6.55447C9.279 5.75254 10.8638 5.32789 12.4779 5.322C14.4662 5.31474 16.2883 6.43215 17.1844 8.2083L17.3557 8.54769C18.1633 10.1485 18.6322 11.8986 18.7332 13.6887L18.7546 14.0683C18.8666 16.0545 17.8474 17.9332 16.1218 18.9211Z" stroke="#212121" stroke-width="1.2" stroke-linecap="round"/>
</g>
<path d="M3.44251 16.0034C3.33046 17.9896 4.34974 19.8684 6.07534 20.8563M2.01959 18.1589C1.96413 19.3769 2.63468 20.5383 3.75164 21.1589" stroke="#212121" stroke-width="1.2" stroke-linecap="round"/>
<path d="M20.6982 7.83898C20.2923 5.89143 18.8215 4.34051 16.899 3.83289M21.5148 5.38894C21.2531 4.19813 20.3048 3.24983 19.0653 2.93945" stroke="#212121" stroke-width="1.2" stroke-linecap="round"/>
<defs>
<clipPath id="clip0_14214_1367">
<rect width="19.5959" height="19.5959" fill="white" transform="translate(0 5.80957) rotate(-15)"/>
</clipPath>
</defs>
</svg>
