<svg width="41" height="40" viewBox="0 0 41 40" fill="none" xmlns="http://www.w3.org/2000/svg">
<path fill-rule="evenodd" clip-rule="evenodd" d="M20.3773 0H20.6227C24.8092 0 28.3583 0.83543 31.2916 2.4042C34.2249 3.97296 36.5271 6.27505 38.0958 9.2084C39.6645 12.1417 40.5 15.6909 40.5 19.8773V20.1227C40.5 24.3092 39.6645 27.8583 38.0958 30.7916C36.5271 33.7249 34.2249 36.0271 31.2916 37.5958C28.3583 39.1645 24.8092 40 20.6227 40H20.3773C16.1909 40 12.6417 39.1645 9.7084 37.5958C6.77505 36.0271 4.47296 33.7249 2.9042 30.7916C1.33543 27.8583 0.5 24.3092 0.5 20.1227V19.8773C0.5 15.6909 1.33543 12.1417 2.9042 9.2084C4.47296 6.27505 6.77505 3.97296 9.7084 2.4042C12.6417 0.83543 16.1909 0 20.3773 0Z" fill="#7ACB8B"/>
<path d="M17.4504 28.385C14.673 27.7335 12.5044 25.5649 11.8529 22.7875C11.3824 20.7817 11.3824 18.6942 11.8529 16.6883C12.5044 13.9109 14.673 11.7423 17.4504 11.0908C19.4563 10.6203 21.5437 10.6203 23.5496 11.0908C26.327 11.7423 28.4956 13.9109 29.1471 16.6883C29.6176 18.6942 29.6176 20.7817 29.1471 22.7875C28.4956 25.5649 26.327 27.7335 23.5496 28.385C21.5437 28.8555 19.4563 28.8555 17.4504 28.385Z" stroke="white" stroke-width="1.5"/>
<circle cx="20.5" cy="23.2379" r="1" fill="white"/>
<path d="M18.5 17.7379V17.2379C18.5 16.1333 19.3954 15.2379 20.5 15.2379V15.2379V15.2379C21.6046 15.2379 22.5 16.1333 22.5 17.2379V17.3592C22.5 17.9218 22.2765 18.4614 21.8787 18.8592L20.5 20.2379" stroke="white" stroke-width="1.5" stroke-linecap="round" stroke-linejoin="round"/>
</svg>
