<svg width="12" height="14" viewBox="0 0 12 14" fill="none" xmlns="http://www.w3.org/2000/svg">
<path d="M12 6.36364C12 9.89545 9.44 13.1982 6 14C2.56 13.1982 0 9.89545 0 6.36364V2.54545L6 0L12 2.54545V6.36364ZM6 12.7273C8.5 12.0909 10.6667 9.25273 10.6667 6.50364V3.37273L6 1.38727L1.33333 3.37273V6.50364C1.33333 9.25273 3.5 12.0909 6 12.7273ZM8.03333 9.54545L5.98 8.36818L3.93333 9.54545L4.47333 7.31818L2.66667 5.82909L5.05333 5.63182L5.98 3.53182L6.91333 5.62545L9.3 5.82273L7.48667 7.31818L8.03333 9.54545Z" fill="url(#paint0_linear_19518_2076)"/>
<defs>
<linearGradient id="paint0_linear_19518_2076" x1="12" y1="7" x2="-8.7121e-08" y2="7" gradientUnits="userSpaceOnUse">
<stop stop-color="#7A4BFF"/>
<stop offset="1" stop-color="#FF5F4A"/>
</linearGradient>
</defs>
</svg>
