<svg width="24" height="24" viewBox="0 0 24 24" fill="none" xmlns="http://www.w3.org/2000/svg">
    <path
        d="M14.937 6.21208C15.1562 6.3614 15.3071 6.59168 15.3565 6.85226C15.4059 7.11284 15.3498 7.38238 15.2005 7.60158C15.0512 7.82079 14.8209 7.97169 14.5603 8.02111C14.2998 8.07053 14.0302 8.0144 13.811 7.86508C12.8878 7.23747 11.7811 6.93687 10.6672 7.01118C9.55333 7.08549 8.49635 7.53042 7.66467 8.2751C6.83299 9.01978 6.27445 10.0214 6.07802 11.1203C5.88159 12.2192 6.05858 13.3523 6.58078 14.339C7.10299 15.3257 7.94038 16.1092 8.95954 16.5648C9.9787 17.0204 11.121 17.1218 12.2045 16.8528C13.288 16.5839 14.2503 15.9601 14.9381 15.0809C15.626 14.2016 15.9998 13.1174 16 12.0011C16 11.7359 16.1054 11.4815 16.2929 11.294C16.4804 11.1064 16.7348 11.0011 17 11.0011C17.2652 11.0011 17.5196 11.1064 17.7071 11.294C17.8947 11.4815 18 11.7359 18 12.0011C17.9998 13.5641 17.4764 15.082 16.5134 16.3131C15.5504 17.5441 14.203 18.4175 12.686 18.7939C11.1691 19.1704 9.56974 19.0283 8.14287 18.3904C6.716 17.7524 5.54369 16.6553 4.81271 15.2737C4.08174 13.8922 3.83416 12.3058 4.10942 10.7672C4.38467 9.22868 5.16694 7.8265 6.33156 6.78411C7.49619 5.74172 8.97618 5.11909 10.5357 5.01542C12.0953 4.91175 13.6447 5.33301 14.937 6.21208Z"
        fill="white" />
    <path
        d="M14.539 14.5072C14.4284 14.578 14.3049 14.6263 14.1756 14.6493C14.0463 14.6724 13.9137 14.6697 13.7854 14.6416C13.6571 14.6134 13.5357 14.5602 13.4279 14.4851C13.3202 14.4099 13.2283 14.3143 13.1575 14.2037C13.0867 14.0931 13.0384 13.9696 13.0154 13.8403C12.9923 13.7109 12.995 13.5784 13.0232 13.4501C13.0513 13.3218 13.1045 13.2003 13.1796 13.0926C13.2548 12.9849 13.3504 12.893 13.461 12.8222L16.943 10.5952C17.1664 10.4569 17.4352 10.4122 17.6913 10.4705C17.9475 10.5288 18.1704 10.6856 18.3119 10.907C18.4533 11.1283 18.502 11.3964 18.4474 11.6534C18.3928 11.9104 18.2393 12.1355 18.02 12.2802L14.539 14.5072Z"
        fill="white" />
    <path
        d="M19.903 14.4112C20.0051 14.6523 20.0085 14.9239 19.9125 15.1675C19.8166 15.4112 19.6288 15.6075 19.3897 15.7142C19.1506 15.8209 18.8791 15.8296 18.6337 15.7383C18.3882 15.6471 18.1884 15.4632 18.077 15.2262L16.569 11.8462C16.5125 11.7259 16.4805 11.5955 16.475 11.4626C16.4695 11.3298 16.4905 11.1972 16.5368 11.0726C16.5831 10.9479 16.6538 10.8338 16.7448 10.7368C16.8358 10.6399 16.9451 10.562 17.0666 10.5078C17.188 10.4537 17.319 10.4242 17.4519 10.4213C17.5848 10.4183 17.717 10.4419 17.8407 10.4906C17.9644 10.5393 18.0771 10.6122 18.1723 10.7051C18.2675 10.7979 18.3432 10.9088 18.395 11.0312L19.903 14.4112Z"
        fill="white" />
</svg>