<svg width="24" height="24" viewBox="0 0 24 24" fill="none" xmlns="http://www.w3.org/2000/svg">
<path d="M9.75 12C9.8163 12 9.87989 12.0263 9.92678 12.0732C9.97366 12.1201 10 12.1837 10 12.25V16.25C10 16.3163 9.97366 16.3799 9.92678 16.4268C9.87989 16.4737 9.8163 16.5 9.75 16.5C9.6837 16.5 9.62011 16.4737 9.57322 16.4268C9.52634 16.3799 9.5 16.3163 9.5 16.25V12.25C9.5 12.1837 9.52634 12.1201 9.57322 12.0732C9.62011 12.0263 9.6837 12 9.75 12ZM14.4268 12.0732C14.4737 12.1201 14.5 12.1837 14.5 12.25V16.25C14.5 16.3163 14.4737 16.3799 14.4268 16.4268C14.3799 16.4737 14.3163 16.5 14.25 16.5C14.1837 16.5 14.1201 16.4737 14.0732 16.4268C14.0263 16.3799 14 16.3163 14 16.25V12.25C14 12.1837 14.0263 12.1201 14.0732 12.0732C14.1201 12.0263 14.1837 12 14.25 12C14.3163 12 14.3799 12.0263 14.4268 12.0732Z" fill="black" stroke="#212121"/>
<path d="M16.0446 6.46318L13.5448 2.89348C13.5447 2.8934 13.5447 2.89331 13.5446 2.89323C13.5446 2.89321 13.5446 2.8932 13.5446 2.89318C13.5067 2.83881 13.4919 2.77162 13.5034 2.70634C13.515 2.64094 13.5521 2.58282 13.6065 2.54476C13.6609 2.50671 13.7283 2.49183 13.7937 2.50341C13.8591 2.51499 13.9172 2.55207 13.9552 2.6065L13.9553 2.60666L17.0553 7.03666L17.2046 7.24999H17.465H19.75C20.2141 7.24999 20.6592 7.43437 20.9874 7.76256C21.3156 8.09074 21.5 8.53586 21.5 8.99999V9.78499V9.78505C21.5 10.0456 21.4419 10.3029 21.3298 10.5381C21.2177 10.7733 21.0545 10.9805 20.8521 11.1446L20.8521 11.1446L19.6891 12.0876L19.5333 12.2139L19.508 12.4129L18.705 18.7209L18.705 18.7209C18.6512 19.1433 18.4453 19.5317 18.1257 19.8132C17.8061 20.0947 17.3949 20.25 16.969 20.25H7.031C6.60513 20.25 6.19387 20.0947 5.8743 19.8132C5.55472 19.5317 5.34876 19.1433 5.295 18.7209L5.29499 18.7208L4.49099 12.4128L4.46565 12.214L4.31007 12.0878L3.14807 11.1448L3.14789 11.1446C2.9455 10.9805 2.7823 10.7733 2.67021 10.5381C2.55812 10.3029 2.49997 10.0456 2.5 9.78505V9.78499V8.99999C2.5 8.53586 2.68437 8.09074 3.01256 7.76256C3.34075 7.43437 3.78587 7.24999 4.25 7.24999H6.534H6.79428L6.94357 7.03679L10.0454 2.60703C10.0454 2.60699 10.0455 2.60696 10.0455 2.60692C10.0835 2.55273 10.1415 2.51584 10.2067 2.50435C10.2719 2.49287 10.3389 2.50767 10.3931 2.54552C10.4473 2.58356 10.4842 2.64152 10.4956 2.7067C10.5071 2.77195 10.4923 2.8391 10.4543 2.89339L7.95538 6.46326L7.40467 7.24999H8.365H15.635H16.5955L16.0446 6.46318ZM3.4627 10.7561L3.46308 10.7564L4.85861 11.888C4.85863 11.888 4.85866 11.888 4.85868 11.888C4.90856 11.9286 4.94088 11.9868 4.94894 12.0506L4.94901 12.0512L5.79101 18.6582L5.79103 18.6583C5.82955 18.96 5.97672 19.2373 6.20498 19.4382C6.43323 19.6392 6.72692 19.75 7.03103 19.75H16.969C17.2731 19.75 17.5668 19.6392 17.795 19.4382C18.0233 19.2373 18.1705 18.96 18.209 18.6583L18.209 18.6581L19.05 12.0512C19.05 12.0512 19.05 12.0512 19.05 12.0511C19.0582 11.9873 19.0906 11.9291 19.1406 11.8886L19.1409 11.8884L20.5367 10.7566C20.6814 10.6393 20.7981 10.4913 20.8783 10.3232C20.9584 10.1551 21 9.97121 21 9.78499C21 9.78496 21 9.78492 21 9.78489V8.99999C21 8.66847 20.8683 8.35053 20.6339 8.11611C20.3995 7.88169 20.0815 7.74999 19.75 7.74999H4.25C3.91848 7.74999 3.60054 7.88169 3.36612 8.11611C3.1317 8.35053 3 8.66847 3 8.99999V9.78499C3 10.162 3.17023 10.5184 3.4627 10.7561Z" fill="black" stroke="#212121"/>
</svg>
