<svg width="40" height="40" viewBox="0 0 40 40" fill="none" xmlns="http://www.w3.org/2000/svg">
    <path fill-rule="evenodd" clip-rule="evenodd"
        d="M19.8773 0H20.1227C24.3092 0 27.8583 0.83543 30.7916 2.4042C33.7249 3.97296 36.0271 6.27505 37.5958 9.2084C39.1645 12.1417 40 15.6909 40 19.8773V20.1227C40 24.3092 39.1645 27.8583 37.5958 30.7916C36.0271 33.7249 33.7249 36.0271 30.7916 37.5958C27.8583 39.1645 24.3092 40 20.1227 40H19.8773C15.6909 40 12.1417 39.1645 9.2084 37.5958C6.27505 36.0271 3.97296 33.7249 2.4042 30.7916C0.83543 27.8583 0 24.3092 0 20.1227V19.8773C0 15.6909 0.83543 12.1417 2.4042 9.2084C3.97296 6.27505 6.27505 3.97296 9.2084 2.4042C12.1417 0.83543 15.6909 0 19.8773 0Z"
        fill="#EBF8EB" />
    <path
        d="M16.4409 13.4996C16.8142 11.9175 18.266 10.7379 20 10.7379C21.734 10.7379 23.1858 11.9175 23.5591 13.4996L23.7151 13.5313C26.1003 14.0168 27.9998 15.7762 28.6215 18.076C29.1262 19.9428 29.1262 21.9055 28.6215 23.7723C27.9998 26.0721 26.1003 27.8315 23.7151 28.317L23.2593 28.4098C21.1095 28.8473 18.8905 28.8473 16.7407 28.4098L16.2849 28.317C13.8997 27.8315 12.0002 26.0721 11.3785 23.7723C10.8738 21.9055 10.8738 19.9428 11.3785 18.076C12.0002 15.7762 13.8997 14.0168 16.2849 13.5313L16.4409 13.4996Z"
        stroke="#7ACB8B" stroke-width="1.5" stroke-linejoin="round" />
    <path
        d="M17.5 20.7379C17.5 19.3572 18.6193 18.2379 20 18.2379C21.3807 18.2379 22.5 19.3572 22.5 20.7379C22.5 22.1186 21.3807 23.2379 20 23.2379C18.6193 23.2379 17.5 22.1186 17.5 20.7379Z"
        stroke="#7ACB8B" stroke-width="1.5" />
</svg>