<svg width="24" height="24" viewBox="0 0 24 24" fill="none" xmlns="http://www.w3.org/2000/svg">
    <g clip-path="url(#clip0_3791_32091)">
        <g filter="url(#filter0_di_3791_32091)">
            <path fill-rule="evenodd" clip-rule="evenodd"
                d="M10.1088 4.32631C9.57031 4.82781 9.57031 5.74524 9.57031 7.57929V16.416C9.57031 18.2501 9.57031 19.1675 10.1088 19.669C10.6474 20.1705 11.4708 20.0201 13.1176 19.7186L14.8924 19.3938C16.716 19.0595 17.6278 18.8923 18.1694 18.1901C18.7109 17.487 18.7109 16.4712 18.7109 14.4388V9.55651C18.7109 7.5249 18.7109 6.50909 18.1701 5.80603C17.6278 5.10376 16.7152 4.93659 14.8917 4.60306L13.1184 4.27752C11.4716 3.97598 10.6481 3.8256 10.1096 4.32711L10.1088 4.32631ZM11.8555 10.5331C12.1708 10.5331 12.4268 10.8139 12.4268 11.1602V12.8351C12.4268 13.1814 12.1708 13.4622 11.8555 13.4622C11.5401 13.4622 11.2842 13.1814 11.2842 12.8351V11.1602C11.2842 10.8139 11.5401 10.5331 11.8555 10.5331Z"
                fill="white" />
            <path
                d="M8.46354 5.99884C6.89592 6.00124 6.07859 6.03723 5.55758 6.58433C5 7.16981 5 8.11203 5 9.99808V13.9973C5 15.8826 5 16.8248 5.55758 17.4111C6.07859 17.9574 6.89592 17.9942 8.46354 17.9966C8.42773 17.4974 8.42773 16.9216 8.42773 16.2985V7.69691C8.42773 7.07303 8.42773 6.49714 8.46354 5.99884Z"
                fill="white" />
        </g>
    </g>
    <defs>
        <filter id="filter0_di_3791_32091" x="3" y="4" width="17.7109" height="20.9961" filterUnits="userSpaceOnUse"
            color-interpolation-filters="sRGB">
            <feFlood flood-opacity="0" result="BackgroundImageFix" />
            <feColorMatrix in="SourceAlpha" type="matrix" values="0 0 0 0 0 0 0 0 0 0 0 0 0 0 0 0 0 0 127 0"
                result="hardAlpha" />
            <feOffset dy="3" />
            <feGaussianBlur stdDeviation="1" />
            <feColorMatrix type="matrix" values="0 0 0 0 0.778597 0 0 0 0 0.133834 0 0 0 0 0.138161 0 0 0 1 0" />
            <feBlend mode="normal" in2="BackgroundImageFix" result="effect1_dropShadow_3791_32091" />
            <feBlend mode="normal" in="SourceGraphic" in2="effect1_dropShadow_3791_32091" result="shape" />
            <feColorMatrix in="SourceAlpha" type="matrix" values="0 0 0 0 0 0 0 0 0 0 0 0 0 0 0 0 0 0 127 0"
                result="hardAlpha" />
            <feOffset dx="1" />
            <feGaussianBlur stdDeviation="0.5" />
            <feComposite in2="hardAlpha" operator="arithmetic" k2="-1" k3="1" />
            <feColorMatrix type="matrix" values="0 0 0 0 0.941176 0 0 0 0 0.564706 0 0 0 0 0.564706 0 0 0 1 0" />
            <feBlend mode="normal" in2="shape" result="effect2_innerShadow_3791_32091" />
        </filter>
        <clipPath id="clip0_3791_32091">
            <rect width="24" height="24" fill="white" transform="matrix(-1 0 0 1 24 0)" />
        </clipPath>
    </defs>
</svg>