<svg width="24" height="25" viewBox="0 0 24 25" fill="none" xmlns="http://www.w3.org/2000/svg">
    <path
        d="M3.31573 14.5188L4.04591 14.3476L3.31573 14.5188ZM3.31573 9.06179L4.04591 9.23307L3.31573 9.06179ZM18.7893 9.0618L19.5195 8.89052L18.7893 9.0618ZM18.7893 14.5188L19.5195 14.6901L18.7893 14.5188ZM13.781 19.5271L13.6098 18.7969L13.781 19.5271ZM8.324 19.5271L8.15273 20.2573L8.324 19.5271ZM8.324 4.05352L8.15272 3.32334L8.324 4.05352ZM13.781 4.05352L13.9523 3.32334L13.781 4.05352ZM20.4697 22.2681C20.7626 22.561 21.2374 22.561 21.5303 22.2681C21.8232 21.9752 21.8232 21.5004 21.5303 21.2075L20.4697 22.2681ZM13.6703 12.5403C14.0845 12.5403 14.4203 12.2045 14.4203 11.7903C14.4203 11.3761 14.0845 11.0403 13.6703 11.0403V12.5403ZM8.43477 11.0403C8.02055 11.0403 7.68477 11.3761 7.68477 11.7903C7.68477 12.2045 8.02055 12.5403 8.43477 12.5403V11.0403ZM10.3025 14.4081C10.3025 14.8223 10.6383 15.1581 11.0525 15.1581C11.4667 15.1581 11.8025 14.8223 11.8025 14.4081H10.3025ZM11.8025 9.17256C11.8025 8.75835 11.4667 8.42256 11.0525 8.42256C10.6383 8.42256 10.3025 8.75835 10.3025 9.17256H11.8025ZM4.04591 14.3476C3.65136 12.6656 3.65136 10.9151 4.04591 9.23307L2.58555 8.89051C2.13815 10.7978 2.13815 12.7828 2.58555 14.6901L4.04591 14.3476ZM18.0591 9.23307C18.4537 10.9151 18.4537 12.6656 18.0591 14.3476L19.5195 14.6901C19.9669 12.7828 19.9669 10.7978 19.5195 8.89052L18.0591 9.23307ZM13.6098 18.7969C11.9278 19.1915 10.1773 19.1915 8.49528 18.7969L8.15273 20.2573C10.06 20.7047 12.045 20.7047 13.9523 20.2573L13.6098 18.7969ZM8.49528 4.7837C10.1773 4.38916 11.9278 4.38916 13.6098 4.7837L13.9523 3.32334C12.045 2.87594 10.06 2.87594 8.15272 3.32334L8.49528 4.7837ZM8.49528 18.7969C6.28757 18.2791 4.56377 16.5553 4.04591 14.3476L2.58555 14.6901C3.23351 17.4525 5.39038 19.6093 8.15273 20.2573L8.49528 18.7969ZM13.9523 20.2573C16.7147 19.6093 18.8715 17.4525 19.5195 14.6901L18.0591 14.3476C17.5413 16.5553 15.8175 18.2791 13.6098 18.7969L13.9523 20.2573ZM13.6098 4.7837C15.8175 5.30156 17.5413 7.02536 18.0591 9.23307L19.5195 8.89052C18.8715 6.12817 16.7147 3.9713 13.9523 3.32334L13.6098 4.7837ZM8.15272 3.32334C5.39037 3.9713 3.23351 6.12816 2.58555 8.89051L4.04591 9.23307C4.56377 7.02536 6.28757 5.30156 8.49528 4.7837L8.15272 3.32334ZM16.8048 18.6033L20.4697 22.2681L21.5303 21.2075L17.8655 17.5426L16.8048 18.6033ZM13.6703 11.0403H11.0525V12.5403H13.6703V11.0403ZM11.0525 11.0403H8.43477V12.5403H11.0525V11.0403ZM11.8025 14.4081V11.7903H10.3025L10.3025 14.4081H11.8025ZM11.8025 11.7903V9.17256H10.3025V11.7903H11.8025Z"
        fill="#7ACB8B" />
</svg>
    