<svg width="20" height="20" viewBox="0 0 20 20" fill="none" xmlns="http://www.w3.org/2000/svg">
<path d="M5.273 5.98L2.146 2.854C2.09951 2.80751 2.06264 2.75232 2.03748 2.69158C2.01232 2.63084 1.99937 2.56574 1.99937 2.5C1.99937 2.43425 2.01232 2.36915 2.03748 2.30841C2.06264 2.24768 2.09951 2.19249 2.146 2.146C2.19249 2.09951 2.24768 2.06263 2.30842 2.03748C2.36916 2.01232 2.43426 1.99937 2.5 1.99937C2.56574 1.99937 2.63084 2.01232 2.69158 2.03748C2.75232 2.06263 2.80751 2.09951 2.854 2.146L17.854 17.146C17.9479 17.2399 18.0006 17.3672 18.0006 17.5C18.0006 17.6328 17.9479 17.7601 17.854 17.854C17.7601 17.9479 17.6328 18.0006 17.5 18.0006C17.3672 18.0006 17.2399 17.9479 17.146 17.854L11.858 12.564L6.854 17.673C6.1 18.455 4.795 17.733 5.059 16.677L6.229 11.998H4.96C4.79561 11.998 4.63346 11.9598 4.48633 11.8865C4.3392 11.8131 4.2111 11.7067 4.11212 11.5754C4.01315 11.4441 3.94599 11.2917 3.91595 11.1301C3.88591 10.9684 3.8938 10.8021 3.939 10.644L5.273 5.98ZM11.151 11.858L6.081 6.788L4.901 10.918C4.891 10.958 4.92 10.998 4.961 10.998H6.87C6.94606 10.998 7.02112 11.0153 7.08946 11.0487C7.15781 11.082 7.21765 11.1306 7.26441 11.1905C7.31118 11.2505 7.34365 11.3204 7.35935 11.3948C7.37505 11.4692 7.37356 11.5462 7.355 11.62L6.03 16.92C6.02759 16.9295 6.02658 16.9392 6.027 16.949C6.027 16.953 6.028 16.9567 6.03 16.96C6.03333 16.9687 6.04333 16.9787 6.06 16.99C6.07311 16.9963 6.08744 16.9998 6.102 17L6.112 16.996C6.12086 16.9912 6.12895 16.9852 6.136 16.978L6.139 16.974L11.151 11.858ZM14.814 8.118L12.55 10.429L13.257 11.136L15.531 8.816L15.534 8.811C16.175 8.144 15.714 7 14.768 7H12.204L13.465 3.406L13.468 3.398C13.5213 3.23831 13.5358 3.06824 13.5104 2.90183C13.485 2.73542 13.4204 2.57743 13.322 2.44088C13.2235 2.30434 13.094 2.19315 12.9442 2.1165C12.7943 2.03984 12.6283 1.99991 12.46 2H7.211C6.737 2 6.32 2.314 6.19 2.77L5.9 3.78L6.709 4.589L7.15 3.045C7.15344 3.03162 7.16138 3.01984 7.17249 3.01165C7.18361 3.00345 7.19721 2.99933 7.211 3H12.461C12.502 3 12.531 3.04 12.52 3.08L11.027 7.334C11.0005 7.40942 10.9924 7.49012 11.0035 7.56931C11.0146 7.64849 11.0445 7.72387 11.0907 7.78911C11.1369 7.85435 11.1981 7.90755 11.2692 7.94424C11.3402 7.98094 11.419 8.00006 11.499 8H14.768C14.7847 8.00066 14.795 8.00333 14.799 8.008C14.8097 8.01742 14.8182 8.02902 14.824 8.042C14.8296 8.05595 14.832 8.07099 14.831 8.086C14.8288 8.09816 14.8228 8.10934 14.814 8.118Z" fill="#212121"/>
</svg>
