<svg width="20" height="20" viewBox="0 0 20 20" fill="none" xmlns="http://www.w3.org/2000/svg">
<path d="M10 13.75C12.0711 13.75 13.75 12.0711 13.75 10C13.75 7.92893 12.0711 6.25 10 6.25C7.92893 6.25 6.25 7.92893 6.25 10C6.25 12.0711 7.92893 13.75 10 13.75Z" stroke="#212121" stroke-width="1.5"/>
<path d="M10 11.25C9.30964 11.25 8.75 10.6904 8.75 10C8.75 9.30964 9.30964 8.75 10 8.75C10.6904 8.75 11.25 9.30964 11.25 10C11.25 10.6904 10.6904 11.25 10 11.25Z" fill="#212121"/>
<path d="M3.75 5.83324C3.75 5.83324 6.875 1.04157 12.2917 2.91657C17.7083 4.79157 17.5 10.2082 17.5 10.2082M16.25 14.1666C16.25 14.1666 13.75 18.7499 8.125 17.2916C2.5 15.8332 2.5 9.9999 2.5 9.9999V16.6666M17.5 3.33324V9.9999" stroke="#212121" stroke-width="1.5" stroke-linecap="round" stroke-linejoin="round"/>
</svg>
