<svg width="25" height="24" viewBox="0 0 25 24" fill="none" xmlns="http://www.w3.org/2000/svg">
    <path
        d="M12.9173 8.97405L13.072 9.94031L13.7643 9.24876C14.3204 8.69338 14.9804 8.25306 15.7068 7.95299C16.4331 7.65293 17.2115 7.49899 17.9974 7.5H17.998H20.498C21.3264 7.5 21.998 8.17157 21.998 9V9.5C21.998 11.0913 21.3659 12.6174 20.2406 13.7426C19.1154 14.8679 17.5893 15.5 15.998 15.5H13.498H12.998V16V20C12.998 20.2761 12.7741 20.5 12.498 20.5C12.2219 20.5 11.998 20.2761 11.998 20V13V12.5H11.498H9.498C7.77409 12.5 6.12079 11.8152 4.90181 10.5962C3.68282 9.37721 2.998 7.72391 2.998 6V5C2.998 4.17157 3.66957 3.5 4.498 3.5H6.49793C6.49796 3.5 6.49798 3.5 6.498 3.5C8.04409 3.50022 9.53951 4.05138 10.7159 5.05457C11.8924 6.05778 12.6729 7.44738 12.9173 8.97405ZM12.998 14V14.5H13.498H15.998C17.3241 14.5 18.5959 13.9732 19.5335 13.0355C20.4712 12.0979 20.998 10.8261 20.998 9.5C20.998 8.94771 20.5503 8.5 19.998 8.5H17.998C16.6719 8.5 15.4001 9.02678 14.4625 9.96447C13.5248 10.9021 12.998 12.1739 12.998 13.5V14ZM11.498 11.5H11.998V11V10C11.998 8.54131 11.4185 7.14236 10.3871 6.11091C9.35564 5.07946 7.95669 4.5 6.498 4.5H5.498C4.66957 4.5 3.998 5.17157 3.998 6C3.998 7.45869 4.57746 8.85764 5.60891 9.88909C6.64036 10.9205 8.03931 11.5 9.498 11.5H11.498Z"
        fill="#212121" stroke="#212121" />
</svg>