<svg width="40" height="40" viewBox="0 0 40 40" fill="none" xmlns="http://www.w3.org/2000/svg">
<path fill-rule="evenodd" clip-rule="evenodd" d="M19.8773 0H20.1227C24.3092 0 27.8583 0.83543 30.7916 2.4042C33.7249 3.97296 36.0271 6.27505 37.5958 9.2084C39.1645 12.1417 40 15.6909 40 19.8773V20.1227C40 24.3092 39.1645 27.8583 37.5958 30.7916C36.0271 33.7249 33.7249 36.0271 30.7916 37.5958C27.8583 39.1645 24.3092 40 20.1227 40H19.8773C15.6909 40 12.1417 39.1645 9.2084 37.5958C6.27505 36.0271 3.97296 33.7249 2.4042 30.7916C0.83543 27.8583 0 24.3092 0 20.1227V19.8773C0 15.6909 0.83543 12.1417 2.4042 9.2084C3.97296 6.27505 6.27505 3.97296 9.2084 2.4042C12.1417 0.83543 15.6909 0 19.8773 0Z" fill="#7ACB8B"/>
<path d="M12.6802 21.8812L13.4103 21.7099L12.6802 21.8812ZM12.6802 16.2408L11.95 16.0695L12.6802 16.2408ZM28.6737 16.2408L27.9435 16.4121L28.6737 16.2408ZM28.6737 21.8812L29.4038 22.0525L28.6737 21.8812ZM23.4971 27.0578L23.3258 26.3276L23.4971 27.0578ZM17.8567 27.0578L18.028 26.3276L17.8567 27.0578ZM17.8567 11.0643L18.028 11.7944L17.8567 11.0643ZM23.4971 11.0643L23.3258 11.7944L23.4971 11.0643ZM13.3611 23.6515L14.0177 23.289L13.7859 22.8689L13.3073 22.9034L13.3611 23.6515ZM16.0865 26.3768L16.8345 26.4306L16.869 25.952L16.4489 25.7202L16.0865 26.3768ZM17.1117 16.7831C16.6975 16.7831 16.3617 17.1189 16.3617 17.5331C16.3617 17.9473 16.6975 18.2831 17.1117 18.2831V16.7831ZM20.1676 18.2831C20.5818 18.2831 20.9176 17.9473 20.9176 17.5331C20.9176 17.1189 20.5818 16.7831 20.1676 16.7831V18.2831ZM18.1304 19.8389C17.7161 19.8389 17.3804 20.1747 17.3804 20.5889C17.3804 21.0032 17.7161 21.3389 18.1304 21.3389V19.8389ZM23.2235 21.3389C23.6377 21.3389 23.9735 21.0032 23.9735 20.5889C23.9735 20.1747 23.6377 19.8389 23.2235 19.8389V21.3389ZM13.4103 21.7099C13.0016 19.9676 13.0016 18.1544 13.4103 16.4121L11.95 16.0695C11.4884 18.0371 11.4884 20.0849 11.95 22.0525L13.4103 21.7099ZM27.9435 16.4121C28.3522 18.1544 28.3522 19.9676 27.9435 21.7099L29.4038 22.0525C29.8654 20.0849 29.8654 18.0371 29.4038 16.0695L27.9435 16.4121ZM23.3258 26.3276C21.5835 26.7363 19.7703 26.7363 18.028 26.3276L17.6854 27.7879C19.653 28.2495 21.7008 28.2495 23.6684 27.7879L23.3258 26.3276ZM18.028 11.7944C19.7703 11.3857 21.5835 11.3857 23.3258 11.7944L23.6684 10.3341C21.7008 9.87253 19.653 9.87253 17.6854 10.3341L18.028 11.7944ZM18.028 26.3276C15.7368 25.7901 13.9478 24.0011 13.4103 21.7099L11.95 22.0525C12.6175 24.8983 14.8396 27.1204 17.6854 27.7879L18.028 26.3276ZM23.6684 27.7879C26.5142 27.1204 28.7363 24.8983 29.4038 22.0525L27.9435 21.7099C27.406 24.0011 25.617 25.7901 23.3258 26.3276L23.6684 27.7879ZM23.3258 11.7944C25.617 12.3319 27.406 14.1209 27.9435 16.4121L29.4038 16.0695C28.7363 13.2237 26.5142 11.0016 23.6684 10.3341L23.3258 11.7944ZM17.6854 10.3341C14.8396 11.0016 12.6175 13.2237 11.95 16.0695L13.4103 16.4121C13.9478 14.1209 15.7368 12.3319 18.028 11.7944L17.6854 10.3341ZM13.3073 22.9034C11.598 23.0264 10.25 24.4511 10.25 26.1914H11.75C11.75 25.2435 12.4846 24.4665 13.415 24.3995L13.3073 22.9034ZM10.25 26.1914C10.25 28.012 11.7259 29.4879 13.5466 29.4879V27.9879C12.5543 27.9879 11.75 27.1836 11.75 26.1914H10.25ZM13.5466 29.4879C15.2868 29.4879 16.7115 28.1399 16.8345 26.4306L15.3384 26.3229C15.2714 27.2533 14.4944 27.9879 13.5466 27.9879V29.4879ZM16.4489 25.7202C15.4261 25.1556 14.5823 24.3118 14.0177 23.289L12.7045 24.0139C13.4058 25.2843 14.4536 26.3321 15.724 27.0334L16.4489 25.7202ZM17.1117 18.2831H20.1676V16.7831H17.1117V18.2831ZM18.1304 21.3389H23.2235V19.8389H18.1304V21.3389Z" fill="white"/>
</svg>
