<svg width="24" height="24" viewBox="0 0 24 24" fill="none" xmlns="http://www.w3.org/2000/svg">
<path d="M2.27446 6.62811C2.78118 4.46789 4.4679 2.78118 6.62811 2.27446C8.1882 1.90851 9.8118 1.90851 11.3719 2.27446C13.5321 2.78118 15.2188 4.4679 15.7255 6.62812C16.0915 8.1882 16.0915 9.8118 15.7255 11.3719C15.2188 13.5321 13.5321 15.2188 11.3719 15.7255C9.8118 16.0915 8.1882 16.0915 6.62812 15.7255C4.4679 15.2188 2.78118 13.5321 2.27446 11.3719C1.90851 9.8118 1.90851 8.1882 2.27446 6.62811Z" stroke="#212121" stroke-width="1.5"/>
<path d="M8.27446 12.6281C8.78118 10.4679 10.4679 8.78118 12.6281 8.27446C14.1882 7.90851 15.8118 7.90851 17.3719 8.27446C19.5321 8.78118 21.2188 10.4679 21.7255 12.6281C22.0915 14.1882 22.0915 15.8118 21.7255 17.3719C21.2188 19.5321 19.5321 21.2188 17.3719 21.7255C15.8118 22.0915 14.1882 22.0915 12.6281 21.7255C10.4679 21.2188 8.78118 19.5321 8.27446 17.3719C7.90851 15.8118 7.90851 14.1882 8.27446 12.6281Z" stroke="#212121" stroke-width="1.5"/>
</svg>
