<svg width="24" height="25" viewBox="0 0 24 25" fill="none" xmlns="http://www.w3.org/2000/svg">
<path d="M10.87 3.89669L10.6784 3.17157V3.17157L10.87 3.89669ZM13.13 3.89669L12.9384 4.62181V4.62181L13.13 3.89669ZM3.3835 17.153L4.10471 16.9472L3.3835 17.153ZM3.37998 11.6861L4.10118 11.8919L3.37998 11.6861ZM20.62 11.6861L21.3412 11.4803V11.4803L20.62 11.6861ZM20.6165 17.153L21.3377 17.3588L20.6165 17.153ZM15.9929 21.3687L15.8509 20.6322L15.9929 21.3687ZM8.00711 21.3687L8.1491 20.6322L8.00711 21.3687ZM8.77297 7.31041L8.91496 8.04685L8.77297 7.31041ZM15.227 7.31041L15.369 6.57397L15.227 7.31041ZM16.3006 7.5174L16.1586 8.25384V8.25384L16.3006 7.5174ZM20.527 11.3602L19.8058 11.566V11.566L20.527 11.3602ZM7.69941 7.5174L7.55742 6.78096L7.69941 7.5174ZM3.47297 11.3602L2.75176 11.1544H2.75176L3.47297 11.3602ZM11.0616 4.62181C11.6763 4.4594 12.3237 4.4594 12.9384 4.62181L13.3216 3.17157C12.4557 2.94281 11.5443 2.94281 10.6784 3.17157L11.0616 4.62181ZM16.927 7.81315C16.927 5.63128 15.4419 3.73176 13.3216 3.17157L12.9384 4.62181C14.4126 5.01128 15.427 6.32456 15.427 7.81315H16.927ZM8.57297 7.81315C8.57297 6.32455 9.58742 5.01128 11.0616 4.62181L10.6784 3.17157C8.55808 3.73176 7.07297 5.63127 7.07297 7.81315H8.57297ZM7.8414 8.25384L8.91496 8.04685L8.63098 6.57397L7.55742 6.78096L7.8414 8.25384ZM15.085 8.04685L16.1586 8.25384L16.4426 6.78096L15.369 6.57397L15.085 8.04685ZM19.8058 11.566L19.8988 11.8919L21.3412 11.4803L21.2482 11.1544L19.8058 11.566ZM4.10118 11.8919L4.19418 11.566L2.75176 11.1544L2.65877 11.4803L4.10118 11.8919ZM4.10471 16.9472C3.63385 15.2972 3.63087 13.54 4.10118 11.8919L2.65877 11.4803C2.11113 13.3993 2.1152 15.4417 2.66229 17.3588L4.10471 16.9472ZM19.8988 11.8919C20.3691 13.54 20.3662 15.2972 19.8953 16.9472L21.3377 17.3588C21.8848 15.4417 21.8889 13.3993 21.3412 11.4803L19.8988 11.8919ZM15.8509 20.6322C13.3077 21.1226 10.6923 21.1226 8.1491 20.6322L7.86512 22.1051C10.5959 22.6316 13.4041 22.6316 16.1349 22.1051L15.8509 20.6322ZM8.91496 8.04685C10.9524 7.65402 13.0477 7.65402 15.085 8.04685L15.369 6.57397C13.144 6.14498 10.856 6.14498 8.63098 6.57397L8.91496 8.04685ZM8.1491 20.6322C6.20493 20.2574 4.63939 18.8209 4.10471 16.9472L2.66229 17.3588C3.3533 19.7803 5.36966 21.624 7.86512 22.1051L8.1491 20.6322ZM16.1349 22.1051C18.6303 21.624 20.6467 19.7803 21.3377 17.3588L19.8953 16.9472C19.3606 18.8208 17.7951 20.2574 15.8509 20.6322L16.1349 22.1051ZM16.1586 8.25384C17.9164 8.59275 19.3239 9.87718 19.8058 11.566L21.2482 11.1544C20.6087 8.91326 18.747 7.22528 16.4426 6.78096L16.1586 8.25384ZM7.55742 6.78096C5.25297 7.22528 3.39132 8.91325 2.75176 11.1544L4.19418 11.566C4.67613 9.87717 6.08361 8.59275 7.8414 8.25384L7.55742 6.78096ZM3.38575 12.5417C8.93989 14.5962 15.0601 14.5962 20.6143 12.5417L20.0939 11.1349C14.8755 13.0651 9.12447 13.0651 3.90612 11.1349L3.38575 12.5417Z" fill="#212121"/>
<path d="M8 11.25V14.75" stroke="#212121" stroke-width="1.5" stroke-linecap="round"/>
<path d="M16 11.25V14.75" stroke="#212121" stroke-width="1.5" stroke-linecap="round"/>
</svg>
