<svg width="24" height="24" viewBox="0 0 24 24" fill="none" xmlns="http://www.w3.org/2000/svg">
    <path
        d="M4 7.2C4 5.6912 4 4.9376 4.52089 4.4688C5.04178 4 5.87911 4 7.55556 4C9.232 4 10.0693 4 10.5902 4.4688C11.1111 4.9376 11.1111 5.6912 11.1111 7.2V16.8C11.1111 18.3088 11.1111 19.0624 10.5902 19.5312C10.0693 20 9.232 20 7.55556 20C5.87911 20 5.04178 20 4.52089 19.5312C4 19.0624 4 18.3088 4 16.8V7.2ZM12.8889 7.2C12.8889 5.6912 12.8889 4.9376 13.4098 4.4688C13.9307 4 14.768 4 16.4444 4C18.1209 4 18.9582 4 19.4791 4.4688C20 4.9376 20 5.6912 20 7.2V16.8C20 18.3088 20 19.0624 19.4791 19.5312C18.9582 20 18.1209 20 16.4444 20C14.768 20 13.9307 20 13.4098 19.5312C12.8889 19.0624 12.8889 18.3088 12.8889 16.8V7.2Z"
        fill="#212121" />
</svg>