<svg width="20" height="21" viewBox="0 0 20 21" fill="none" xmlns="http://www.w3.org/2000/svg">
    <path
        d="M10 15.2378C12.4853 15.2378 14.5 13.2231 14.5 10.7378C14.5 8.25251 12.4853 6.23779 10 6.23779C7.51472 6.23779 5.5 8.25251 5.5 10.7378C5.5 13.2231 7.51472 15.2378 10 15.2378Z"
        stroke="#7ACB8B" stroke-width="1.5" />
    <path
        d="M10 12.2378C9.17157 12.2378 8.5 11.5662 8.5 10.7378C8.5 9.90937 9.17157 9.23779 10 9.23779C10.8284 9.23779 11.5 9.90937 11.5 10.7378C11.5 11.5662 10.8284 12.2378 10 12.2378Z"
        fill="#7ACB8B" />
    <path
        d="M2.5 5.73772C2.5 5.73772 6.25 -0.012275 12.75 2.23772C19.25 4.48772 19 10.9877 19 10.9877M17.5 15.7377C17.5 15.7377 14.5 21.2377 7.75 19.4877C1 17.7377 1 10.7377 1 10.7377V18.7377M19 2.73772V10.7377"
        stroke="#7ACB8B" stroke-width="1.5" stroke-linecap="round" stroke-linejoin="round" />
</svg>
    