<svg width="29" height="29" viewBox="0 0 29 29" fill="none" xmlns="http://www.w3.org/2000/svg">
    <g filter="url(#filter0_d_2909_16125)">
        <path
            d="M22.2892 3.58574C21.9934 3.61344 21.7063 3.70123 21.4455 3.84374L17.9062 5.71874L13.125 4.54649L12.8438 4.47674L12.5625 4.61699L10.9455 5.55449L9.98475 6.11699L10.875 6.79649L12.9142 8.34374L10.3597 9.70349L7.617 8.46074L7.28925 8.32049L6.96075 8.48474L5.64825 9.18749L4.78125 9.65624L5.4375 10.3597L9.492 14.7187L9.867 15.1642L10.383 14.883L14.25 12.8205L13.4767 17.0857L13.2188 18.4455L14.508 17.9062L16.4295 17.0857L16.7108 16.9687L16.8285 16.6875L19.617 9.91424L23.5545 7.80449C24.639 7.22174 25.0755 5.84174 24.492 4.75799C24.3512 4.49925 24.1607 4.27082 23.9315 4.08576C23.7023 3.9007 23.4389 3.76264 23.1562 3.67949C22.8757 3.59419 22.5816 3.56239 22.2892 3.58574ZM22.4295 5.08574C22.5233 5.07974 22.62 5.08274 22.7108 5.10974C22.8527 5.14933 22.9795 5.23073 23.0746 5.34336C23.1697 5.45599 23.2287 5.59463 23.2439 5.74124C23.2591 5.88785 23.2298 6.03565 23.1599 6.1654C23.09 6.29515 22.9826 6.40085 22.8517 6.46874L18.6562 8.74199L18.4215 8.85899L18.3278 9.11699L15.5392 15.8205L15.2108 15.9607L16.008 11.5312L16.2892 10.008L14.9295 10.7347L10.1955 13.2892L7.21875 10.0545L7.33575 9.98399L10.0785 11.2035L10.4295 11.367L10.734 11.1795L22.149 5.15624C22.2362 5.11243 22.332 5.08836 22.4295 5.08574ZM13.0312 6.07049L15.9142 6.77324L14.367 7.57049L12.6795 6.28124L13.0312 6.07049ZM5.25 19.5V21H24.75V19.5H5.25Z"
            fill="#212121" />
    </g>
    <defs>
        <filter id="filter0_d_2909_16125" x="-1" y="0" width="32" height="32" filterUnits="userSpaceOnUse"
            color-interpolation-filters="sRGB">
            <feFlood flood-opacity="0" result="BackgroundImageFix" />
            <feColorMatrix in="SourceAlpha" type="matrix" values="0 0 0 0 0 0 0 0 0 0 0 0 0 0 0 0 0 0 127 0"
                result="hardAlpha" />
            <feOffset dy="4" />
            <feGaussianBlur stdDeviation="2" />
            <feComposite in2="hardAlpha" operator="out" />
            <feColorMatrix type="matrix" values="0 0 0 0 0 0 0 0 0 0 0 0 0 0 0 0 0 0 0.25 0" />
            <feBlend mode="normal" in2="BackgroundImageFix" result="effect1_dropShadow_2909_16125" />
            <feBlend mode="normal" in="SourceGraphic" in2="effect1_dropShadow_2909_16125" result="shape" />
        </filter>
    </defs>
</svg>