<svg width="24" height="25" viewBox="0 0 24 25" fill="none" xmlns="http://www.w3.org/2000/svg">
<path d="M3.83327 15.9985L4.56432 15.8309L3.83327 15.9985ZM3.83327 10.1032L4.56432 10.2708L3.83327 10.1032ZM20.1667 10.1032L19.4357 10.2708L20.1667 10.1032ZM20.1667 15.9985L19.4357 15.8309L20.1667 15.9985ZM14.8801 21.4089L15.0552 22.1382L14.8801 21.4089ZM9.11986 21.4089L9.29493 20.6796L9.11986 21.4089ZM9.11985 4.69279L9.29493 5.42207L9.11985 4.69279ZM14.8801 4.69279L15.0552 3.96351L14.8801 4.69279ZM8.82008 3.75C8.82008 3.33579 8.48429 3 8.07008 3C7.65587 3 7.32008 3.33579 7.32008 3.75H8.82008ZM7.32008 6.26375C7.32008 6.67796 7.65587 7.01375 8.07008 7.01375C8.48429 7.01375 8.82008 6.67796 8.82008 6.26375H7.32008ZM16.6799 3.75C16.6799 3.33579 16.3441 3 15.9299 3C15.5157 3 15.1799 3.33579 15.1799 3.75H16.6799ZM15.1799 6.26375C15.1799 6.67796 15.5157 7.01375 15.9299 7.01375C16.3441 7.01375 16.6799 6.67796 16.6799 6.26375H15.1799ZM4.56432 15.8309C4.14523 14.0024 4.14523 12.0993 4.56432 10.2708L3.10223 9.93568C2.63259 11.9847 2.63259 14.117 3.10223 16.166L4.56432 15.8309ZM19.4357 10.2708C19.8548 12.0993 19.8548 14.0024 19.4357 15.8309L20.8978 16.166C21.3674 14.117 21.3674 11.9847 20.8978 9.93568L19.4357 10.2708ZM14.7051 20.6796C12.9258 21.1068 11.0742 21.1068 9.29493 20.6796L8.94478 22.1382C10.9542 22.6206 13.0458 22.6206 15.0552 22.1382L14.7051 20.6796ZM9.29493 5.42207C11.0742 4.99493 12.9258 4.99493 14.7051 5.42207L15.0552 3.96351C13.0458 3.48111 10.9542 3.48111 8.94478 3.96351L9.29493 5.42207ZM9.29493 20.6796C6.95607 20.1182 5.11769 18.2453 4.56432 15.8309L3.10223 16.166C3.77946 19.1208 6.03739 21.4402 8.94478 22.1382L9.29493 20.6796ZM15.0552 22.1382C17.9626 21.4402 20.2205 19.1208 20.8978 16.166L19.4357 15.8309C18.8823 18.2453 17.0439 20.1182 14.7051 20.6796L15.0552 22.1382ZM14.7051 5.42207C17.0439 5.98355 18.8823 7.85642 19.4357 10.2708L20.8978 9.93568C20.2205 6.98089 17.9626 4.66147 15.0552 3.96351L14.7051 5.42207ZM8.94478 3.96351C6.03739 4.66147 3.77946 6.98089 3.10223 9.93568L4.56432 10.2708C5.11769 7.85641 6.95607 5.98355 9.29493 5.42207L8.94478 3.96351ZM4.14016 9.77886H19.8598V8.27886H4.14016V9.77886ZM7.32008 3.75V6.26375H8.82008V3.75H7.32008ZM15.1799 3.75V6.26375H16.6799V3.75H15.1799Z" fill="#212121"/>
<path d="M13.442 14.674C13.847 14.386 14.099 13.954 14.099 13.369C14.099 12.154 13.163 11.524 12.056 11.524C10.949 11.524 10.004 12.154 10.004 13.369C10.004 13.954 10.265 14.386 10.661 14.674C10.112 15.007 9.797 15.556 9.797 16.195C9.797 17.356 10.652 18.076 12.056 18.076C13.451 18.076 14.315 17.356 14.315 16.195C14.315 15.556 14 15.007 13.442 14.674ZM12.056 12.694C12.524 12.694 12.866 12.964 12.866 13.432C12.866 13.891 12.524 14.179 12.056 14.179C11.588 14.179 11.246 13.891 11.246 13.432C11.246 12.964 11.588 12.694 12.056 12.694ZM12.056 16.906C11.462 16.906 11.03 16.6 11.03 16.033C11.03 15.475 11.462 15.169 12.056 15.169C12.65 15.169 13.082 15.475 13.082 16.033C13.082 16.6 12.65 16.906 12.056 16.906Z" fill="#212121"/>
</svg>
