<svg width="24" height="24" viewBox="0 0 24 24" fill="none" xmlns="http://www.w3.org/2000/svg">
<path d="M12 17L12 17.0226" stroke="#212121" stroke-width="2" stroke-linecap="round"/>
<path d="M20 12C20 13.0922 19.888 14.1844 19.664 15.2593L19.569 15.7151C19.072 18.1003 17.2706 19.9998 14.9161 20.6215C13.0047 21.1262 10.9953 21.1262 9.08393 20.6215C6.72937 19.9998 4.92801 18.1003 4.43096 15.7151L4.33598 15.2593C3.88801 13.1095 3.88801 10.8905 4.33598 8.74072L4.43096 8.28494C4.92801 5.89968 6.72938 4.00019 9.08394 3.3785C10.0396 3.12617 11.0198 3 12 3" stroke="#212121" stroke-width="1.5" stroke-linecap="round"/>
<path d="M20.9336 6.77539C20.9336 8.98339 19.1416 10.7754 16.9336 10.7754C14.7256 10.7754 13.3776 8.55139 13.3776 8.55139M13.3776 8.55139H15.1856M13.3776 8.55139V10.5514M12.9336 6.77539C12.9336 4.56739 14.7096 2.77539 16.9336 2.77539C19.6016 2.77539 20.9336 4.99939 20.9336 4.99939M20.9336 4.99939V2.99939M20.9336 4.99939H19.1576" stroke="#212121" stroke-width="1.3" stroke-linecap="round" stroke-linejoin="round"/>
</svg>
