<svg width="20" height="20" viewBox="0 0 20 20" fill="none" xmlns="http://www.w3.org/2000/svg">
    <path
        d="M13.75 10C13.75 12.0711 12.0711 13.75 10 13.75C7.92893 13.75 6.25 12.0711 6.25 10C6.25 7.92893 7.92893 6.25 10 6.25C11.0287 6.25 11.9606 6.6642 12.6382 7.33492"
        stroke="#212121" stroke-width="1.2" stroke-linecap="round" />
    <path
        d="M17.4244 6.7567C17.2916 6.45311 16.9378 6.31465 16.6342 6.44744C16.3306 6.58024 16.1922 6.93401 16.325 7.23761L17.4244 6.7567ZM16.9 10C16.9 13.8108 13.8108 16.9 10 16.9V18.1C14.4735 18.1 18.1 14.4735 18.1 10H16.9ZM10 16.9C6.18924 16.9 3.1 13.8108 3.1 10H1.9C1.9 14.4735 5.52649 18.1 10 18.1V16.9ZM3.1 10C3.1 6.18924 6.18924 3.1 10 3.1V1.9C5.52649 1.9 1.9 5.52649 1.9 10H3.1ZM10 3.1C11.9184 3.1 13.6531 3.88213 14.9043 5.14641L15.7572 4.30227C14.2898 2.81961 12.2518 1.9 10 1.9V3.1ZM16.325 7.23761C16.6946 8.08266 16.9 9.01656 16.9 10H18.1C18.1 8.84793 17.8591 7.75053 17.4244 6.7567L16.325 7.23761Z"
        fill="#212121" />
    <path d="M17.0833 2.9165L10.4166 9.58317" stroke="#212121" stroke-width="1.2"
        stroke-linecap="round" />
</svg>