<svg width="24" height="25" viewBox="0 0 24 25" fill="none" xmlns="http://www.w3.org/2000/svg">
    <path
        d="M3.35288 9.70043C4.00437 6.92301 6.17301 4.75437 8.95043 4.10288C10.9563 3.63237 13.0437 3.63237 15.0496 4.10288C17.827 4.75437 19.9956 6.92301 20.6471 9.70044C21.1176 11.7063 21.1176 13.7937 20.6471 15.7996C19.9956 18.577 17.827 20.7456 15.0496 21.3971C13.0437 21.8676 10.9563 21.8676 8.95044 21.3971C6.17301 20.7456 4.00437 18.577 3.35288 15.7996C2.88237 13.7937 2.88237 11.7063 3.35288 9.70043Z"
        stroke="#212121" stroke-width="1.5" />
    <path
        d="M12 14.5C11.59 14.5 11.25 14.16 11.25 13.75V8.5C11.25 8.09 11.59 7.75 12 7.75C12.41 7.75 12.75 8.09 12.75 8.5V13.75C12.75 14.16 12.41 14.5 12 14.5Z"
        fill="#212121" />
    <path
        d="M12 18C11.73 18 11.48 17.9 11.29 17.71C11.2 17.61 11.13 17.5 11.07 17.38C11.02 17.26 11 17.13 11 17C11 16.74 11.11 16.48 11.29 16.29C11.66 15.92 12.34 15.92 12.71 16.29C12.89 16.48 13 16.74 13 17C13 17.13 12.97 17.26 12.92 17.38C12.87 17.5 12.8 17.61 12.71 17.71C12.52 17.9 12.27 18 12 18Z"
        fill="#212121" />
</svg>