<svg width="18" height="18" viewBox="0 0 18 18" fill="none" xmlns="http://www.w3.org/2000/svg">
<path d="M9 12.75C11.0711 12.75 12.75 11.0711 12.75 9C12.75 6.92893 11.0711 5.25 9 5.25C6.92893 5.25 5.25 6.92893 5.25 9C5.25 11.0711 6.92893 12.75 9 12.75Z" stroke="#212121" stroke-width="1.5"/>
<path d="M9 10.25C8.30964 10.25 7.75 9.69036 7.75 9C7.75 8.30964 8.30964 7.75 9 7.75C9.69036 7.75 10.25 8.30964 10.25 9C10.25 9.69036 9.69036 10.25 9 10.25Z" fill="#212121"/>
<path d="M2.75 4.83324C2.75 4.83324 5.875 0.0415693 11.2917 1.91657C16.7083 3.79157 16.5 9.20824 16.5 9.20824M15.25 13.1666C15.25 13.1666 12.75 17.7499 7.125 16.2916C1.5 14.8332 1.5 8.9999 1.5 8.9999V15.6666M16.5 2.33324V8.9999" stroke="#212121" stroke-width="1.5" stroke-linecap="round" stroke-linejoin="round"/>
</svg>
