<?xml version="1.0" encoding="UTF-8" standalone="no"?>
<!-- Uploaded to: SVG Repo, www.svgrepo.com, Generator: SVG Repo Mixer Tools -->

<svg
   height="32"
   width="32"
   version="1.1"
   id="Layer_1"
   viewBox="0 0 19.84632 19.84632"
   xml:space="preserve"
   sodipodi:docname="music.svg"
   inkscape:version="1.2.1 (9c6d41e410, 2022-07-14)"
   xmlns:inkscape="http://www.inkscape.org/namespaces/inkscape"
   xmlns:sodipodi="http://sodipodi.sourceforge.net/DTD/sodipodi-0.dtd"
   xmlns="http://www.w3.org/2000/svg"
   xmlns:svg="http://www.w3.org/2000/svg"><defs
   id="defs9" /><sodipodi:namedview
   id="namedview7"
   pagecolor="#ffffff"
   bordercolor="#000000"
   borderopacity="0.25"
   inkscape:showpageshadow="2"
   inkscape:pageopacity="0.0"
   inkscape:pagecheckerboard="0"
   inkscape:deskcolor="#d1d1d1"
   showgrid="false"
   inkscape:zoom="8.29"
   inkscape:cx="22.677925"
   inkscape:cy="27.683957"
   inkscape:window-width="1419"
   inkscape:window-height="1032"
   inkscape:window-x="1997"
   inkscape:window-y="23"
   inkscape:window-maximized="0"
   inkscape:current-layer="Layer_1" />
<path
   style="fill:#337180;stroke-width:0.035"
   d="m 1.240395,9.9232647 c 0,-4.7957347 3.88745,-8.6828697 8.68266,-8.6828697 4.79542,0 8.68287,3.887135 8.68287,8.6828697 0,4.7950703 -3.88745,8.6824503 -8.68287,8.6824503 -4.79521,0 -8.68266,-3.88738 -8.68266,-8.6824503 z"
   id="path2" />
<path
   style="fill:#b5e3ea;stroke-width:0.035"
   d="M 14.76387,5.732365 C 14.73212,5.70167 14.68897,5.686025 14.644765,5.68935 L 7.207125,6.1671 C 7.12897,6.17308 7.06772,6.23668 7.06464,6.315045 L 6.843335,11.43523 C 6.64163,11.36383 6.429705,11.327745 6.21064,11.327745 c -0.10563,0 -0.214725,0.0084 -0.32179,0.02464 -0.469385,0.06342 -0.85974,0.2513 -1.160215,0.558145 -0.31185,0.3185 -0.43918,0.6783 -0.37842,1.069565 0.06027,0.38857 0.284795,0.699265 0.667275,0.923475 0.287035,0.168315 0.60508,0.25361 0.945105,0.25361 0.098875,0 0.201285,-0.0072 0.30625,-0.0218 0.417375,-0.06325 0.771505,-0.22162 1.052485,-0.470645 0.287665,-0.254975 0.453635,-0.558775 0.493325,-0.903 7e-4,-0.0058 9.8e-4,-0.01176 9.8e-4,-0.01768 v -0.04799 c 0.012145,-0.184305 0.22393,-4.58923 0.22393,-4.58923 l 5.76289,-0.46375 -0.20769,3.802225 C 13.37325,11.35718 13.13805,11.31266 12.89284,11.31266 c -0.10115,0 -0.205765,0.0076 -0.30961,0.02247 -0.47054,0.06356 -0.858655,0.255185 -1.153565,0.56938 -0.303555,0.323225 -0.430255,0.684425 -0.3766,1.07345 0.05387,0.39053 0.27608,0.69951 0.66052,0.91819 0.2849,0.162085 0.60361,0.244265 0.94731,0.244265 0.102865,0 0.20972,-0.0073 0.32004,-0.02229 0.41818,-0.06339 0.77581,-0.22813 1.062915,-0.48979 0.29533,-0.269045 0.45206,-0.581525 0.46599,-0.928795 0.0126,-0.19481 0.111125,-2.43586 0.300895,-6.849535 0.0019,-0.04417 -0.01512,-0.08694 -0.04687,-0.117635 z"
   id="path4" />
</svg>
