<svg width="40" height="34" viewBox="0 0 40 34" fill="none" xmlns="http://www.w3.org/2000/svg">
<ellipse cx="20.013" cy="17" rx="19.0877" ry="17" fill="#A90000"/>
<ellipse cx="20.013" cy="14.614" rx="19.0877" ry="14.614" fill="#FF5858"/>
<path d="M18.4626 4.54285C18.4626 3.57102 17.6732 2.77493 16.7052 2.86174C14.7561 3.03656 12.8634 3.50112 11.1341 4.23425C8.88877 5.18617 6.99159 6.56006 5.61864 8.22842C4.24568 9.89677 3.44145 11.8055 3.28056 13.7776C3.16563 15.1863 3.38165 16.5947 3.91212 17.9362C4.28878 18.8886 5.39044 19.2579 6.35323 18.9085C7.63216 18.4444 8.12574 16.9057 7.90149 15.5637C7.81509 15.0467 7.79241 14.5227 7.83517 13.9986C7.94779 12.6181 8.51076 11.282 9.47182 10.1142C10.4329 8.9463 11.7609 7.98458 13.3327 7.31823C14.3874 6.8711 15.5289 6.56668 16.7077 6.41478C17.6715 6.29059 18.4626 5.51468 18.4626 4.54285Z" fill="#FFA5A5"/>
<path d="M22.4568 9.16602C24.4343 9.16602 25.7585 10.5543 25.7585 12.6193V17.3858C25.7585 19.4449 24.4343 20.8327 22.4568 20.8327H17.3993C15.4218 20.8327 14.0918 19.4449 14.0918 17.3858V12.6193C14.0918 10.5543 15.4218 9.16602 17.3993 9.16602H22.4568ZM21.681 13.2324C21.4827 13.0335 21.1618 13.0335 20.9577 13.2324L19.9252 14.2702L18.8868 13.2324C18.6827 13.0335 18.3618 13.0335 18.1635 13.2324C17.9652 13.4308 17.9652 13.7574 18.1635 13.9552L19.2018 14.9941L18.1635 16.0266C17.9652 16.2308 17.9652 16.5516 18.1635 16.7493C18.2627 16.8485 18.3968 16.9016 18.5252 16.9016C18.6593 16.9016 18.7877 16.8485 18.8868 16.7493L19.9252 15.7174L20.9635 16.7493C21.0627 16.8549 21.191 16.9016 21.3193 16.9016C21.4535 16.9016 21.5818 16.8485 21.681 16.7493C21.8793 16.5516 21.8793 16.2308 21.681 16.0324L20.6427 14.9941L21.681 13.9552C21.8793 13.7574 21.8793 13.4308 21.681 13.2324Z" fill="white"/>
</svg>
