<svg width="14" height="14" viewBox="0 0 14 14" fill="none" xmlns="http://www.w3.org/2000/svg">
    <path
        d="M10.9375 8.7501C10.9375 11.1665 9.41637 12.6876 7 12.6876C4.58363 12.6876 3.0625 11.1665 3.0625 8.7501C3.0625 6.15709 5.8852 2.65655 6.7509 1.64401C6.7817 1.60803 6.81993 1.57915 6.86295 1.55935C6.90598 1.53955 6.95278 1.5293 7.00014 1.5293C7.0475 1.5293 7.0943 1.53955 7.13732 1.55935C7.18034 1.57915 7.21857 1.60803 7.24937 1.64401C8.1148 2.65655 10.9375 6.15709 10.9375 8.7501Z"
        stroke="#212121" stroke-miterlimit="10" />
    <path
        d="M9.40625 8.96875C9.40625 9.49089 9.19883 9.99165 8.82962 10.3609C8.4604 10.7301 7.95964 10.9375 7.4375 10.9375"
        stroke="#212121" stroke-linecap="round" stroke-linejoin="round" />
</svg>