<svg width="10" height="12" viewBox="0 0 10 12" fill="none" xmlns="http://www.w3.org/2000/svg">
    <path
        d="M0.916748 10.1484C0.916748 8.74072 1.90685 7.54172 3.25244 7.31988L3.37364 7.2999C4.45112 7.12226 5.54904 7.12226 6.62652 7.2999L6.74772 7.31988C8.09331 7.54172 9.08341 8.74072 9.08341 10.1484C9.08341 10.7568 8.60597 11.25 8.01701 11.25H1.98316C1.3942 11.25 0.916748 10.7568 0.916748 10.1484Z"
        stroke="#212121" />
    <path
        d="M7.38204 3.04687C7.38204 4.3154 6.3156 5.34375 5.00009 5.34375C3.68458 5.34375 2.61815 4.3154 2.61815 3.04687C2.61815 1.77835 3.68458 0.75 5.00009 0.75C6.3156 0.75 7.38204 1.77835 7.38204 3.04687Z"
        stroke="#212121" />
</svg>