<svg width="24" height="25" viewBox="0 0 24 25" fill="none" xmlns="http://www.w3.org/2000/svg">
<path d="M12.998 16.2379H12.498V16.7379V20.7379C12.498 21.0141 12.2742 21.2379 11.998 21.2379C11.7219 21.2379 11.498 21.0141 11.498 20.7379V14.7426L11.5167 13.7622C11.6361 12.2606 12.316 10.8586 13.4217 9.83504C14.5308 8.80823 15.9866 8.23785 17.498 8.23792H17.498H19.998C20.8265 8.23792 21.498 8.90949 21.498 9.73792V10.2379C21.498 11.8292 20.8659 13.3553 19.7407 14.4806C18.6155 15.6058 17.0893 16.2379 15.498 16.2379H12.998ZM5.99805 4.23792H5.99806C7.36255 4.23788 8.69247 4.66704 9.79956 5.46465C10.8181 6.19845 11.6005 7.20988 12.0555 8.37486C11.3576 9.02123 10.7802 9.78785 10.3513 10.639C9.94032 11.4548 9.67296 12.3339 9.55973 13.2379H8.99805C7.27414 13.2379 5.62084 12.5531 4.40185 11.3341C3.18287 10.1151 2.49805 8.46182 2.49805 6.73792V5.73792C2.49805 4.90949 3.16962 4.23792 3.99805 4.23792H5.99805Z" fill="#7ACB8B" stroke="#7ACB8B"/>
</svg>
