<svg width="12" height="12" viewBox="0 0 12 12" fill="none" xmlns="http://www.w3.org/2000/svg">
<path d="M11.8991 3.92889C11.7022 3.05983 10.8847 2.00983 9.60875 1.77546C8.25407 1.52608 6.92469 2.02108 6.19063 3.49671C6.01617 3.84894 5.88943 4.22286 5.81376 4.60858C5.40407 3.92514 4.61657 2.98389 3.34344 2.85639C1.53032 2.67639 0.464379 3.73296 0.165317 4.60671C-0.244371 5.80014 0.133442 6.77983 1.01094 6.91014C1.88938 7.04046 2.51282 6.49202 3.08 6.19389C3.90125 5.76171 5.29813 5.72608 5.5925 6.54921C5.63376 6.76764 5.67032 6.98702 5.70032 7.20639C5.70218 7.50358 5.27879 8.9104 5.14286 9.17102C4.95817 9.52633 4.77254 9.75227 4.93286 9.94821C5.06879 10.1141 5.32754 10.1732 5.56192 10.1732C6.30067 10.1732 6.41784 10.0663 6.51159 9.94821C6.62501 9.80529 7.1553 8.06608 6.56563 6.59608C6.365 5.52546 7.63532 5.31921 7.99532 5.30983C8.72094 5.29296 9.83188 5.54796 10.5284 5.63796C12.1072 5.84139 12.0416 4.55983 11.8991 3.92889Z" fill="#008000"/>
<path d="M2.46681 4.49417C2.54838 4.3573 2.64213 4.22979 2.74619 4.10886C2.85588 3.98136 3.10525 3.84636 3.11463 3.66073C3.12869 3.41136 2.73869 3.43667 2.58494 3.44792C2.48463 3.45448 2.38431 3.46667 2.28588 3.48542C2.10775 3.51823 1.93338 3.5698 1.76838 3.64198C1.48619 3.76573 1.23025 3.94761 1.02494 4.17823C0.87494 4.34698 0.745565 4.54386 0.67244 4.75855C0.49994 5.2573 0.504627 5.72979 0.681815 6.02136C0.780253 6.18355 0.92744 6.28011 1.11963 6.30823C1.92307 6.4273 2.09181 5.53198 2.28025 4.94605C2.329 4.79323 2.38432 4.63292 2.46681 4.49417ZM6.75119 3.70386C6.70525 3.86605 6.69119 4.04323 6.77557 4.16417C6.8365 4.25042 6.99494 4.29542 7.09713 4.27011C7.399 4.19605 7.61369 3.78823 7.76369 3.54448C7.87994 3.35511 8.02807 3.17417 8.18369 3.01573C8.28119 2.91636 8.41057 2.80292 8.44432 2.66136C8.50619 2.39979 8.10682 2.50386 7.98869 2.53292C7.52744 2.64917 7.08494 3.01573 6.86182 3.43292C6.82244 3.50605 6.78025 3.60167 6.75119 3.70386Z" fill="#BDCF46"/>
</svg>
