<svg width="49" height="60" viewBox="0 0 49 60" fill="none" xmlns="http://www.w3.org/2000/svg">
<path d="M29.5002 60C29.2642 60 29.0485 59.8402 28.9811 59.5944C28.7748 58.8373 28.7937 58.2164 28.7937 58.19C28.8045 57.8927 29.0404 57.6551 29.3303 57.6538C29.9236 57.6496 31.5632 57.4384 32.0095 56.5425C32.3951 55.7687 31.7951 54.6088 31.2234 53.7711C31.0522 53.5197 31.1101 53.1738 31.3542 52.9974C31.5969 52.8196 31.934 52.8807 32.1052 53.1308C33.1866 54.7158 33.4778 56.034 32.9682 57.0523C32.356 58.2761 30.7663 58.6248 29.9061 58.7248C29.9276 58.8901 29.9627 59.086 30.0193 59.2943C30.1002 59.5888 29.933 59.8958 29.6458 59.9792C29.5973 59.9931 29.5487 60 29.5002 60Z" fill="#133441"/>
<path d="M12.5231 58.623C12.4368 58.623 12.3519 58.6022 12.2737 58.5605C12.2508 58.548 11.7168 58.2577 11.1802 57.6979C10.9698 57.4798 10.9725 57.1283 11.1842 56.913C11.3959 56.6963 11.737 56.6991 11.9474 56.9172C12.0296 57.0033 12.1119 57.0811 12.1901 57.1492C12.8265 54.9696 14.5281 51.9538 17.6806 52.3303C17.9759 52.3664 18.1876 52.6415 18.1539 52.9471C18.1188 53.2513 17.8518 53.4694 17.5552 53.4347C14.0791 53.0193 13.0625 58.1229 13.0517 58.1743C13.0193 58.3466 12.9101 58.4925 12.7564 58.5675C12.6822 58.605 12.6027 58.623 12.5231 58.623Z" fill="#133441"/>
<path d="M38.2415 41.3164C38.0932 41.3164 37.9462 41.2525 37.8397 41.1303C37.6415 40.9011 37.6603 40.5496 37.8828 40.3454C43.2021 35.4612 45.2866 33.8804 45.3729 33.8151C45.6129 33.6345 45.95 33.6887 46.1267 33.936C46.3019 34.1832 46.2494 34.5305 46.0094 34.7125C45.9891 34.7278 43.8695 36.3378 38.6002 41.1747C38.4977 41.2692 38.3696 41.3164 38.2415 41.3164Z" fill="#133441"/>
<path d="M48.0333 35.7041C48.0198 35.7041 48.0064 35.7041 47.9942 35.7027C47.9255 35.6972 46.2953 35.5652 45.3798 34.5095C44.328 33.2981 44.4373 31.9785 44.4427 31.9229C44.471 31.6173 44.7353 31.3936 45.0319 31.4228C45.3272 31.452 45.5429 31.7215 45.5173 32.0243C45.5146 32.0701 45.462 32.937 46.1834 33.769C46.8063 34.4858 48.0603 34.5928 48.0724 34.5942C48.3691 34.6178 48.5916 34.8845 48.57 35.1901C48.5484 35.4818 48.3124 35.7041 48.0333 35.7041Z" fill="#133441"/>
<path d="M46.0499 34.8105C45.7695 34.8105 45.5268 34.7119 45.3515 34.4744C44.7892 33.709 45.7263 32.6254 46.6135 31.8503C46.8401 31.6517 47.1799 31.6808 47.3727 31.9142C47.5655 32.1476 47.5385 32.499 47.3107 32.6977C47.0019 32.9686 46.6998 33.2922 46.4989 33.5534C46.8077 33.4047 47.2109 33.1603 47.5614 32.8949C47.8028 32.7143 48.1399 32.7685 48.3152 33.0158C48.4905 33.2644 48.4392 33.6117 48.1979 33.7923C47.5169 34.3063 46.6864 34.8105 46.0499 34.8105Z" fill="#133441"/>
<path d="M11.3271 43.4209C11.2327 43.4209 11.1357 43.3945 11.0494 43.3403C5.01279 39.5744 2.64239 38.3895 2.61947 38.3784C2.35115 38.245 2.23922 37.913 2.36731 37.6366C2.49675 37.3601 2.81902 37.2435 3.08734 37.3768C3.18442 37.424 5.51303 38.5881 11.6076 42.3888C11.8624 42.5485 11.9433 42.8903 11.7896 43.1528C11.6885 43.3251 11.5105 43.4209 11.3271 43.4209Z" fill="#133441"/>
<path d="M0.707386 39.7422C0.468727 39.7422 0.250299 39.5769 0.186927 39.3268C0.111419 39.0309 0.284008 38.7267 0.571207 38.6489C0.583343 38.6462 1.79687 38.3058 2.28227 37.4835C2.84588 36.525 2.63688 35.6776 2.62745 35.6429C2.55194 35.3484 2.71913 35.0428 3.00499 34.9608C3.29084 34.8802 3.58478 35.0483 3.66568 35.3414C3.68051 35.3956 4.02163 36.6708 3.20318 38.0599C2.4899 39.2699 0.911003 39.7075 0.844934 39.7241C0.79909 39.7366 0.75323 39.7422 0.707386 39.7422Z" fill="#133441"/>
<path d="M2.23924 37.6882H2.24061H2.23924ZM2.32151 38.5078C1.72285 38.5078 0.961026 38.2105 0.305727 37.8855C0.0374043 37.7535 -0.0758731 37.4215 0.0535688 37.1451C0.181662 36.8686 0.503929 36.752 0.772251 36.8839C1.16462 37.0784 1.60283 37.2437 1.93318 37.3312C1.69047 37.1117 1.33585 36.8506 0.983932 36.6422C0.725048 36.4894 0.636073 36.1505 0.784392 35.8838C0.932711 35.6184 1.2617 35.5267 1.52059 35.6782C2.52916 36.2741 3.6429 37.1631 3.22491 38.0216C3.05367 38.3731 2.72467 38.5078 2.32151 38.5078Z" fill="#133441"/>
<path d="M37.5979 5.24941C37.0215 3.22266 34.9941 0.859441 32.0309 0.493203C28.8847 0.103097 25.9032 1.47009 24.429 5.06896C24.0788 5.92792 23.8414 6.83111 23.7228 7.75471C22.6843 6.19845 20.7414 4.08805 17.8 3.97421C13.6111 3.81582 11.3149 6.47235 10.7533 8.58332C9.98347 11.4668 10.9912 13.7286 13.0247 13.9074C15.0603 14.0861 16.4132 12.6968 17.6729 11.908C19.4967 10.7645 22.6989 10.4742 23.4926 12.3779C23.6186 12.8885 23.734 13.4021 23.8343 13.9166C23.8811 14.6193 23.1103 18.0096 22.8355 18.6462C22.4623 19.5139 22.0685 20.0757 22.4646 20.5156C22.8005 20.8881 23.4031 20.9896 23.9412 20.9551C25.6374 20.8461 25.8912 20.576 26.0895 20.2828C26.3295 19.928 27.2981 15.7356 25.7337 12.3453C25.1198 9.84229 28.007 9.16705 28.8323 9.09178C30.4959 8.94484 33.0833 9.3842 34.6955 9.49437C38.3496 9.74276 38.0154 6.72088 37.5979 5.24941Z" fill="#008000"/>
<path d="M16.0216 7.97768C16.1893 7.64187 16.3863 7.32644 16.6079 7.02502C16.8415 6.70724 17.3948 6.35111 17.3897 5.91063C17.3863 5.31866 16.4945 5.43605 16.1431 5.48534C15.9137 5.51566 15.6851 5.55928 15.4618 5.61815C15.0575 5.72204 14.6645 5.86973 14.296 6.06483C13.6657 6.39918 13.1041 6.86715 12.6657 7.44298C12.3455 7.86428 12.0766 8.34908 11.9394 8.86771C11.6148 10.0729 11.6932 11.19 12.1417 11.8535C12.391 12.2227 12.7428 12.4294 13.1881 12.4676C15.0499 12.6307 15.3092 10.488 15.6579 9.07411C15.748 8.70544 15.852 8.31807 16.0216 7.97768ZM25.7457 5.47631C25.6635 5.86674 25.6566 6.28795 25.8676 6.56159C26.0199 6.75663 26.3901 6.83971 26.6211 6.76476C27.3036 6.54505 27.7382 5.54869 28.0477 4.94998C28.2875 4.48486 28.6017 4.03501 28.9364 3.63727C29.146 3.38782 29.4268 3.1004 29.4841 2.76055C29.5887 2.1327 28.6866 2.43776 28.4195 2.52393C27.3771 2.86695 26.4136 3.79932 25.961 4.81909C25.881 4.99787 25.7978 5.2303 25.7457 5.47631Z" fill="#A4B46B"/>
<path d="M39.1545 40.4374C39.1545 48.7235 32.6338 55.4414 24.5909 55.4414C16.548 55.4414 10.0273 48.7235 10.0273 40.4374C10.0273 30.5563 18.3102 18.2743 22.3829 12.8325C23.5177 11.3163 25.6641 11.3163 26.7989 12.8325C30.8716 18.2743 39.1545 30.5563 39.1545 40.4374Z" fill="#A37B65"/>
<path d="M24.6919 54.1992C18.9507 54.1992 14.2948 50.518 14.2948 45.977C14.2948 41.4359 18.9507 37.7547 24.6919 37.7547C30.4346 37.7547 35.0904 41.4359 35.0904 45.977C35.0904 50.518 30.4346 54.1992 24.6919 54.1992Z" fill="#75503F" fill-opacity="0.8"/>
<path d="M23.442 15.0992C23.4271 14.9728 23.2707 14.8922 23.1588 14.9228C22.4873 15.1062 22.0383 16.0396 21.6581 16.5939C21.1498 17.3357 20.6698 18.09 20.2113 18.8665C19.7556 19.6389 19.3066 20.4182 18.8886 21.2142C18.534 21.8893 17.814 22.8367 17.8814 23.6243C17.9137 24.0008 18.2818 24.3508 18.6567 24.1147C19.3403 23.6826 19.6329 22.645 20.0037 21.9323C20.4203 21.1336 20.8329 20.3348 21.2657 19.5458C21.6986 18.7568 22.1327 17.9678 22.5682 17.1815C22.908 16.5703 23.5283 15.8313 23.442 15.0992Z" fill="white"/>
<path d="M17.4619 25.1687C17.0898 25.0506 16.7729 25.2798 16.6327 25.6201C16.5531 25.8132 16.4736 26.0049 16.3941 26.1966C16.2606 26.4383 16.1514 26.6953 16.0758 26.969C15.9788 27.3149 16.1648 27.6941 16.5019 27.8011C16.8714 27.9178 17.164 27.69 17.3096 27.3621C17.5064 26.9162 17.7033 26.4689 17.9001 26.023C18.0485 25.6868 17.7721 25.2673 17.4619 25.1687Z" fill="white"/>
<path d="M27.123 45.9937C27.8659 46.9216 27.1418 48.6483 24.6946 48.6483C22.246 48.6483 21.6446 46.7813 22.2689 45.9937C22.6262 45.5408 23.4501 45.7672 24.6946 45.7672C25.9378 45.7672 26.7522 45.5339 27.123 45.9937Z" fill="#AB1700"/>
<path d="M26.7738 46.1604C26.7738 46.3729 25.8731 46.5438 24.7634 46.5438C23.6523 46.5438 22.7516 46.3729 22.7516 46.1604C22.7516 45.9492 23.6523 46.002 24.7634 46.002C25.8731 46.002 26.7738 45.9492 26.7738 46.1604Z" fill="white"/>
<path d="M23.0335 47.9482C23.4137 48.1913 23.9625 48.358 24.7041 48.358C25.536 48.358 26.1387 48.1635 26.5325 47.8857C25.114 46.4757 23.7791 47.2522 23.0335 47.9482Z" fill="#FD6C6C"/>
<path d="M20.5363 41.7043C20.5161 40.418 19.2082 39.6859 18.0931 39.5303C16.703 39.3345 15.3762 39.8262 14.5469 41.0084C13.8579 41.9919 15.4841 42.999 16.142 41.9682C16.9093 40.7653 18.9224 41.2487 19.8298 42.0071C20.0927 42.2252 20.5431 42.1044 20.5363 41.7043Z" fill="#133441"/>
<path d="M29.4805 42.0065C30.3893 41.248 32.4011 40.7646 33.1696 41.9676C33.8263 42.997 35.4538 41.9926 34.7634 41.0077C33.9342 39.8256 32.6087 39.3338 31.2172 39.5297C30.1021 39.6853 28.7956 40.416 28.774 41.7037C28.7673 42.1051 29.2176 42.226 29.4805 42.0065Z" fill="#133441"/>
<path d="M36.0456 44.7254C36.0456 45.2436 35.2838 45.6631 34.344 45.6631C33.4028 45.6631 32.641 45.2436 32.641 44.7254C32.641 44.2087 33.4028 43.7878 34.344 43.7878C35.2838 43.7878 36.0456 44.2087 36.0456 44.7254Z" fill="#543B2F"/>
<path d="M16.6694 44.7254C16.6694 45.2436 15.9076 45.6631 14.9678 45.6631C14.0266 45.6631 13.2648 45.2436 13.2648 44.7254C13.2648 44.2087 14.0266 43.7878 14.9678 43.7878C15.9076 43.7878 16.6694 44.2087 16.6694 44.7254Z" fill="#543B2F"/>
<path d="M30.1816 35.0614C30.0266 35.7574 31.1916 36.2853 32.5251 36.5686C33.7184 36.8229 34.8604 37.1785 35.2191 36.3047C35.9566 34.5058 30.6468 32.9652 30.1816 35.0614Z" fill="#133441"/>
<path d="M14.0873 36.3047C14.4459 37.1785 15.5866 36.8229 16.7799 36.5686C18.1134 36.2853 19.2784 35.7574 19.1234 35.0614C18.6582 32.9652 13.3484 34.5058 14.0873 36.3047Z" fill="#133441"/>
</svg>
