<svg width="43" height="60" viewBox="0 0 43 60" fill="none" xmlns="http://www.w3.org/2000/svg">
<path d="M39.0728 39.3936V39.395V39.3936ZM39.0728 39.395L39.0742 39.3964L39.0728 39.395ZM40.145 43.2946C39.9956 43.2752 39.8531 43.2338 39.7189 43.1703C39.391 43.0142 38.6578 42.4978 38.9358 41.052C39.16 39.8879 39.0714 39.4102 39.0603 39.3563C38.9289 38.9531 39.1337 38.514 39.5349 38.3607C39.9485 38.2005 40.4134 38.4076 40.5725 38.8205C40.6237 38.9489 40.7426 39.366 40.6693 40.2525C40.9612 40.2539 41.2089 40.2856 41.4205 40.3492C41.8964 40.4914 42.1233 40.7731 42.2298 40.9844C42.465 41.4497 42.3599 42.0034 41.9435 42.5033C41.6806 42.8182 41.3361 43.064 40.9723 43.1965C40.6928 43.2973 40.4092 43.3305 40.145 43.2946Z" fill="#133441"/>
<path d="M6.46883 50.3672C4.1377 50.3672 1.57968 49.4613 0.914238 47.6248C0.497817 46.4731 0.681838 44.591 3.91775 42.1537C4.16262 41.9701 4.50986 42.0184 4.69386 42.2628C4.87786 42.5059 4.82805 42.8525 4.58457 43.0361C2.47894 44.62 1.54649 46.1169 1.95599 47.2492C2.40977 48.5016 4.50571 49.3619 6.83131 49.2542C7.13982 49.2362 7.39576 49.4751 7.41098 49.7803C7.42482 50.0841 7.18961 50.3437 6.88386 50.3575C6.7469 50.3644 6.60855 50.3672 6.46883 50.3672Z" fill="#133441"/>
<path d="M7.61287 51.5273C7.44408 51.5273 7.27668 51.5039 7.1162 51.4528C6.4051 51.2277 6.0108 50.5649 6.06061 49.6811C6.12425 48.5391 6.77448 48.1621 7.32372 48.1801C7.6433 48.1939 7.95181 48.3444 8.19392 48.5723C8.66429 48.68 9.04336 48.9272 9.26748 49.2903C9.52757 49.7087 9.5345 50.2155 9.28547 50.6118C8.92992 51.178 8.25756 51.5273 7.61287 51.5273Z" fill="#133441"/>
<path d="M23.4826 59.9609C23.4701 59.9609 23.4577 59.9609 23.4452 59.9596C22.5072 59.8974 22.0272 59.5398 21.976 59.4997C21.8224 59.3796 21.7435 59.1876 21.7684 58.9943L22.6137 52.4973C22.6525 52.1949 22.9292 51.9809 23.2335 52.0195C23.5365 52.0596 23.7496 52.3357 23.7108 52.6395L22.9167 58.7471C23.0578 58.7927 23.2571 58.8397 23.5185 58.8576C23.8243 58.8783 24.0539 59.1407 24.0346 59.4459C24.0138 59.7372 23.7717 59.9609 23.4826 59.9609Z" fill="#133441"/>
<path d="M10.8696 60C10.6081 60 10.3743 59.8136 10.3259 59.5471C10.2705 59.2474 10.4698 58.9602 10.77 58.905C11.0646 58.8497 11.5337 58.7365 11.7758 58.6316C12.069 58.0364 12.8092 55.0896 13.3861 52.4507C13.4511 52.1525 13.7458 51.9633 14.0446 52.0282C14.3435 52.0931 14.5316 52.3886 14.4666 52.6855C14.4638 52.7021 14.1193 54.2749 13.7278 55.8588C12.8839 59.2737 12.6695 59.3979 12.4218 59.5429C11.9888 59.7956 11.1366 59.96 10.9706 59.9903C10.936 59.9972 10.9028 60 10.8696 60Z" fill="#133441"/>
<path d="M33.826 5.21867C33.3613 3.17113 31.4316 0.697301 28.4199 0.145107C25.2222 -0.442428 22.0843 0.723807 20.3516 4.20042C19.9398 5.0303 19.6406 5.91126 19.462 6.82003C18.495 5.20984 16.6361 2.99222 13.631 2.69183C9.35123 2.26774 6.83515 4.75704 6.12923 6.81562C5.16219 9.62739 6.05399 11.9356 8.12528 12.2426C10.1988 12.5496 11.6704 11.2575 13.0092 10.5551C14.9477 9.53683 18.2449 9.4529 18.9398 11.3922C19.0371 11.9068 19.1234 12.4237 19.1942 12.9406C19.1986 13.6407 18.1993 16.9552 17.8784 17.5693C17.4425 18.4064 17.0043 18.9387 17.3827 19.4004C17.7036 19.7913 18.3143 19.9305 18.8676 19.9305C20.6113 19.9305 20.8879 19.6787 21.1092 19.4004C21.3769 19.0636 22.6287 14.966 21.2368 11.5026C20.7632 8.98022 23.7617 8.49429 24.6114 8.4722C26.3242 8.43244 28.9465 9.03323 30.5907 9.24527C34.3173 9.72458 34.1624 6.70518 33.826 5.21867Z" fill="#008000"/>
<path d="M11.5618 6.55048C11.7543 6.228 11.9756 5.9276 12.2212 5.64267C12.4801 5.34228 13.0688 5.02421 13.0909 4.58687C13.1241 3.99934 12.2035 4.05898 11.8406 4.08548C11.6038 4.10094 11.367 4.12966 11.1347 4.17383C10.7142 4.25114 10.3026 4.37262 9.91316 4.5427C9.24707 4.83426 8.64295 5.26276 8.15832 5.80612C7.80425 6.2037 7.49887 6.66754 7.32627 7.17335C6.91909 8.34842 6.93015 9.46165 7.34839 10.1486C7.58075 10.5307 7.92818 10.7582 8.38182 10.8245C10.2783 11.105 10.6766 8.99559 11.1214 7.61511C11.2365 7.25508 11.367 6.87738 11.5618 6.55048ZM21.6748 4.68848C21.5663 5.0706 21.5331 5.48805 21.7323 5.77299C21.8761 5.97619 22.2501 6.08222 22.4913 6.02258C23.2039 5.84809 23.7106 4.88727 24.0647 4.31298C24.3391 3.86681 24.6887 3.44052 25.0561 3.06723C25.2862 2.8331 25.5916 2.56584 25.6713 2.23232C25.8173 1.61607 24.8746 1.86124 24.5958 1.92971C23.5071 2.2036 22.4626 3.06723 21.9359 4.05014C21.8429 4.22242 21.7434 4.44772 21.6748 4.68848Z" fill="#A4B46B"/>
<path d="M36.1325 47.6738C34.9427 47.6738 33.6769 47.0773 32.5134 45.9367C32.2948 45.724 32.292 45.3733 32.5065 45.1565C32.7209 44.9383 33.0709 44.9356 33.2881 45.1496C34.5734 46.4076 35.8932 46.8522 37.0027 46.4007C38.2271 45.9022 39.0129 44.3929 39.0516 42.4624C39.0585 42.16 39.3048 41.9211 39.605 41.9211H39.6175C39.9218 41.9266 40.1653 42.1793 40.1584 42.4845C40.11 44.8637 39.0613 46.7556 37.4205 47.4239C37.0069 47.591 36.5752 47.6738 36.1325 47.6738Z" fill="#133441"/>
<path d="M34.9561 39.2811C34.9561 47.4973 28.2401 54.1585 19.9563 54.1585C11.6724 54.1585 4.95642 47.4973 4.95642 39.2811C4.95642 29.472 13.5072 17.2774 17.6967 11.8913C18.8611 10.3943 21.0514 10.3943 22.2158 11.8913C26.4054 17.2774 34.9561 29.472 34.9561 39.2811Z" fill="#A37B65"/>
<path d="M20.1124 53.0025C14.2227 53.116 9.37576 49.5494 9.28847 45.0361C9.20117 40.5229 13.9066 36.7722 19.7963 36.6587C25.6873 36.5452 30.5343 40.1118 30.6216 44.625C30.7089 49.1383 26.0034 52.8889 20.1124 53.0025Z" fill="#75503F" fill-opacity="0.8"/>
<path d="M18.7885 14.172C18.7733 14.0449 18.6114 13.9662 18.498 13.9966C17.8076 14.1789 17.347 15.1068 16.9582 15.6578C16.4367 16.3952 15.9441 17.145 15.4738 17.9155C15.0061 18.6847 14.5455 19.4593 14.1166 20.2506C13.7527 20.9217 13.014 21.8634 13.0832 22.645C13.115 23.0192 13.494 23.3686 13.8786 23.1338C14.5801 22.7044 14.8802 21.6715 15.2607 20.9645C15.6868 20.1705 16.1115 19.3751 16.5556 18.5921C16.9997 17.8064 17.4452 17.0235 17.8921 16.2405C18.2393 15.6329 18.8771 14.8997 18.7885 14.172Z" fill="white"/>
<path d="M12.6514 24.1816C12.2695 24.0642 11.9458 24.2921 11.8019 24.6304C11.7203 24.8209 11.6387 25.0129 11.5571 25.2034C11.4201 25.4437 11.308 25.6992 11.2306 25.9712C11.131 26.3137 11.3219 26.692 11.6677 26.7983C12.0468 26.9143 12.347 26.6879 12.4964 26.3606C12.6984 25.9173 12.899 25.4741 13.101 25.0308C13.2532 24.6966 12.9709 24.2796 12.6514 24.1816Z" fill="white"/>
<path d="M22.4463 44.1568C22.0617 43.7384 21.2206 44.1001 19.9215 44.1001C18.6225 44.1001 17.7509 43.7453 17.3773 44.1568C17.2141 44.3363 17.1532 44.5848 17.1878 44.8582C17.1947 44.9121 17.2058 44.9687 17.221 45.0253C17.4175 45.7848 18.3084 46.1977 19.7735 46.2488C19.8192 46.2502 19.8648 46.2529 19.9105 46.2529C20.172 46.2529 20.4168 46.2281 20.6465 46.1853C21.81 45.9657 22.5418 45.6923 22.6732 45.0184C22.6843 44.9604 22.6912 44.9038 22.6926 44.8472C22.7051 44.5917 22.6262 44.3515 22.4463 44.1568Z" fill="white"/>
<path d="M22.1419 44.9854C22.7977 44.3501 22.5625 44.2811 21.2621 44.2811C20.901 44.2811 20.4555 44.2866 19.9256 44.2866C19.357 44.2866 18.6114 44.1858 18.0635 44.1858C17.4091 44.1858 17.0397 44.3294 17.6014 44.9633C17.4257 44.9232 17.2888 44.8873 17.1878 44.8583C17.1809 44.8086 17.1781 44.7603 17.1781 44.7133C17.1781 44.4979 17.2445 44.3032 17.3773 44.1568C17.5143 44.0063 17.719 43.958 17.986 43.958C18.4481 43.958 19.0983 44.1002 19.9215 44.1002C20.7446 44.1002 21.3838 43.9552 21.839 43.9552C22.1032 43.9552 22.3052 44.0035 22.4463 44.1568C22.6151 44.3391 22.6939 44.5628 22.6939 44.8003C22.6939 44.8155 22.6939 44.8307 22.6926 44.8473C22.5722 44.8832 22.3882 44.9315 22.1419 44.9854Z" fill="#B9B9B9"/>
<path d="M19.7736 46.249C18.3085 46.1979 17.4175 45.7851 17.2211 45.0256C17.3857 45.0532 17.5531 45.0711 17.708 45.0849C17.7011 45.3225 17.7745 46.0239 19.7736 46.249Z" fill="#B9B9B9"/>
<path d="M20.6465 46.1855C21.5859 45.8804 22.5916 45.7796 21.9884 45.096C22.196 45.0822 22.4381 45.0588 22.6733 45.0187C22.5418 45.6926 21.81 45.966 20.6465 46.1855Z" fill="#B9B9B9"/>
<path d="M22.1421 44.9854C21.947 45.0268 21.7146 45.071 21.4379 45.1152C21.4379 45.1152 21.6731 45.1166 21.9885 45.0959C21.9733 45.0779 21.9594 45.0614 21.9415 45.0448C21.9415 45.0448 22.0341 45.0379 22.1421 44.9854Z" fill="#231F20"/>
<path d="M21.9414 45.0446C21.9594 45.0612 21.9732 45.0778 21.9884 45.0957C22.196 45.0819 22.4381 45.0584 22.6733 45.0184C22.6843 44.9604 22.6913 44.9038 22.6926 44.8471C22.5723 44.883 22.3883 44.9314 22.142 44.9852C22.0341 45.0377 21.9414 45.0446 21.9414 45.0446Z" fill="#231F20"/>
<path d="M17.708 45.0848C18.0967 45.1166 18.4066 45.1152 18.4066 45.1152C18.0801 45.0641 17.8131 45.0117 17.6014 44.9633C17.6333 44.9909 17.6692 45.0172 17.7107 45.0407C17.7107 45.0407 17.708 45.0558 17.708 45.0848Z" fill="#231F20"/>
<path d="M17.7107 45.0408C17.6692 45.0173 17.6332 44.9911 17.6014 44.9634C17.4257 44.9234 17.2887 44.8875 17.1877 44.8571C17.1947 44.9124 17.2057 44.969 17.221 45.0256C17.3856 45.0532 17.553 45.0712 17.7079 45.085C17.7079 45.056 17.7107 45.0408 17.7107 45.0408Z" fill="#231F20"/>
<path d="M23.2501 44.4316C23.2916 44.0105 22.9541 43.8268 22.9541 43.8268C22.9776 43.8254 23.0011 43.8254 23.0219 43.8254C23.6859 43.8254 23.2501 44.4316 23.2501 44.4316Z" fill="#75503F"/>
<path d="M16.6235 44.4316C16.6235 44.4316 16.1863 43.8254 16.8504 43.8254C16.8725 43.8254 16.8947 43.8254 16.9196 43.8268C16.9196 43.8268 16.5806 44.0105 16.6235 44.4316Z" fill="#75503F"/>
<path d="M39.6122 33.7246C39.4435 33.9525 38.8776 34.2687 38.4598 34.4827C38.475 34.6553 38.4875 35.5764 38.4875 35.7642C38.4875 39.1694 38.9025 45.248 30.2421 45.248C24.2932 45.248 21.6937 40.977 21.2607 36.7777C21.2468 36.7777 21.2385 36.7777 21.2385 36.7777C21.2385 36.7777 21.0033 35.5391 19.9367 35.5391C18.8687 35.5391 18.6335 36.7777 18.6335 36.7777C18.6335 36.7777 18.6266 36.7777 18.6113 36.7777C18.1797 40.977 15.5788 45.248 9.62991 45.248C0.969458 45.248 1.3845 39.1694 1.3845 35.7642C1.3845 35.5764 1.39695 34.6553 1.41217 34.4827C0.994361 34.2687 0.428542 33.9525 0.25976 33.7246C-0.000329974 33.3725 -0.0777983 32.7345 0.0854499 32.6406C0.656818 32.3065 2.11221 31.6216 4.25242 31.17C6.45212 30.706 11.7937 30.4243 16.586 31.7279C18.0787 32.1339 21.731 32.1587 23.2861 31.7279C28.0673 30.4078 33.4213 30.706 35.621 31.17C37.7598 31.6216 39.2166 32.3065 39.7879 32.6406C39.9498 32.7345 39.8723 33.3725 39.6122 33.7246Z" fill="#00111A"/>
<path d="M17.3634 35.9037C17.3634 33.3877 14.6616 32.1435 9.93704 32.1435C5.21115 32.1435 2.70569 32.9651 2.70569 36.1287C2.70569 39.0148 2.35429 44.1641 9.69215 44.1641C15.2467 44.1641 17.3634 39.7701 17.3634 35.9037Z" fill="#353B42"/>
<path d="M37.1664 36.1287C37.1664 32.9651 34.661 32.1435 29.9351 32.1435C25.2106 32.1435 22.5087 33.3877 22.5087 35.9037C22.5087 39.7701 24.6267 44.1641 30.1813 44.1641C37.5178 44.1641 37.1664 39.0148 37.1664 36.1287Z" fill="#353B42"/>
<path d="M15.6646 37.5695C14.6685 35.9774 12.9765 37.3002 10.846 38.6286C8.71406 39.957 6.95154 40.7869 7.94625 42.3791C8.94234 43.9712 11.4782 44.1853 13.6088 42.8569C15.7393 41.5285 16.6607 39.1617 15.6646 37.5695Z" fill="#292E33"/>
<path d="M36.13 37.5695C37.1261 39.1617 36.2047 41.5285 34.0742 42.8569C31.9437 44.1853 29.4078 43.9712 28.4131 42.3791C27.417 40.7869 29.1809 39.957 31.3114 38.6286C33.442 37.3002 35.1339 35.9774 36.13 37.5695Z" fill="#292E33"/>
<path d="M4.59276 33.7457C5.07005 33.7705 4.98704 34.6916 4.83624 35.748C4.68544 36.8043 4.52358 37.5956 4.04767 37.5707C3.57038 37.5459 3.30615 36.6704 3.45694 35.614C3.60774 34.5576 4.11685 33.7208 4.59276 33.7457Z" fill="white"/>
<path d="M4.69242 39.3114C4.75745 39.7353 4.5776 40.1151 4.29122 40.1579C4.00346 40.2021 3.71845 39.8941 3.65342 39.4702C3.5884 39.0463 3.76827 38.6679 4.05603 38.6237C4.34241 38.5795 4.6274 38.8875 4.69242 39.3114Z" fill="white"/>
<path d="M24.9172 33.6252C25.3931 33.65 25.3101 34.5725 25.1593 35.6288C25.0099 36.6852 24.8481 37.4764 24.3722 37.4516C23.8949 37.4267 23.6306 36.5499 23.7814 35.4935C23.9322 34.4371 24.4399 33.6017 24.9172 33.6252Z" fill="white"/>
<path d="M25.0169 39.1933C25.0819 39.6172 24.902 39.9955 24.6157 40.0397C24.3279 40.0839 24.0429 39.776 23.9779 39.3521C23.9129 38.9281 24.0927 38.5498 24.3791 38.5056C24.6669 38.4614 24.9518 38.7693 25.0169 39.1933Z" fill="white"/>
</svg>
