<svg width="41" height="41" viewBox="0 0 41 41" fill="none" xmlns="http://www.w3.org/2000/svg">
<path d="M39.1161 1.48228C38.1161 0.460281 36.6361 0.0822808 35.2561 0.482281L3.07607 9.78028C1.62007 10.1843 0.588071 11.3383 0.310071 12.8023C0.0260708 14.2943 1.01807 16.1903 2.31407 16.9823L12.3761 23.1263C13.4081 23.7583 14.7401 23.6003 15.5941 22.7443L27.1161 11.2223C27.6961 10.6203 28.6561 10.6203 29.2361 11.2223C29.8161 11.8003 29.8161 12.7423 29.2361 13.3423L17.6941 24.8643C16.8381 25.7203 16.6781 27.0483 17.3081 28.0823L23.4561 38.1823C24.1761 39.3803 25.4161 40.0623 26.7761 40.0623C26.9361 40.0623 27.1161 40.0623 27.2761 40.0403C28.8361 39.8423 30.0761 38.7803 30.5361 37.2803L40.0761 5.34228C40.4961 3.98228 40.1161 2.50228 39.1161 1.48228Z" fill="white"/>
<path opacity="0.4" d="M15.164 34.6101C15.748 35.1961 15.748 36.1461 15.164 36.7321L12.432 39.4621C12.14 39.7561 11.756 39.9021 11.372 39.9021C10.988 39.9021 10.604 39.7561 10.312 39.4621C9.72601 38.8761 9.72601 37.9281 10.312 37.3421L13.042 34.6101C13.628 34.0261 14.578 34.0261 15.164 34.6101ZM13.5966 27.0341C14.1806 27.6201 14.1806 28.5701 13.5966 29.1561L10.8646 31.8861C10.5726 32.1801 10.1886 32.3261 9.80461 32.3261C9.42061 32.3261 9.03662 32.1801 8.74462 31.8861C8.15862 31.3001 8.15862 30.3521 8.74462 29.7661L11.4746 27.0341C12.0606 26.4501 13.0106 26.4501 13.5966 27.0341ZM6.07421 24.6493C6.65822 25.2353 6.65822 26.1853 6.07421 26.7713L3.34221 29.5013C3.05021 29.7953 2.66621 29.9413 2.28221 29.9413C1.89822 29.9413 1.51421 29.7953 1.22221 29.5013C0.636215 28.9153 0.636215 27.9673 1.22221 27.3813L3.95221 24.6493C4.53821 24.0653 5.48821 24.0653 6.07421 24.6493Z" fill="white"/>
</svg>
