 <svg width="32" height="33" viewBox="0 0 32 33" fill="none" xmlns="http://www.w3.org/2000/svg">
<path fill-rule="evenodd" clip-rule="evenodd" d="M30 16.1285C30 6.95699 26.7692 2.75 16 2.75C5.23077 2.75 2 6.95699 2 16.1285C2 22.6555 3.63629 26.6682 8.46154 28.4395V31.5274C8.46154 32.6641 9.88769 33.1832 10.6264 32.3156L13.1164 29.3911C14.0113 29.4685 14.9713 29.5069 16 29.5069C26.7692 29.5069 30 25.2999 30 16.1285ZM13.7113 27.2816C14.4251 27.3382 15.1872 27.3664 16 27.3664C25.1124 27.3664 27.8462 23.8325 27.8462 16.1285C27.8462 8.42443 25.1124 4.89055 16 4.89055C6.88757 4.89055 4.15385 8.42443 4.15385 16.1285C4.15385 21.5739 5.51965 24.9359 9.53846 26.4391V31.0139C9.53846 31.4127 10.0389 31.5949 10.2981 31.2904L13.7113 27.2816Z" fill="#BFC8D0"/>
<path d="M16 26.6048C15.1766 26.6048 14.4047 26.5762 13.6815 26.5185L10.224 30.595C9.96145 30.9046 9.45455 30.7193 9.45455 30.3138V25.6619C5.38354 24.1334 4 20.7147 4 15.1774C4 7.34346 6.76923 3.75 16 3.75C25.2308 3.75 28 7.34346 28 15.1774C28 23.0113 25.2308 26.6048 16 26.6048Z" fill="#9179EE"/>
<path fill-rule="evenodd" clip-rule="evenodd" d="M30 15.1285C30 5.95699 26.7692 1.75 16 1.75C5.23077 1.75 2 5.95699 2 15.1285C2 21.6555 3.63629 25.6682 8.46154 27.4395V30.5274C8.46154 31.6641 9.88769 32.1832 10.6264 31.3156L13.1164 28.3911C14.0113 28.4685 14.9713 28.5069 16 28.5069C26.7692 28.5069 30 24.2999 30 15.1285ZM13.7113 26.2816C14.4251 26.3382 15.1872 26.3664 16 26.3664C25.1124 26.3664 27.8462 22.8325 27.8462 15.1285C27.8462 7.42443 25.1124 3.89055 16 3.89055C6.88757 3.89055 4.15385 7.42443 4.15385 15.1285C4.15385 20.5739 5.51965 23.9359 9.53846 25.4391V30.0139C9.53846 30.4127 10.0389 30.5949 10.2981 30.2904L13.7113 26.2816Z" fill="white"/>
<path d="M11.5432 12.8845L11.5026 12.907L11.4668 12.9366C11.1902 13.1654 10.7756 13.7934 11.1388 14.5697C11.4414 15.2165 12.1157 16.5374 13.3005 17.5326C14.4592 18.506 15.6965 19.0295 16.5092 19.2009L16.5603 19.2117H16.6069C16.6091 19.2119 16.614 19.2124 16.6219 19.2136C16.6412 19.2163 16.6645 19.2203 16.7012 19.2267L16.7874 18.7342L16.7012 19.2267C16.7075 19.2278 16.714 19.229 16.7208 19.2302C16.9709 19.2744 17.5704 19.3804 18.0729 18.8797C18.3954 18.5583 18.6898 18.2232 18.8165 18.0725C18.9055 17.9913 19.1956 17.8231 19.5626 17.9472C20.2576 18.1821 21.0839 18.7121 21.4833 18.9808C21.7925 19.189 22.4924 19.6904 22.8079 19.9182L22.8082 19.9184C22.8344 19.9373 22.8959 19.9993 22.9291 20.0854C22.9557 20.1542 22.97 20.2488 22.9061 20.3857C22.7875 20.6395 22.4266 21.124 21.9378 21.5478C21.4401 21.9794 20.9222 22.25 20.5072 22.25C20.5087 22.25 20.5072 22.2498 20.5025 22.2492C20.484 22.2467 20.4153 22.2374 20.2792 22.2068C20.1262 22.1725 19.9195 22.1186 19.6669 22.0426C19.1622 21.8907 18.485 21.654 17.7029 21.3175C16.1375 20.6441 14.1668 19.5777 12.3218 18.0072C11.1613 17.0194 10.0664 15.6536 9.2138 14.3751C8.35407 13.0858 7.77896 11.9432 7.62244 11.4155L7.61148 11.3785L7.595 11.3437C7.55603 11.2614 7.50112 11.0855 7.50002 10.886C7.49895 10.6933 7.54725 10.5092 7.67465 10.3566C8.09467 9.85322 8.53938 9.35859 9.52049 8.88395C9.61188 8.83974 9.75504 8.80076 9.89575 8.79849C10.04 8.79617 10.1152 8.832 10.1452 8.85835C10.5206 9.18751 11.1025 9.76857 11.4945 10.2651C11.6971 10.5216 11.9418 10.8475 12.1458 11.1306C12.2478 11.2722 12.3377 11.4006 12.4062 11.5027C12.4405 11.5539 12.4679 11.5962 12.4881 11.6288C12.5019 11.6512 12.5093 11.6643 12.5124 11.6699C12.5141 11.6756 12.5218 11.6998 12.5286 11.7439C12.5371 11.7994 12.5411 11.8677 12.5354 11.9391C12.5235 12.0851 12.4755 12.2024 12.3892 12.2815C12.0962 12.5498 11.699 12.7982 11.5432 12.8845ZM16.2766 7.26613C16.2769 7.26585 16.2772 7.26557 16.2775 7.26527C16.2847 7.25852 16.2994 7.25 16.3226 7.25C20.3145 7.25 23.4984 10.2878 23.5 13.973C23.4994 13.9739 23.4983 13.9751 23.4967 13.9767C23.4895 13.9834 23.4747 13.9919 23.4516 13.9919C23.4285 13.9919 23.4137 13.9834 23.4065 13.9767C23.4049 13.9751 23.4039 13.9739 23.4032 13.973C23.4016 10.2495 20.2032 7.28226 16.3226 7.28226C16.2994 7.28226 16.2847 7.27374 16.2775 7.26699C16.2772 7.26669 16.2769 7.2664 16.2766 7.26613ZM16.2775 11.396C16.2772 11.3957 16.2769 11.3954 16.2766 11.3952C16.2769 11.3949 16.2772 11.3946 16.2775 11.3943C16.2847 11.3876 16.2994 11.379 16.3226 11.379C17.8916 11.379 19.1113 12.5682 19.1129 13.973C19.1123 13.9739 19.1112 13.9751 19.1096 13.9767C19.1024 13.9834 19.0877 13.9919 19.0645 13.9919C19.0414 13.9919 19.0266 13.9834 19.0194 13.9767C19.0178 13.9751 19.0168 13.9739 19.0161 13.973C19.0145 12.5299 17.7803 11.4113 16.3226 11.4113C16.2994 11.4113 16.2847 11.4028 16.2775 11.396ZM16.2775 9.3315C16.2772 9.33121 16.2769 9.33092 16.2766 9.33065C16.2769 9.33037 16.2772 9.33008 16.2775 9.32979C16.2847 9.32304 16.2994 9.31452 16.3226 9.31452C19.1031 9.31452 21.3048 11.428 21.3065 13.973C21.3058 13.9739 21.3048 13.9751 21.3032 13.9767C21.296 13.9834 21.2812 13.9919 21.2581 13.9919C21.2349 13.9919 21.2201 13.9834 21.213 13.9767C21.2114 13.9751 21.2103 13.9739 21.2097 13.973C21.2081 11.3897 18.9917 9.34677 16.3226 9.34677C16.2994 9.34677 16.2847 9.33825 16.2775 9.3315Z" fill="white" stroke="white" stroke-linecap="round"/>
</svg>
