<svg width="40" height="41" viewBox="0 0 40 41" fill="none" xmlns="http://www.w3.org/2000/svg">
<g clip-path="url(#clip0_2671_236)">
<path d="M11.8098 12.196L7.39101 9.36475C7.30193 9.31015 7.22638 9.23608 7.17003 9.14809C7.11368 9.0601 7.078 8.96049 7.06567 8.85674C7.05334 8.75299 7.06468 8.64779 7.09884 8.54905C7.13299 8.4503 7.18908 8.36058 7.26289 8.28663L8.92226 6.62725C9.24101 6.3085 9.77851 6.37725 10.0066 6.76788L12.7691 11.2585C13.1316 11.8773 12.4223 12.571 11.8098 12.196ZM7.94726 25.8147L2.81601 25.9179C2.71168 25.9201 2.60921 25.946 2.5163 25.9935C2.4234 26.0411 2.34248 26.1091 2.27963 26.1924C2.21677 26.2757 2.17361 26.3722 2.15339 26.4745C2.13317 26.5769 2.13642 26.6826 2.16289 26.7835L2.75976 29.0522C2.87539 29.4897 3.37226 29.6991 3.76601 29.4804L8.30039 27.1085C8.92539 26.7554 8.66601 25.7991 7.94726 25.8147ZM19.866 34.5304L18.741 39.5272C18.6379 39.9616 18.966 40.3804 19.4129 40.3804H21.7598C22.2129 40.3804 22.541 39.9523 22.4285 39.5148L21.2066 34.5179C21.0254 33.821 20.0348 33.8304 19.866 34.5304ZM29.0223 12.196L33.441 9.36475C33.8223 9.13038 33.8848 8.60225 33.5691 8.28663L31.9098 6.62725C31.835 6.55276 31.7441 6.49639 31.6441 6.46246C31.5442 6.42853 31.4378 6.41795 31.3331 6.43153C31.2284 6.4451 31.1282 6.48248 31.0402 6.54078C30.9522 6.59908 30.8787 6.67677 30.8254 6.76788L28.0629 11.2585C27.7004 11.8773 28.4098 12.571 29.0223 12.196ZM32.8848 25.8147L38.016 25.9179C38.1203 25.9201 38.2228 25.946 38.3157 25.9935C38.4086 26.0411 38.4895 26.1091 38.5524 26.1924C38.6152 26.2757 38.6584 26.3722 38.6786 26.4745C38.6988 26.5769 38.6956 26.6826 38.6691 26.7835L38.0723 29.0522C38.0452 29.1542 37.9953 29.2486 37.9263 29.3284C37.8572 29.4081 37.7709 29.471 37.6738 29.5123C37.5767 29.5536 37.4715 29.5722 37.3662 29.5667C37.2609 29.5611 37.1582 29.5316 37.066 29.4804L32.5316 27.1085C31.9066 26.7554 32.166 25.7991 32.8848 25.8147Z" fill="#FFC107"/>
<path d="M21.6818 2.95176L25.888 12.5455C26.0463 12.9066 26.2985 13.2185 26.6184 13.4488C26.9383 13.6792 27.3142 13.8194 27.7068 13.8549L37.9537 14.7736C39.113 14.9424 39.5755 16.3643 38.7349 17.183L31.0162 23.6674C30.3912 24.1924 30.1068 25.0174 30.2787 25.8143L32.5224 36.3174C32.7193 37.4705 31.5099 38.3518 30.4724 37.8049L21.5287 32.5674C21.1913 32.3694 20.8073 32.265 20.4162 32.265C20.025 32.265 19.641 32.3694 19.3037 32.5674L10.3599 37.8018C9.32554 38.3455 8.11304 37.4674 8.30992 36.3143L10.5537 25.8111C10.7224 25.0143 10.4412 24.1893 9.81617 23.6643L2.09429 17.1861C1.25679 16.3705 1.71929 14.9455 2.87554 14.7768L13.1224 13.858C13.515 13.8225 13.8909 13.6823 14.2108 13.452C14.5307 13.2217 14.783 12.9097 14.9412 12.5486L19.1474 2.95488C19.6693 1.90488 21.163 1.90488 21.6818 2.95176Z" fill="#FDD835"/>
<path d="M21.3764 13.1199L20.6639 6.05117C20.6357 5.65742 20.5545 4.98242 21.1857 4.98242C21.6857 4.98242 21.9576 6.02305 21.9576 6.02305L24.0951 11.698C24.9014 13.8574 24.5701 14.598 23.792 15.0355C22.8982 15.5355 21.5795 15.1449 21.3764 13.1199Z" fill="#FFFF8D"/>
<path d="M30.1918 23.0389L36.323 18.2545C36.6261 18.0014 37.173 17.5982 36.7355 17.1389C36.3886 16.7764 35.4511 17.2982 35.4511 17.2982L30.0855 19.3951C28.4855 19.9482 27.423 20.767 27.3293 21.7982C27.2074 23.1732 28.4418 24.2326 30.1918 23.0389Z" fill="#F4B400"/>
</g>
<defs>
<clipPath id="clip0_2671_236">
<rect width="40" height="40" fill="white" transform="translate(0 0.5)"/>
</clipPath>
</defs>
</svg>
