<svg width="16" height="16" viewBox="0 0 16 16" fill="none" xmlns="http://www.w3.org/2000/svg">
<path d="M8.67271 0.980899L10.3552 4.8184C10.4185 4.96282 10.5194 5.08761 10.6474 5.17973C10.7753 5.27186 10.9257 5.32795 11.0827 5.34215L15.1815 5.70965C15.6452 5.77715 15.8302 6.3459 15.494 6.6734L12.4065 9.26715C12.1565 9.47715 12.0427 9.80715 12.1115 10.1259L13.009 14.3271C13.0877 14.7884 12.604 15.1409 12.189 14.9221L8.61146 12.8271C8.47653 12.748 8.32292 12.7062 8.16646 12.7062C8.01001 12.7062 7.85639 12.748 7.72146 12.8271L4.14396 14.9209C3.73021 15.1384 3.24521 14.7871 3.32396 14.3259L4.22146 10.1246C4.28896 9.8059 4.17646 9.4759 3.92646 9.2659L0.837712 6.67465C0.502712 6.3484 0.687712 5.7784 1.15021 5.7109L5.24896 5.3434C5.406 5.3292 5.55635 5.27311 5.68432 5.18098C5.81228 5.08886 5.91318 4.96407 5.97646 4.81965L7.65896 0.982149C7.86771 0.562149 8.46521 0.562149 8.67271 0.980899Z" fill="#FDD835"/>
<path d="M8.55055 5.04797L8.26555 2.22047C8.2543 2.06297 8.2218 1.79297 8.4743 1.79297C8.6743 1.79297 8.78305 2.20922 8.78305 2.20922L9.63805 4.47922C9.96055 5.34297 9.82805 5.63922 9.5168 5.81422C9.1593 6.01422 8.6318 5.85797 8.55055 5.04797Z" fill="#FFFF8D"/>
<path d="M12.0767 9.01574L14.5292 7.10199C14.6504 7.00074 14.8692 6.83949 14.6942 6.65574C14.5554 6.51074 14.1804 6.71949 14.1804 6.71949L12.0342 7.55824C11.3942 7.77949 10.9692 8.10699 10.9317 8.51949C10.8829 9.06949 11.3767 9.49324 12.0767 9.01574Z" fill="#F4B400"/>
</svg>
