<svg width="14" height="14" viewBox="0 0 14 14" fill="none" xmlns="http://www.w3.org/2000/svg">
    <path fill-rule="evenodd" clip-rule="evenodd"
        d="M13.6673 7.00065C13.6673 10.6825 10.6825 13.6673 7.00065 13.6673C3.31875 13.6673 0.333984 10.6825 0.333984 7.00065C0.333984 3.31875 3.31875 0.333984 7.00065 0.333984C10.6825 0.333984 13.6673 3.31875 13.6673 7.00065ZM7.00065 6.33398C7.36884 6.33398 7.66732 6.63246 7.66732 7.00065V10.3346C7.66732 10.7028 7.36884 11.0012 7.00065 11.0012C6.63246 11.0012 6.33398 10.7028 6.33398 10.3346V7.00065C6.33398 6.63246 6.63246 6.33398 7.00065 6.33398ZM7.00065 5.00065C7.36884 5.00065 7.66732 4.70217 7.66732 4.33398C7.66732 3.96579 7.36884 3.66732 7.00065 3.66732C6.63246 3.66732 6.33398 3.96579 6.33398 4.33398C6.33398 4.70217 6.63246 5.00065 7.00065 5.00065Z"
        fill="#8E8E95" />
</svg>