<svg width="25" height="24" viewBox="0 0 25 24" fill="none" xmlns="http://www.w3.org/2000/svg">
<path fill-rule="evenodd" clip-rule="evenodd" d="M18.334 4H6.33398C5.7817 4 5.33398 4.44772 5.33398 5V19C5.33398 19.5523 5.7817 20 6.33398 20H18.334C18.8863 20 19.334 19.5523 19.334 19V5C19.334 4.44772 18.8863 4 18.334 4ZM6.33398 2C4.67713 2 3.33398 3.34315 3.33398 5V19C3.33398 20.6569 4.67713 22 6.33398 22H18.334C19.9908 22 21.334 20.6569 21.334 19V5C21.334 3.34315 19.9908 2 18.334 2H6.33398Z" fill="#212121"/>
<path d="M13.334 18C13.334 18.5523 12.8863 19 12.334 19C11.7817 19 11.334 18.5523 11.334 18C11.334 17.4477 11.7817 17 12.334 17C12.8863 17 13.334 17.4477 13.334 18Z" fill="#212121"/>
</svg>
