<svg width="24" height="25" viewBox="0 0 24 25" fill="none" xmlns="http://www.w3.org/2000/svg">
<path d="M11.949 15.2775C15.3802 15.2775 18.31 15.8215 18.31 17.9983C18.31 20.1741 15.399 20.7379 11.949 20.7379C8.51785 20.7379 5.58809 20.1939 5.58809 18.0181C5.58809 15.8413 8.49904 15.2775 11.949 15.2775ZM17.4351 13.9668C18.7468 13.9425 20.1571 14.1226 20.6782 14.2505C21.7823 14.4675 22.5084 14.9106 22.8093 15.5546C23.0636 16.0832 23.0636 16.6965 22.8093 17.2243C22.349 18.2231 20.8654 18.5437 20.2887 18.6265C20.1696 18.6445 20.0738 18.541 20.0864 18.4212C20.3809 15.6536 18.0377 14.3414 17.4315 14.0397C17.4055 14.0262 17.4002 14.0055 17.4028 13.9929C17.4046 13.9839 17.4154 13.9695 17.4351 13.9668ZM6.5656 13.9672C6.5853 13.9699 6.59515 13.9843 6.59694 13.9924C6.59962 14.0059 6.59425 14.0257 6.56918 14.0401C5.9621 14.3418 3.61883 15.654 3.91342 18.4207C3.92595 18.5413 3.83104 18.644 3.71195 18.6269C3.13531 18.544 1.65163 18.2234 1.19139 17.2246C0.936203 16.696 0.936203 16.0836 1.19139 15.5549C1.49225 14.911 2.21752 14.4679 3.32156 14.2499C3.84358 14.123 5.25294 13.9428 6.5656 13.9672ZM11.949 4.73792C14.2851 4.73792 16.1583 6.62018 16.1583 8.97077C16.1583 11.3204 14.2851 13.2045 11.949 13.2045C9.61292 13.2045 7.73974 11.3204 7.73974 8.97077C7.73974 6.62018 9.61292 4.73792 11.949 4.73792ZM17.6634 5.44381C19.9198 5.44381 21.6918 7.57915 21.0883 9.95765C20.6809 11.5589 19.2062 12.6225 17.5631 12.5793C17.3984 12.5748 17.2363 12.5595 17.0796 12.5325C16.9659 12.5127 16.9086 12.3839 16.973 12.2884C17.5998 11.3608 17.9571 10.2449 17.9571 9.04714C17.9571 7.7971 17.5667 6.63171 16.8889 5.67617C16.8674 5.64645 16.8513 5.60052 16.8728 5.56629C16.8907 5.53837 16.9238 5.52396 16.9551 5.51676C17.1835 5.46993 17.4181 5.44381 17.6634 5.44381ZM6.33593 5.44372C6.58127 5.44372 6.81586 5.46984 7.04509 5.51667C7.07553 5.52387 7.10956 5.53918 7.12746 5.5662C7.14806 5.60043 7.13284 5.64636 7.11135 5.67608C6.43353 6.63162 6.04313 7.79701 6.04313 9.04705C6.04313 10.2449 6.4004 11.3607 7.02718 12.2883C7.09165 12.3838 7.03434 12.5126 6.92063 12.5324C6.76304 12.5603 6.60186 12.5747 6.43711 12.5792C4.79404 12.6225 3.31932 11.5588 2.91191 9.95756C2.30751 7.57906 4.07951 5.44372 6.33593 5.44372Z" fill="url(#paint0_linear_10207_2571)"/>
<defs>
<linearGradient id="paint0_linear_10207_2571" x1="23" y1="12.7379" x2="1" y2="12.7379" gradientUnits="userSpaceOnUse">
<stop stop-color="#7A4BFF"/>
<stop offset="1" stop-color="#FF5F4A"/>
</linearGradient>
</defs>
</svg>
