<svg width="103" height="58" viewBox="0 0 103 58" fill="none" xmlns="http://www.w3.org/2000/svg">
    <path d="M15.7283 27.0125H19.6368L22.8222 57.8237H12.4927L15.7283 27.0125Z" fill="#93642D" />
    <path d="M15.7004 27.0125H19.5834L21.2716 43.5961H14.0122L15.7004 27.0125Z" fill="#714D22" />
    <path fill-rule="evenodd" clip-rule="evenodd"
        d="M21.015 12.873C21.9408 12.3529 23.0089 12.0562 24.1464 12.0562C27.6821 12.0562 30.5483 14.9224 30.5483 18.4581V19.0837C30.5483 19.2989 30.5377 19.5116 30.517 19.7213C33.1775 20.4983 35.1211 22.9558 35.1211 25.8674V26.4929C35.1211 29.927 32.4173 32.7295 29.0225 32.8878C29.2011 34.4912 28.7599 36.1617 27.6621 37.4989L27.3666 37.8587C25.5049 40.1264 22.3676 40.6888 19.8836 39.3684C19.7796 39.5213 19.668 39.6708 19.5485 39.8163L19.253 40.1761C17.1118 42.7842 13.2833 43.1366 10.702 40.9632C8.72974 39.3026 8.05608 36.6481 8.80295 34.3246C8.05736 34.6333 7.23998 34.8036 6.38283 34.8036C2.88601 34.8036 0.0512695 31.9688 0.0512695 28.472V27.8533C0.0512695 24.8148 2.19168 22.2762 5.04701 21.6629C5.03313 21.4918 5.02605 21.3188 5.02605 21.1441V20.5254C5.02605 17.1055 7.73744 14.3189 11.1278 14.1979C11.5845 11.7622 13.7223 9.91895 16.2906 9.91895C18.3672 9.91895 20.1624 11.124 21.015 12.873Z"
        fill="#66A865" />
    <path fill-rule="evenodd" clip-rule="evenodd"
        d="M11.3912 13.7553C12.2763 11.5901 14.7426 10.568 16.8998 11.4724C19.057 12.3768 20.0882 14.8652 19.2031 17.0303L19.0589 17.3831C19.0031 17.5194 18.9412 17.6512 18.8734 17.7783C20.303 18.9344 20.8741 20.9372 20.1451 22.7206L20.0008 23.0734C19.1157 25.2386 16.6494 26.2607 14.4922 25.3563C13.3256 24.8672 12.4883 23.9149 12.1053 22.8009C11.0569 23.3147 9.79988 23.3891 8.63328 22.9C6.47607 21.9956 5.44484 19.5072 6.32995 17.3421L6.47417 16.9893C7.24345 15.1075 9.20712 14.0891 11.1242 14.4486C11.16 14.3344 11.2009 14.2208 11.2469 14.1081L11.3912 13.7553Z"
        fill="#83C082" />
    <path fill-rule="evenodd" clip-rule="evenodd"
        d="M0.951946 24.7711C0.348538 25.7408 0 26.8855 0 28.1117V28.7303C0 32.2272 2.83474 35.0619 6.33156 35.0619C7.18871 35.0619 8.00609 34.8916 8.75168 34.5829C8.00482 36.9064 8.67848 39.561 10.6507 41.2215C13.2321 43.395 17.0605 43.0426 19.2018 40.4345L19.4972 40.0746C19.6167 39.9291 19.7284 39.7796 19.8323 39.6267C22.3164 40.9471 25.4536 40.3848 27.3153 38.1171L27.6108 37.7572C28.7085 36.4201 29.1497 34.7498 28.9712 33.1464C32.3661 32.9881 35.0698 30.1856 35.0698 26.7516V26.126C35.0698 25.4856 34.9758 24.8671 34.8008 24.2837C33.7241 26.035 31.828 27.2285 29.6465 27.3303C29.825 28.9336 29.3838 30.604 28.2861 31.9411L27.9906 32.3009C26.1289 34.5686 22.9916 35.131 20.5076 33.8106C20.4037 33.9635 20.292 34.1129 20.1725 34.2584L19.8771 34.6183C17.7358 37.2264 13.9074 37.5788 11.326 35.4054C9.35377 33.7448 8.68011 31.0903 9.42697 28.7668C8.68138 29.0754 7.864 29.2458 7.00684 29.2458C4.15617 29.2458 1.7455 27.3618 0.951946 24.7711Z"
        fill="#458244" />
    <rect x="86.4458" y="31.2288" width="5.55412" height="26.5159" fill="#93642D" />
    <rect x="86.4458" y="30.999" width="5.40233" height="20.1739" fill="#714D22" />
    <path fill-rule="evenodd" clip-rule="evenodd"
        d="M81.7747 29.1467C81.7747 24.8296 85.2744 21.3298 89.5916 21.3298C93.9087 21.3298 97.4085 24.8296 97.4085 29.1467V29.9106C97.4085 30.1733 97.3955 30.4331 97.3702 30.6892C100.619 31.6379 102.992 34.6386 102.992 38.1937V38.9575C102.992 43.2747 99.4922 46.7744 95.1751 46.7744C92.8404 46.7744 90.7447 45.7509 89.3124 44.128C87.8801 45.7509 85.7844 46.7744 83.4497 46.7744C79.1326 46.7744 75.6328 43.2747 75.6328 38.9575V38.1937C75.6328 34.4423 78.2754 31.3081 81.8005 30.5511C81.7834 30.3398 81.7747 30.1262 81.7747 29.9106V29.1467Z"
        fill="#66A865" />
    <path fill-rule="evenodd" clip-rule="evenodd"
        d="M82.631 15.6648C82.631 11.9233 85.6642 8.89014 89.4057 8.89014C93.1472 8.89014 96.1803 11.9233 96.1803 15.6648V16.3268C96.1803 16.5545 96.1691 16.7796 96.1472 17.0016C98.9626 17.8237 101.019 20.4244 101.019 23.5055V24.1674C101.019 27.909 97.9863 30.9421 94.2447 30.9421C92.2213 30.9421 90.4051 30.055 89.1638 28.6486C87.9224 30.055 86.1062 30.9421 84.0828 30.9421C80.3412 30.9421 77.3081 27.909 77.3081 24.1674V23.5055C77.3081 20.2543 79.5983 17.538 82.6535 16.8819C82.6386 16.6988 82.631 16.5137 82.631 16.3268V15.6648Z"
        fill="#83C082" />
    <path fill-rule="evenodd" clip-rule="evenodd"
        d="M75.8386 36.4695C76.6347 39.9422 79.7439 42.5325 83.458 42.5325C85.7927 42.5325 87.8884 41.509 89.3207 39.8862C90.753 41.509 92.8487 42.5325 95.1834 42.5325C98.8975 42.5325 102.007 39.9422 102.803 36.4695C102.932 37.0333 103 37.6204 103 38.2234V38.9872C103 43.3043 99.5005 46.8041 95.1834 46.8041C92.8487 46.8041 90.753 45.7806 89.3207 44.1577C87.8884 45.7806 85.7927 46.8041 83.458 46.8041C79.1409 46.8041 75.6411 43.3043 75.6411 38.9872V38.2234C75.6411 37.6203 75.7094 37.0333 75.8386 36.4695Z"
        fill="#458244" />
    <path d="M53.5447 27.1887H57.4532L60.6386 57.9999H50.3091L53.5447 27.1887Z" fill="#93642D" />
    <path d="M53.5168 27.1887H57.3998L59.088 43.7723H51.8286L53.5168 27.1887Z" fill="#714D22" />
    <path
        d="M67.2141 40.9578C71.1105 41.3555 68.529 36.6103 66.6455 32.3908C64.7621 28.1712 60.6872 20.2336 54.4326 20.2336C49.3073 20.2336 39.5953 38.8585 41.8697 40.6108C43.6892 42.0127 47.9603 40.9127 50.8033 38.706C51.6562 40.6531 52.944 41.5644 54.991 41.7202C57.0379 41.876 58.2318 40.4584 59.8428 38.706C60.4114 39.3551 63.8149 40.6108 67.2141 40.9578Z"
        fill="#83C082" />
    <path fill-rule="evenodd" clip-rule="evenodd"
        d="M66.4791 31.9186C64.1305 27.2375 60.0706 21.0339 54.3071 21.0339C51.3426 21.0339 46.9659 26.7687 43.8936 32.4196C45.9846 32.2054 48.4669 31.1864 50.364 29.714C51.2906 31.8294 52.8119 34.0291 55.0359 34.1983C57.2598 34.3675 58.9188 32.1605 60.1851 29.714C60.7067 30.3093 63.4233 31.3744 66.4791 31.9186Z"
        fill="#458244" />
    <path
        d="M67.2141 30.2361C70.9431 31.4473 68.529 25.8887 66.6455 21.6691C64.7621 17.4496 60.6872 9.51196 54.4326 9.51196C49.3073 9.51197 39.5953 28.1368 41.8697 29.8891C43.6892 31.291 47.9603 27.855 50.8033 25.6484C51.6562 27.5954 52.944 30.8427 54.991 30.9985C57.0379 31.1543 58.2318 27.4007 59.8428 25.6484C60.4114 26.2974 63.8149 29.1321 67.2141 30.2361Z"
        fill="#66A865" />
    <path fill-rule="evenodd" clip-rule="evenodd"
        d="M64.7212 17.3322C65.6237 19.2784 66.2843 20.7029 66.1783 20.6922C63.2894 20.3983 59.9399 19.1067 59.4567 18.5571C58.4661 20.4642 56.9444 21.6789 55.2048 21.547C53.4651 21.4151 51.8779 19.9477 51.153 18.2986C48.7369 20.1676 44.2541 20.8631 44.569 20.3502C45.1074 19.4731 45.6106 18.5039 46.0896 17.485C48.9708 12.8117 52.4799 8.72461 54.9825 8.72461C58.0061 8.72461 60.5609 10.432 62.6456 12.7312C62.753 13.0053 62.8609 13.2666 62.9707 13.5116C63.5663 14.8416 64.1863 16.1786 64.7212 17.3322Z"
        fill="#458244" />
    <path
        d="M66.0097 17.6148C68.7109 18.555 66.6951 13.7048 65.1656 10.2633C63.636 6.82176 60.6093 0.370123 55.5427 0.00537396C50.8046 -0.335722 42.2157 15.6726 44.0627 17.1019C45.5404 18.2453 49.4535 15.9911 51.7623 14.1914C52.4549 15.7794 53.5007 18.4279 55.1631 18.555C56.8254 18.682 57.795 15.6206 59.1033 14.1914C59.565 14.7207 63.6011 16.7764 66.0097 17.6148Z"
        fill="#83C082" />
</svg>
    