<svg width="24" height="24" viewBox="0 0 24 24" fill="none" xmlns="http://www.w3.org/2000/svg">
    <path d="M10.5922 8.97949H12.5285L14.1065 23.9998H8.98926L10.5922 8.97949Z" fill="#93642D" />
    <path d="M10.5783 8.97949H12.5019L13.3383 17.0639H9.74194L10.5783 8.97949Z" fill="#714D22" />
    <path fill-rule="evenodd" clip-rule="evenodd"
        d="M13.2045 2.09773C13.6646 1.8378 14.1961 1.68946 14.7622 1.68946C16.5138 1.68946 17.9337 3.1094 17.9337 4.861V5.06467C17.9337 5.18717 17.9268 5.30804 17.9133 5.42692C19.2339 5.81021 20.1991 7.02895 20.1991 8.47314V8.67682C20.1991 10.3786 18.8589 11.7673 17.1763 11.8449C17.2639 12.628 17.0439 13.4442 16.4984 14.0981L16.3633 14.26C15.4381 15.3688 13.8814 15.6457 12.6502 15.0023C12.5971 15.0795 12.54 15.1549 12.4788 15.2283L12.3438 15.3902C11.2798 16.6653 9.38068 16.8402 8.10186 15.7806C7.12463 14.971 6.79243 13.6748 7.16483 12.5395C6.79445 12.6934 6.38821 12.7783 5.96213 12.7783C4.22978 12.7783 2.82544 11.374 2.82544 9.64163V9.44019C2.82544 7.93342 3.88786 6.67479 5.30446 6.37256C5.29488 6.27273 5.28998 6.17153 5.28998 6.06918V5.86774C5.28998 4.17127 6.63676 2.78936 8.31947 2.73285C8.55921 1.54327 9.6102 0.647461 10.8704 0.647461C11.894 0.647461 12.7795 1.23841 13.2045 2.09773Z"
        fill="#66A865" />
    <path fill-rule="evenodd" clip-rule="evenodd"
        d="M8.43459 2.53843C8.8781 1.47083 10.104 0.962775 11.1727 1.40365C12.2414 1.84453 12.7482 3.0674 12.3047 4.135L12.2514 4.26322C12.2206 4.33732 12.1861 4.40873 12.148 4.47731C12.8566 5.04333 13.137 6.02906 12.7713 6.90926L12.718 7.03748C12.2745 8.10508 11.0486 8.61314 9.97995 8.17226C9.40195 7.93381 8.98831 7.46662 8.80049 6.91897C8.27922 7.17396 7.65535 7.21304 7.07744 6.97463C6.00875 6.53375 5.50194 5.31089 5.94546 4.24329L5.99872 4.11507C6.38445 3.18656 7.36196 2.6813 8.31316 2.85543C8.33268 2.7921 8.35538 2.72911 8.38132 2.66665L8.43459 2.53843Z"
        fill="#83C082" />
    <path fill-rule="evenodd" clip-rule="evenodd"
        d="M3.28422 7.89141C2.97771 8.37594 2.80029 8.95025 2.80029 9.56599V9.76743C2.80029 11.4998 4.20464 12.9041 5.93698 12.9041C6.36305 12.9041 6.76928 12.8192 7.13966 12.6653C6.7673 13.8006 7.09951 15.0967 8.07671 15.9064C9.35554 16.9659 11.2547 16.7911 12.3186 15.5159L12.4537 15.354C12.5149 15.2806 12.572 15.2052 12.625 15.128C13.8562 15.7714 15.413 15.4946 16.3381 14.3857L16.4732 14.2238C17.0188 13.5698 17.2388 12.7534 17.1511 11.9703C18.8338 11.8927 20.1741 10.5039 20.1741 8.80215V8.59847C20.1741 8.26642 20.1231 7.9463 20.0284 7.64551C19.4926 8.50267 18.5587 9.08544 17.4856 9.1349C17.5735 9.91829 17.3536 10.7351 16.8078 11.3893L16.6727 11.5512C15.7475 12.66 14.1908 12.9369 12.9596 12.2935C12.9065 12.3707 12.8494 12.4461 12.7882 12.5195L12.6532 12.6813C11.5893 13.9565 9.69009 14.1313 8.41126 13.0718C7.43383 12.262 7.1017 10.9655 7.47447 9.82994C7.10403 9.9839 6.69771 10.0689 6.27153 10.0689C4.87374 10.0689 3.6895 9.15459 3.28422 7.89141Z"
        fill="#458244" />
</svg>
    