<?xml version="1.0" encoding="UTF-8" standalone="no"?>
<!-- Created with Inkscape (http://www.inkscape.org/) -->

<svg
   width="32"
   height="32"
   viewBox="0 0 8.4666662 8.4666662"
   version="1.1"
   id="svg5"
   xml:space="preserve"
   xmlns="http://www.w3.org/2000/svg"
   xmlns:svg="http://www.w3.org/2000/svg"><defs
     id="defs2" /><g
     id="layer1"><path
       style="fill:#2ca089;stroke:#3b7844;stroke-width:0;stroke-opacity:0.473684"
       d="m 4.2292355,0.53040551 c -0.2000433,0.004194 -0.4029983,0.002355 -0.5989754,0.0451093 -0.078959,0.001799 -0.152463,0.0344437 -0.2308275,0.0416425 C 3.2684837,0.65030303 3.1388058,0.6916238 3.0098454,0.72911394 2.8254112,0.79901288 2.6413554,0.87919804 2.4658819,0.97173685 2.3860135,1.0187271 2.3004419,1.0598637 2.2245737,1.1158615 1.9689082,1.2810279 1.734245,1.4768084 1.5263142,1.6991068 1.336898,1.897634 1.1757091,2.122415 1.0352706,2.3575775 0.92865385,2.5435147 0.83566498,2.7388256 0.76084822,2.9391985 c -0.010795,0.038019 -0.0348774,0.071789 -0.0380762,0.1130529 -0.0382916,0.1032819 -0.0709755,0.2112639 -0.0907172,0.3178582 -0.0250058,0.066276 -0.0248073,0.1398198 -0.0476798,0.207396 -0.0502812,0.3260545 -0.0729594,0.6582648 -0.0391559,0.9872636 0.0118269,0.1703694 0.0440076,0.3389098 0.080201,0.5054531 0.0196956,0.066862 0.0299781,0.1360255 0.0551336,0.2015366 0.0117316,0.052269 0.0258022,0.1054219 0.0492715,0.1526442 0.010705,0.073424 0.0583787,0.1351758 0.071928,0.2076349 0.11116363,0.2513489 0.23736958,0.4965597 0.39674798,0.7211631 0.3447415,0.4947653 0.8133776,0.9044871 1.3525585,1.1753072 0.1433023,0.074518 0.2930157,0.1374741 0.4439618,0.1929702 0.038033,0.013258 0.076322,0.01723 0.1114984,0.038076 0.3780618,0.1162526 0.773172,0.1751502 1.16854,0.1780223 0.1515893,-0.00657 0.301036,-0.024762 0.4511167,-0.034565 0.1364138,-0.029426 0.2767152,-0.041121 0.4102888,-0.08199 0.1277861,-0.02921 0.2543003,-0.072019 0.3761978,-0.1164 C 5.7506827,7.6224121 5.9774947,7.5050996 6.1929644,7.3741374 6.636676,7.0998394 7.0191452,6.727912 7.3104464,6.2955498 7.5038838,5.9997189 7.664751,5.679255 7.7665225,5.3416758 7.7935195,5.2855466 7.7912107,5.2220267 7.8204784,5.1679128 7.850316,5.0329412 7.88627,4.8980981 7.897587,4.7604135 7.9363754,4.5977024 7.9290475,4.426953 7.9369157,4.2605515 7.9418793,4.0148621 7.9147542,3.7689187 7.8729799,3.5271956 7.8524192,3.4549562 7.849858,3.3776013 7.8214158,3.3064024 7.7915131,3.1889938 7.7531205,3.0742824 7.7167033,2.9595529 7.4579069,2.2644291 6.9980465,1.638857 6.3867151,1.214301 6.1401507,1.0276745 5.8588267,0.89374536 5.5760638,0.77219128 5.4184558,0.7164605 5.2569697,0.66191665 5.0928905,0.62343353 4.8217447,0.56220154 4.5448979,0.522028 4.2662157,0.53022612 c -0.012327,1.376e-5 -0.024654,1.2515e-4 -0.03698,1.823e-4 z m -0.5925,2.32437219 c 0.3339981,0.00423 0.6710796,-0.00897 1.0031076,0.011557 0.3081951,0.048956 0.5782117,0.3014689 0.6396019,0.6105517 0.032203,0.18658 0.013769,0.3780623 0.02032,0.5665973 C 5.295595,4.3823787 5.310658,4.7242013 5.28688,5.0607836 5.2412635,5.3915072 4.9545462,5.6627249 4.6311545,5.7102031 4.1366112,5.7278084 3.6413863,5.7187729 3.1465674,5.7207652 2.92058,5.7097665 2.6835266,5.7492132 2.4677533,5.6630601 2.2227103,5.5688693 2.037658,5.3393374 1.9867318,5.0835711 1.9707536,4.6569045 1.9814243,4.2295178 1.9792044,3.8025742 1.9838373,3.6293544 1.9643878,3.4474618 2.0577441,3.2918847 2.1523538,3.11638 2.3031515,2.9649883 2.4970834,2.9047683 2.6541155,2.8357742 2.8269762,2.8656592 2.9940048,2.8562516 3.2082457,2.8549287 3.4224907,2.8548494 3.636735,2.85477 Z m 2.6754452,0.4301141 c 0.1390464,2.003e-4 0.2688478,0.089762 0.3191838,0.2192729 0.042088,0.080312 0.011157,0.1777944 0.021069,0.2656726 -0.00308,0.4065244 0.012618,0.8146854 -0.00886,1.2201035 C 6.6401645,5.1588723 6.4774333,5.3001965 6.309892,5.285464 6.1772284,5.287078 6.0690143,5.1927418 5.9546421,5.139292 5.8356013,5.0704657 5.7105856,5.0093631 5.5924614,4.9405923 5.5553358,4.8403325 5.5760916,4.7275284 5.569051,4.6224351 5.573581,4.3140873 5.560791,4.0052268 5.575921,3.6971931 5.573301,3.6500771 5.604365,3.6148271 5.649383,3.6041851 5.8472008,3.5052301 6.0317096,3.3780381 6.2383563,3.2977635 c 0.023903,-0.00747 0.048707,-0.012586 0.073821,-0.012872 z"
       id="path317" /></g></svg>
