<svg width="24" height="24" viewBox="0 0 24 24" fill="none" xmlns="http://www.w3.org/2000/svg">
<path d="M17.9992 15.168C17.949 18.4511 15.2225 21.0618 11.9092 20.9989C8.59586 20.9359 5.95051 18.223 6.0007 14.9399C6.08014 9.7492 12.1847 3 12.1847 3C12.1847 3 18.0786 9.9773 17.9992 15.168Z" fill="#2EA3F2"/>
<path d="M11.0236 7.08089C11.0148 7.01968 10.9362 6.98286 10.8813 6.99793C10.5492 7.0904 10.334 7.54139 10.1501 7.80952C9.9045 8.16923 9.67211 8.53429 9.45111 8.90907C9.23174 9.28288 9.01513 9.65944 8.81463 10.0435C8.64444 10.3699 8.29452 10.829 8.33506 11.2055C8.35419 11.3859 8.54087 11.5513 8.7247 11.4354C9.06118 11.2233 9.19666 10.7235 9.37528 10.38C9.5748 9.99435 9.77302 9.60839 9.98117 9.22696C10.1893 8.84554 10.3979 8.46493 10.6079 8.08464C10.7711 7.7887 11.0729 7.43072 11.0236 7.08089Z" fill="white"/>
<path d="M8.14047 11.9504C7.95427 11.8963 7.79904 12.0083 7.73232 12.1727C7.69458 12.2655 7.65686 12.3582 7.61928 12.4504C7.55476 12.5673 7.50309 12.6909 7.4672 12.8232C7.42291 12.9891 7.5181 13.1693 7.6869 13.2184C7.87131 13.2714 8.01451 13.1605 8.08401 13.0016C8.1778 12.787 8.27176 12.5718 8.36572 12.3567C8.43619 12.1939 8.29577 11.9955 8.14047 11.9504Z" fill="white"/>
</svg>
