<svg width="24" height="25" viewBox="0 0 24 25" fill="none" xmlns="http://www.w3.org/2000/svg">
<path d="M9.19995 7.73792L8.99875 8.21696C8.67393 8.99034 8.59229 9.84429 8.76468 10.6652C9.02773 11.9178 10.0249 12.8852 11.2849 13.1102L11.3958 13.13C11.7954 13.2014 12.2045 13.2014 12.6041 13.13L12.715 13.1102C13.975 12.8852 14.9722 11.9178 15.2352 10.6652C15.4076 9.84429 15.326 8.99034 15.0012 8.21697L14.8 7.73792" stroke="#7ACB8B" stroke-width="1.5" stroke-linecap="round"/>
<path d="M20.2209 15.8809C19.6508 18.3883 17.7018 20.3583 15.2025 20.9631C13.102 21.4713 10.8983 21.4713 8.7979 20.9631C6.29861 20.3583 4.34961 18.3883 3.77943 15.8809C3.26999 13.6406 3.39389 11.3027 4.13727 9.12875L4.24771 8.80578C5.06566 6.41377 7.109 4.64805 9.59434 4.18558L10.2749 4.05893C11.4153 3.84673 12.5851 3.84673 13.7255 4.05893L14.406 4.18557C16.8914 4.64804 18.9347 6.41378 19.7527 8.8058L19.8631 9.12876C20.6065 11.3027 20.7304 13.6406 20.2209 15.8809Z" stroke="#7ACB8B" stroke-width="1.5"/>
</svg>
