<svg width="12" height="12" viewBox="0 0 12 12" fill="none" xmlns="http://www.w3.org/2000/svg">
<g clip-path="url(#clip0_2644_16112)">
<path fill-rule="evenodd" clip-rule="evenodd" d="M4.042 1.3C4.123 1.1175 4.3035 1 4.5035 1H8.492C8.867 1 9.1115 1.395 8.9435 1.731L7.809 4H9.488C9.938 4 10.163 4.544 9.845 4.862L3.8685 10.8385C3.4915 11.2155 2.8635 10.8275 3.0325 10.322L4.3065 6.5H2.5075C2.42337 6.5 2.34058 6.47898 2.26664 6.43885C2.1927 6.39872 2.12995 6.34076 2.0841 6.27022C2.03826 6.19968 2.01075 6.11881 2.0041 6.03495C1.99745 5.95108 2.01185 5.86688 2.046 5.79L4.042 1.3Z" fill="url(#paint0_linear_2644_16112)"/>
<path d="M3.38715 5.15715L4.68715 1.90715C4.72511 1.81224 4.81704 1.75 4.91927 1.75H5.38075C5.55761 1.75 5.67855 1.92863 5.61287 2.09285L4.31287 5.34285C4.2749 5.43776 4.18297 5.5 4.08075 5.5H3.61927C3.4424 5.5 3.32146 5.32137 3.38715 5.15715Z" fill="white"/>
</g>
<defs>
<linearGradient id="paint0_linear_2644_16112" x1="9.9939" y1="10.9895" x2="0.211763" y2="8.72053" gradientUnits="userSpaceOnUse">
<stop stop-color="#FB9400"/>
<stop offset="1" stop-color="#FFAB38"/>
</linearGradient>
<clipPath id="clip0_2644_16112">
<rect width="12" height="12" fill="white"/>
</clipPath>
</defs>
</svg>
