<svg width="18" height="24" viewBox="0 0 18 24" fill="none" xmlns="http://www.w3.org/2000/svg">
<path d="M15.2123 2.63838C14.8482 1.48353 13.682 0.165916 12.0514 0.0183197C10.3201 -0.139112 8.72114 0.711815 8.00058 2.81583C7.82953 3.31797 7.72121 3.84318 7.67848 4.37759C7.07279 3.50356 5.95883 2.32973 4.34624 2.32703C2.04987 2.32531 0.856833 3.90422 0.600084 5.13188C0.247887 6.80889 0.853649 8.08986 1.97086 8.1494C3.08924 8.20881 3.79641 7.37984 4.46689 6.89864C5.43764 6.20117 7.04928 6.21114 7.52934 7.29049C7.61053 7.58186 7.68598 7.87513 7.7532 8.16928C7.79567 8.57297 7.45513 10.5418 7.31998 10.9143C7.13654 11.422 6.93444 11.7539 7.1618 11.9988C7.35456 12.2061 7.68678 12.2517 7.98047 12.2203C8.90621 12.1213 9.3059 11.6352 9.40742 11.4621C9.53025 11.2526 9.95986 8.81764 9.02239 6.89864C8.62638 5.47033 10.0571 5.09939 10.5069 5.03841C11.414 4.91824 12.8405 5.11598 13.7256 5.14498C15.7314 5.20995 15.4761 3.47685 15.2123 2.63838Z" fill="white"/>
<path d="M3.46893 4.67054C3.55265 4.47357 3.65291 4.28771 3.76697 4.10939C3.88721 3.9214 4.18147 3.70449 4.16814 3.45094C4.15209 3.1101 3.66679 3.19676 3.47564 3.23266C3.35083 3.25502 3.22677 3.28502 3.10595 3.3237C2.88717 3.39217 2.67562 3.48561 2.47861 3.60584C2.14171 3.81185 1.84555 4.09335 1.61942 4.43432C1.45424 4.68378 1.31871 4.96871 1.25608 5.27031C1.10728 5.97132 1.17697 6.61291 1.43838 6.98546C1.58364 7.19272 1.78113 7.30424 2.02576 7.31672C3.04864 7.37089 3.13918 6.13138 3.29617 5.30973C3.33662 5.09549 3.38428 4.87019 3.46893 4.67054ZM8.731 3.02228C8.69534 3.24888 8.70165 3.4916 8.82372 3.64467C8.91173 3.75374 9.11635 3.79367 9.24098 3.74557C9.60926 3.60446 9.82321 3.0214 9.97826 2.66999C10.0984 2.39702 10.2595 2.13124 10.4331 1.89504C10.5419 1.74691 10.6887 1.57539 10.7119 1.37846C10.7541 1.01465 10.2677 1.20961 10.1236 1.26494C9.56128 1.48475 9.05629 2.04227 8.83303 2.6392C8.79357 2.74387 8.75362 2.8795 8.731 3.02228Z" fill="white"/>
<path d="M8.28162 10.2035C8.26239 10.1555 8.19259 10.1416 8.15192 10.165C7.90624 10.3076 7.82489 10.7176 7.73201 10.9728C7.60835 11.3148 7.49622 11.6585 7.39509 12.0078C7.29506 12.356 7.19778 12.7058 7.11479 13.0584C7.04444 13.3581 6.85758 13.8021 6.96475 14.0996C7.01587 14.2422 7.19723 14.3386 7.32035 14.2071C7.54569 13.9665 7.55394 13.5331 7.62758 13.2178C7.70948 12.864 7.79027 12.5103 7.87986 12.1582C7.96945 11.8061 8.05958 11.4546 8.15081 11.1031C8.22171 10.8296 8.39045 10.4775 8.28162 10.2035Z" fill="white"/>
<path d="M6.95814 14.7439C6.7993 14.7378 6.69818 14.8603 6.67784 15.0074C6.6663 15.0904 6.65476 15.1734 6.64322 15.2558C6.61519 15.3639 6.5987 15.4748 6.5965 15.5895C6.59431 15.7332 6.70587 15.8603 6.84987 15.8658C7.00706 15.8714 7.09885 15.7522 7.12248 15.609C7.15436 15.4157 7.18624 15.2219 7.21811 15.028C7.24175 14.8815 7.0906 14.7489 6.95814 14.7439Z" fill="white"/>
<path d="M9.13011 7.14069C9.1673 7.25085 8.92774 7.66316 8.51927 7.81151C8.11081 7.95985 7.66904 7.74885 7.63186 7.63869C7.59468 7.52852 7.90884 7.36144 8.31731 7.21309C8.72577 7.06475 9.09293 7.03052 9.13011 7.14069Z" fill="white"/>
<path fill-rule="evenodd" clip-rule="evenodd" d="M13.2405 23.7524C16.3853 22.8117 18.1831 19.4653 17.2563 16.2781C16.2529 12.8278 12.3588 9.41476 10.003 7.60551C9.6055 7.30027 9.18457 7.0105 8.76355 7.18984C8.67355 7.22808 8.59595 7.26625 8.52365 7.30181C8.33509 7.39455 8.18256 7.46957 7.94006 7.48189C7.59212 7.49956 7.48518 7.86232 7.38771 8.193C7.36484 8.27057 7.34249 8.34637 7.31768 8.41554C6.30686 11.2332 4.86539 16.2372 5.86781 19.6843C6.79468 22.8715 10.0956 24.693 13.2405 23.7524ZM8.04569 21.3493C8.57858 23.0884 10.823 23.9277 13.0579 23.2242C15.2934 22.5205 16.6738 20.5402 16.141 18.8011C15.6081 17.0619 13.3637 16.2226 11.1282 16.9263C8.89323 17.6299 7.5128 19.6102 8.04569 21.3493Z" fill="white"/>
</svg>
