<svg width="39" height="34" viewBox="0 0 39 34" fill="none" xmlns="http://www.w3.org/2000/svg">
<ellipse cx="19.4878" cy="17" rx="19.0877" ry="17" fill="#BDBDBD"/>
<ellipse cx="19.4878" cy="14.614" rx="19.0877" ry="14.614" fill="#E0E0E0"/>
<path d="M17.9374 4.54285C17.9374 3.57102 17.148 2.77493 16.1801 2.86174C14.2309 3.03656 12.3382 3.50112 10.609 4.23425C8.36359 5.18617 6.46641 6.56006 5.09346 8.22842C3.72051 9.89677 2.91628 11.8055 2.75539 13.7776C2.64046 15.1863 2.85648 16.5947 3.38695 17.9362C3.7636 18.8886 4.86527 19.2579 5.82805 18.9085C7.10699 18.4444 7.60056 16.9057 7.37631 15.5637C7.28992 15.0467 7.26724 14.5227 7.31 13.9986C7.42262 12.6181 7.98558 11.282 8.94665 10.1142C9.90771 8.9463 11.2357 7.98458 12.8075 7.31823C13.8622 6.8711 15.0037 6.56668 16.1825 6.41478C17.1464 6.29059 17.9374 5.51468 17.9374 4.54285Z" fill="#EEEEEE"/>
<path fill-rule="evenodd" clip-rule="evenodd" d="M17.1986 13.0818H21.8683C23.2435 13.0818 24.3584 14.1724 24.3584 15.5175V18.3979C24.3584 19.7431 23.2435 20.8337 21.8683 20.8337H16.9313C15.5567 20.8337 14.4418 19.7431 14.4418 18.3979V15.5175C14.4418 14.4113 15.2005 13.4876 16.2331 13.1908L16.1684 13.1983V12.3095C16.1803 10.5765 17.6213 9.16699 19.3877 9.16699C20.7688 9.16699 21.9892 10.0199 22.4397 11.2832C22.4871 11.4108 22.4753 11.55 22.416 11.6717C22.3567 11.7935 22.2506 11.8862 22.1196 11.9274C21.8529 12.0196 21.5565 11.881 21.4558 11.6143C21.1535 10.7556 20.3242 10.1816 19.3995 10.1816C18.1897 10.1816 17.2123 11.1331 17.2058 12.2979V13.0806L17.1986 13.0818ZM19.3971 18.1086C19.6876 18.1086 19.9188 17.8825 19.9188 17.5984V16.3112C19.9188 16.0329 19.6876 15.8068 19.3971 15.8068C19.1126 15.8068 18.8815 16.0329 18.8815 16.3112V17.5984C18.8815 17.8825 19.1126 18.1086 19.3971 18.1086Z" fill="#3C3F42"/>
</svg>
