<svg width="24" height="25" viewBox="0 0 24 25" fill="none" xmlns="http://www.w3.org/2000/svg">
<path d="M11.3094 21.7874L11.3094 21.7874L11.3022 21.7849C9.47224 21.1574 7.07073 19.7144 5.13174 17.5908C3.19727 15.472 1.75 12.7071 1.75 9.42789C1.75 6.20197 4.3582 3.58789 7.56 3.58789C9.11753 3.58789 10.5695 4.19525 11.6449 5.27994L12 5.63803L12.3551 5.27994C13.4305 4.19525 14.8825 3.58789 16.44 3.58789C19.6413 3.58789 22.25 6.21146 22.25 9.42789C22.25 12.7122 20.8026 15.4771 18.8684 17.5944C16.9295 19.7167 14.528 21.1573 12.6978 21.7849L12.6978 21.7849L12.6906 21.7874C12.511 21.8521 12.2722 21.8879 12 21.8879C11.7278 21.8879 11.489 21.8521 11.3094 21.7874ZM11.4682 21.321L11.4719 21.3222C11.6379 21.3776 11.8437 21.3929 12.005 21.3929C12.1663 21.3929 12.3721 21.3776 12.5381 21.3222L12.5381 21.3223L12.5424 21.3208C13.7588 20.903 16.0443 19.7198 18.0332 17.7631C20.0283 15.8002 21.76 13.0219 21.76 9.42789C21.76 6.48445 19.3788 4.08789 16.45 4.08789C14.7711 4.08789 13.2121 4.87339 12.208 6.23051L12.2075 6.23129C12.1781 6.27111 12.111 6.31289 12.01 6.31289C11.909 6.31289 11.8419 6.27111 11.8125 6.23129L11.8125 6.23128L11.81 6.22789C10.7866 4.86335 9.23908 4.08789 7.56 4.08789C4.63116 4.08789 2.25 6.48445 2.25 9.42789C2.25 13.0168 3.97909 15.795 5.97286 17.7591C7.96037 19.717 10.246 20.903 11.4682 21.321ZM3.25 9.42789C3.25 7.03133 5.18884 5.08789 7.56 5.08789C8.92034 5.08789 10.1723 5.71189 11.0089 6.82645C11.2596 7.16524 11.6517 7.31289 12.01 7.31289C12.3689 7.31289 12.7616 7.16478 13.0123 6.82486C13.8282 5.72223 15.0891 5.08789 16.45 5.08789C18.8212 5.08789 20.76 7.03133 20.76 9.42789C20.76 12.6738 19.2017 15.2106 17.3318 17.0502C15.458 18.8937 13.3065 20.0001 12.2215 20.3736C12.2186 20.3744 12.1976 20.38 12.1546 20.385C12.1115 20.39 12.0597 20.3929 12.005 20.3929C11.9503 20.3929 11.8985 20.39 11.8554 20.385C11.8119 20.3799 11.791 20.3743 11.7884 20.3736C10.6995 20.0005 8.54767 18.8918 6.67464 17.0467C4.80591 15.2058 3.25 12.669 3.25 9.42789Z" fill="#7ACB8B" stroke="#7ACB8B"/>
</svg>
