<svg width="24" height="24" viewBox="0 0 24 24" fill="none" xmlns="http://www.w3.org/2000/svg">
<path d="M7.41363 21.1457C7.11427 20.6816 7.58105 20.2 8.13333 20.2H9.86667C10.419 20.2 10.8857 20.6816 10.5864 21.1457C10.2563 21.6575 9.66759 22 9 22C8.33241 22 7.74374 21.6575 7.41363 21.1457ZM5.26667 18.4C5.26667 18.8971 5.66961 19.3 6.16667 19.3H11.8333C12.3304 19.3 12.7333 18.8971 12.7333 18.4C12.7333 17.9029 12.3304 17.5 11.8333 17.5H6.16667C5.66961 17.5 5.26667 17.9029 5.26667 18.4ZM16 10.75C16 14.188 13.5173 16.024 12.4813 16.6H5.51867C4.48267 16.024 2 14.188 2 10.75C2 7.024 5.136 4 9 4C12.864 4 16 7.024 16 10.75ZM14.1333 10.75C14.1333 8.023 11.828 5.8 9 5.8C6.172 5.8 3.86667 8.023 3.86667 10.75C3.86667 12.973 5.25733 14.251 6.06 14.8H11.94C12.7427 14.251 14.1333 12.973 14.1333 10.75Z" fill="#212121"/>
<path d="M19.9179 6.7788C20.0195 6.50231 20.425 6.50231 20.5266 6.7788L20.8044 7.53485C20.8369 7.62336 20.9091 7.69298 21.0009 7.72434L21.785 7.99224C22.0717 8.09021 22.0717 8.48122 21.785 8.57919L21.0009 8.84709C20.9091 8.87845 20.8369 8.94807 20.8044 9.03658L20.5266 9.79263C20.425 10.0691 20.0195 10.0691 19.9179 9.79263L19.6401 9.03658C19.6075 8.94807 19.5353 8.87845 19.4436 8.84709L18.6595 8.57919C18.3728 8.48122 18.3728 8.09021 18.6595 7.99224L19.4436 7.72434C19.5353 7.69298 19.6075 7.62336 19.6401 7.53485L19.9179 6.7788Z" stroke="#212121" stroke-linejoin="round"/>
<path d="M15.6576 2.24193C15.7719 1.91936 16.2281 1.91936 16.3424 2.24193L16.6549 3.12399C16.6915 3.22725 16.7728 3.30848 16.876 3.34506L17.7581 3.65761C18.0806 3.77191 18.0806 4.22809 17.7581 4.34239L16.876 4.65494C16.7728 4.69152 16.6915 4.77275 16.6549 4.87601L16.3424 5.75807C16.2281 6.08064 15.7719 6.08064 15.6576 5.75807L15.3451 4.87601C15.3085 4.77275 15.2272 4.69152 15.124 4.65494L14.2419 4.34239C13.9194 4.22809 13.9194 3.77191 14.2419 3.65761L15.124 3.34506C15.2272 3.30848 15.3085 3.22725 15.3451 3.12399L15.6576 2.24193Z" stroke="#212121" stroke-linejoin="round"/>
</svg>
