<svg width="24" height="24" viewBox="0 0 24 24" fill="none" xmlns="http://www.w3.org/2000/svg">
<path d="M9 16C9.85 16.63 10.885 17 12 17C13.115 17 14.15 16.63 15 16" stroke="#212121" stroke-width="1.5" stroke-linecap="round"/>
<path d="M15 12C15.5523 12 16 11.3284 16 10.5C16 9.67157 15.5523 9 15 9C14.4477 9 14 9.67157 14 10.5C14 11.3284 14.4477 12 15 12Z" fill="#212121"/>
<path d="M9 12C9.55228 12 10 11.3284 10 10.5C10 9.67157 9.55228 9 9 9C8.44772 9 8 9.67157 8 10.5C8 11.3284 8.44772 12 9 12Z" fill="#212121"/>
<path d="M3.35288 8.95043C4.00437 6.17301 6.17301 4.00437 8.95043 3.35288C10.9563 2.88237 13.0437 2.88237 15.0496 3.35288C17.827 4.00437 19.9956 6.17301 20.6471 8.95044C21.1176 10.9563 21.1176 13.0437 20.6471 15.0496C19.9956 17.827 17.827 19.9956 15.0496 20.6471C13.0437 21.1176 10.9563 21.1176 8.95044 20.6471C6.17301 19.9956 4.00437 17.827 3.35288 15.0496C2.88237 13.0437 2.88237 10.9563 3.35288 8.95043Z" stroke="#212121" stroke-width="1.5"/>
</svg>
