<svg width="25" height="24" viewBox="0 0 25 24" fill="none" xmlns="http://www.w3.org/2000/svg">
<path fill-rule="evenodd" clip-rule="evenodd" d="M7.59406 3.78679C7.88123 2.44903 8.97814 1.51514 10.2188 1.51514C11.4594 1.51514 12.5563 2.44903 12.8435 3.78679C12.9049 4.07304 13.1273 4.29736 13.413 4.36129L13.5602 4.39421C15.5107 4.83063 17.1007 6.42355 17.6249 8.55491C17.9117 9.72137 18.0146 10.9266 17.9334 12.1208H19.4365C19.5156 10.806 19.3973 9.48087 19.0815 8.1967C18.4578 5.66059 16.5916 3.66229 14.1834 3.00387C13.6213 1.29058 12.0839 0.0151367 10.2188 0.0151367C8.35361 0.0151367 6.81626 1.29058 6.25411 3.00387C3.84596 3.66229 1.97977 5.66058 1.35608 8.19669C0.850993 10.2505 0.850993 12.4091 1.35608 14.4629C2.00507 17.1019 3.99944 19.1586 6.54985 19.7292L6.97989 19.8254C8.08821 20.0734 9.21523 20.1927 10.3415 20.1833V18.6833C9.32507 18.6927 8.30789 18.5854 7.30739 18.3616L6.87736 18.2654C4.9268 17.829 3.33683 16.236 2.81268 14.1047C2.36546 12.2862 2.36546 10.3734 2.81268 8.55491C3.33683 6.42355 4.9268 4.83063 6.87736 4.39421L7.02452 4.36129C7.31022 4.29736 7.53261 4.07304 7.59406 3.78679Z" fill="#212121"/>
<path fill-rule="evenodd" clip-rule="evenodd" d="M10.3416 8.77795C8.55944 8.77795 7.23282 10.343 7.23282 12.1208C7.23282 13.8987 8.55942 15.4637 10.3415 15.4637V13.9637C9.51828 13.9637 8.73282 13.207 8.73282 12.1208C8.73282 11.0347 9.5183 10.278 10.3416 10.278C11.1648 10.278 11.9503 11.0347 11.9503 12.1208H13.4503C13.4503 10.343 12.1237 8.77795 10.3416 8.77795Z" fill="#212121"/>
<path d="M15.2736 16.8569C15.708 16.9385 16.0765 17.1793 16.3791 17.5792C16.6816 17.9791 16.8329 18.4321 16.8329 18.9381C16.8329 19.3707 16.7243 19.7625 16.5071 20.1134C16.2976 20.4562 15.9912 20.7296 15.5878 20.9337C15.1844 21.1296 14.7151 21.2275 14.1798 21.2275H10.9449V12.7189H14.0285C14.5793 12.7189 15.0525 12.8168 15.4482 13.0127C15.8438 13.2086 16.1425 13.4738 16.3442 13.8085C16.5459 14.1349 16.6467 14.5022 16.6467 14.9103C16.6467 15.4 16.5226 15.8081 16.2743 16.1346C16.0261 16.461 15.6925 16.7018 15.2736 16.8569ZM12.2714 16.2937H13.9122C14.3466 16.2937 14.684 16.1917 14.9245 15.9877C15.1728 15.7754 15.2969 15.4735 15.2969 15.0817C15.2969 14.6981 15.1728 14.4002 14.9245 14.188C14.684 13.9676 14.3466 13.8574 13.9122 13.8574H12.2714V16.2937ZM14.0634 20.0889C14.5134 20.0889 14.8663 19.9747 15.1223 19.7461C15.3783 19.5176 15.5063 19.1993 15.5063 18.7912C15.5063 18.375 15.3706 18.0444 15.0991 17.7996C14.8275 17.5547 14.4668 17.4323 14.0169 17.4323H12.2714V20.0889H14.0634Z" fill="#212121"/>
<path d="M22.4752 21.2275L20.6133 17.824H19.601V21.2275H18.2744V12.7189H21.0672C21.6878 12.7189 22.2114 12.8331 22.6381 13.0617C23.0725 13.2902 23.3944 13.5963 23.6039 13.9799C23.8211 14.3635 23.9297 14.792 23.9297 15.2653C23.9297 15.8203 23.7745 16.3264 23.4642 16.7834C23.1617 17.2323 22.6924 17.5384 22.0562 17.7016L24.0577 21.2275H22.4752ZM19.601 16.71H21.0672C21.5636 16.71 21.936 16.5794 22.1842 16.3182C22.4402 16.057 22.5682 15.7061 22.5682 15.2653C22.5682 14.8246 22.4441 14.4818 22.1959 14.237C21.9476 13.9839 21.5714 13.8574 21.0672 13.8574H19.601V16.71Z" fill="#212121"/>
</svg>
