<svg width="20" height="20" viewBox="0 0 20 20" fill="none" xmlns="http://www.w3.org/2000/svg">
    <path
        d="M4.64871 3.63561L4.64854 3.63587L1.65832 8.11994C1.65823 8.12008 1.65814 8.12021 1.65805 8.12035C1.57468 8.2463 1.56502 8.40703 1.63226 8.54152L4.64871 3.63561ZM4.64871 3.63561C4.73618 3.50427 4.85472 3.39656 4.99381 3.32205C5.13285 3.24757 5.28811 3.20855 5.44584 3.20847C5.44587 3.20847 5.44591 3.20847 5.44594 3.20847C5.44598 3.20847 5.44601 3.20847 5.44605 3.20847L14.554 3.2093C14.554 3.2093 14.554 3.2093 14.554 3.2093C14.5541 3.2093 14.5541 3.2093 14.5542 3.2093C14.7118 3.20942 14.8669 3.24839 15.0058 3.32277L15.2418 2.88197L15.0058 3.32277C15.1448 3.39718 15.2633 3.50473 15.3507 3.63589L15.3508 3.63598L18.3426 8.11994C18.3427 8.12006 18.3428 8.12018 18.3428 8.1203C18.4268 8.24709 18.4363 8.40791 18.3695 8.54152L18.8167 8.76513L18.3695 8.54153C16.7624 11.7557 14.529 14.6161 11.8005 16.9547L11.8005 16.9547L10.3422 18.2047L10.3421 18.2047C10.247 18.2862 10.1258 18.3311 10.0005 18.3311C9.87514 18.3311 9.75394 18.2862 9.65879 18.2047L8.20057 16.9539L8.20045 16.9538M4.64871 3.63561L8.20045 16.9538M8.20045 16.9538C5.47234 14.6154 3.2392 11.7553 1.63226 8.54153L8.20045 16.9538ZM4.85696 3.77296L4.8565 3.77366L2.3715 7.50199L1.9126 8.19049L2.73552 8.27658L3.90593 8.39904C4.49627 8.46131 5.08753 8.51455 5.67949 8.55874L6.11913 8.59157L6.20674 8.15949C6.21914 8.09834 6.23748 8.03855 6.26151 7.98097L6.26159 7.98077L7.85742 4.15077L8.14588 3.45847H7.39588H5.446C5.44596 3.45847 5.44592 3.45847 5.44588 3.45847C5.3295 3.45844 5.2149 3.48709 5.11222 3.54188L5.34763 3.983L5.11222 3.54188C5.00942 3.59674 4.92174 3.67612 4.85696 3.77296ZM2.78594 8.5329L1.83831 8.43273L2.29436 9.26943C3.81823 12.0652 5.82973 14.5659 8.23389 16.6535L9.02989 16.1004L6.42572 9.15542L6.31277 8.85419L5.99182 8.83214C5.28742 8.78375 4.58396 8.7226 3.88177 8.64874C3.88169 8.64873 3.88161 8.64872 3.88153 8.64871L2.78594 8.5329ZM7.30942 9.41307L6.85353 9.58397L9.53186 16.729L9.99998 17.9778L10.4682 16.729L13.1474 9.58402L13.4134 8.87457L12.6565 8.90898C10.9965 8.98445 9.33405 8.98914 7.67373 8.92306L7.66826 8.90847H7.32172H7.32088L7.30942 9.41307ZM14.0097 8.83216L13.6889 8.85434L13.576 9.15542L10.9719 16.1004L11.7679 16.6535C14.172 14.5659 16.1835 12.0652 17.7074 9.26943L18.1635 8.43273L17.2158 8.5329L16.1205 8.64868C16.1204 8.64869 16.1203 8.64871 16.1202 8.64872C15.4178 8.72226 14.7146 8.7834 14.0097 8.83216ZM17.2657 8.27655L18.0882 8.18998L17.6294 7.50193L15.1436 3.77359L15.1431 3.77297C15.0784 3.67611 14.9907 3.59674 14.8879 3.54188L14.6525 3.983L14.8879 3.54188C14.7852 3.48709 14.6706 3.45844 14.5542 3.45847C14.5542 3.45847 14.5541 3.45847 14.5541 3.45847H12.6042H11.8541L12.1427 4.15086L13.7388 7.97944C13.7389 7.97967 13.739 7.97989 13.7391 7.98011C13.7628 8.03763 13.7808 8.09733 13.793 8.15836L13.8792 8.59253L14.3206 8.55958C14.9125 8.51539 15.5038 8.46215 16.0941 8.39988C16.0941 8.39988 16.0941 8.39988 16.0942 8.39987L17.2657 8.27655ZM13.0201 8.64113L13.007 8.13612L13.4549 7.94947L11.7116 3.76613L11.5834 3.45847H11.25H8.75005H8.41668L8.28849 3.76621L6.54599 7.94954L6.27321 8.60443L6.98169 8.64113C8.99391 8.74536 11.0087 8.74536 13.0201 8.64113Z"
        fill="#212121" stroke="#212121" />
</svg>
    