<svg width="24" height="24" viewBox="0 0 24 24" fill="none" xmlns="http://www.w3.org/2000/svg">
<path d="M7.98852 6.42854C7.70738 6.42854 7.43738 6.53997 7.2368 6.73711L4.94395 8.99996H8.78566C9.94109 8.99996 10.9028 9.83139 11.1042 10.9285H12.8957C12.9958 10.3868 13.2826 9.89724 13.7062 9.54493C14.1297 9.19262 14.6633 8.9998 15.2142 8.99996H19.0559L16.7631 6.73711C16.5625 6.53933 16.2922 6.42847 16.0105 6.42854H14.7857C14.6152 6.42854 14.4517 6.36081 14.3311 6.24025C14.2105 6.11969 14.1428 5.95618 14.1428 5.78568C14.1428 5.61518 14.2105 5.45167 14.3311 5.33111C14.4517 5.21055 14.6152 5.14282 14.7857 5.14282H16.0114C16.631 5.14305 17.2256 5.38723 17.6665 5.82254L21.4559 9.56225C21.5445 9.63654 21.6268 9.71768 21.7028 9.80568L21.7259 9.82796L21.7242 9.82968C22.0739 10.2411 22.2857 10.7743 22.2857 11.3571V14.7857C22.2857 15.6382 21.947 16.4557 21.3442 17.0585C20.7414 17.6613 19.9239 18 19.0714 18H16.0714C15.2189 18 14.4013 17.6613 13.7985 17.0585C13.1957 16.4557 12.8571 15.6382 12.8571 14.7857V12.2143H11.1428V14.7857C11.1428 15.6382 10.8042 16.4557 10.2014 17.0585C9.59857 17.6613 8.781 18 7.92852 18H4.92852C4.07604 18 3.25847 17.6613 2.65568 17.0585C2.05288 16.4557 1.71423 15.6382 1.71423 14.7857V11.3571C1.71423 10.7743 1.92595 10.2411 2.27566 9.82968L2.27395 9.82796L2.29709 9.80568C2.37366 9.71825 2.45595 9.63711 2.54395 9.56225L6.33338 5.82254C6.77452 5.38702 7.36947 5.14282 7.98938 5.14282H9.21423C9.38473 5.14282 9.54824 5.21055 9.6688 5.33111C9.78936 5.45167 9.85709 5.61518 9.85709 5.78568C9.85709 5.95618 9.78936 6.11969 9.6688 6.24025C9.54824 6.36081 9.38473 6.42854 9.21423 6.42854H7.98852ZM20.5937 10.5171C20.4047 10.3666 20.1701 10.285 19.9285 10.2857H15.2142C14.6228 10.2857 14.1428 10.7657 14.1428 11.3571V14.7857C14.1428 15.2972 14.346 15.7877 14.7077 16.1494C15.0693 16.5111 15.5599 16.7143 16.0714 16.7143H19.0714C19.5829 16.7143 20.0734 16.5111 20.4351 16.1494C20.7968 15.7877 20.9999 15.2972 20.9999 14.7857V11.3571C20.9999 11.1008 20.9099 10.866 20.7599 10.6808L20.5937 10.5171ZM3.40623 10.5171L3.23995 10.6808C3.08995 10.866 2.99995 11.1008 2.99995 11.3571V14.7857C2.99995 15.2972 3.20314 15.7877 3.56481 16.1494C3.92649 16.5111 4.41703 16.7143 4.92852 16.7143H7.92852C8.44001 16.7143 8.93055 16.5111 9.29222 16.1494C9.6539 15.7877 9.85709 15.2972 9.85709 14.7857V11.3571C9.85709 10.7657 9.37709 10.2857 8.78566 10.2857H4.07138C3.82023 10.2857 3.5888 10.3714 3.40623 10.5171Z" fill="#212121"/>
</svg>
