<svg width="24" height="25" viewBox="0 0 24 25" fill="none" xmlns="http://www.w3.org/2000/svg">
    <path
        d="M8.88443 4.07884L8.43056 4.17941C5.70602 4.78313 3.55805 6.87763 2.88539 9.58654C2.37154 11.6559 2.37154 13.8196 2.88539 15.889C3.55805 18.598 5.70601 20.6925 8.43056 21.2962L8.88443 21.3967C10.9366 21.8515 13.0634 21.8515 15.1156 21.3967L15.5694 21.2962C18.294 20.6925 20.442 18.598 21.1146 15.889C21.6285 13.8196 21.6285 11.6559 21.1146 9.58655C20.442 6.87763 18.294 4.78313 15.5694 4.17941L15.1156 4.07884C13.0634 3.62411 10.9366 3.62411 8.88443 4.07884Z"
        stroke="#212121" stroke-width="1.5" stroke-linecap="round" />
    <path
        d="M9.5 11.7378C9.5 10.3571 10.6193 9.23779 12 9.23779C13.3807 9.23779 14.5 10.3571 14.5 11.7378C14.5 13.1185 13.3807 14.2378 12 14.2378C10.6193 14.2378 9.5 13.1185 9.5 11.7378Z"
        stroke="#212121" stroke-width="1.5" />
    <path d="M22.0016 11.6479H14.3516" stroke="#212121" stroke-width="1.5" stroke-miterlimit="10" />
    <path d="M9.64999 11.6477H2" stroke="#212121" stroke-width="1.5" stroke-miterlimit="10" />
</svg>
    