<svg width="25" height="24" viewBox="0 0 25 24" fill="none" xmlns="http://www.w3.org/2000/svg">
    <path fill-rule="evenodd" clip-rule="evenodd"
        d="M7.91357 3.85923C8.19953 2.57357 9.3019 1.64612 10.5832 1.64612C11.8644 1.64612 12.9668 2.57357 13.2528 3.85923C13.3163 4.14502 13.5404 4.3677 13.8266 4.42949L13.9756 4.46168C15.9663 4.89153 17.5699 6.45464 18.0967 8.522C18.4358 9.85288 18.5201 11.2353 18.3497 12.5919H19.86C20.0235 11.1097 19.9203 9.60389 19.5502 8.15161C18.914 5.65479 17.0147 3.70494 14.5856 3.0657C14.0097 1.37827 12.4481 0.146118 10.5832 0.146118C8.71822 0.146118 7.15663 1.37827 6.58077 3.0657C5.60392 3.32275 4.71276 3.79175 3.95498 4.42303L5.02792 5.48429C5.65703 4.98835 6.39276 4.63398 7.19068 4.46168L7.33976 4.42949C7.62594 4.3677 7.85 4.14502 7.91357 3.85923ZM3.70626 6.99009L2.61532 5.91104C2.16501 6.58217 1.82349 7.33783 1.61613 8.15161C1.10281 10.1661 1.10281 12.2836 1.61613 14.298C2.27774 16.8945 4.30519 18.8995 6.87408 19.4542L7.30971 19.5482C8.43002 19.7901 9.56914 19.9065 10.7075 19.8974V18.3973C9.67527 18.4065 8.64229 18.3014 7.62631 18.082L7.19068 17.988C5.20001 17.5581 3.59647 15.995 3.06968 13.9276C2.61829 12.1562 2.61829 10.2934 3.06968 8.52199C3.20991 7.97167 3.42644 7.45708 3.70626 6.99009Z"
        fill="#212121" />
    <path fill-rule="evenodd" clip-rule="evenodd"
        d="M7.72716 10.9671C7.62375 11.2934 7.56812 11.6407 7.56812 11.9985C7.56812 13.7704 8.93246 15.2837 10.7075 15.2837V13.915L10.5682 13.7771C9.85304 13.7097 9.22662 13.1281 9.09395 12.319L7.72716 10.9671ZM12.2452 12.6228C12.3108 12.4307 12.347 12.2209 12.347 11.9985C12.347 10.9701 11.5718 10.2133 10.7076 10.2133C10.4558 10.2133 10.2115 10.2775 9.99182 10.394L8.89791 9.31198C9.40449 8.93653 10.0257 8.71326 10.7076 8.71326C12.4827 8.71326 13.847 10.2266 13.847 11.9985C13.847 12.5828 13.6987 13.139 13.4361 13.622H13.2554L12.2452 12.6228Z"
        fill="#212121" />
    <path
        d="M11.7166 14.899V21.686H14.9936C15.5358 21.686 16.0112 21.5903 16.4199 21.3987C16.8285 21.1992 17.1389 20.9319 17.3511 20.5967C17.3675 20.5712 17.3832 20.5455 17.3984 20.5195L16.3301 19.4628C16.2995 19.7865 16.1722 20.0447 15.9484 20.2376C15.689 20.4611 15.3315 20.5728 14.8757 20.5728H13.0604V17.9752H14.8263L13.7009 16.8619H13.0604V16.2283L11.7166 14.899Z"
        fill="#212121" />
    <path
        d="M15.964 16.3155C16.0715 16.1401 16.1252 15.9272 16.1252 15.6769C16.1252 15.3018 15.9995 15.0105 15.748 14.803C15.5044 14.5876 15.1625 14.4798 14.7224 14.4798H14.1084L12.983 13.3666H14.8403C15.3983 13.3666 15.8777 13.4623 16.2784 13.6539C16.6792 13.8454 16.9818 14.1048 17.1861 14.4319C17.3904 14.7512 17.4926 15.1103 17.4926 15.5093C17.4926 15.9881 17.3668 16.3871 17.1154 16.7063C17.0051 16.8463 16.8782 16.9701 16.7347 17.0779L15.964 16.3155Z"
        fill="#212121" />
    <path fill-rule="evenodd" clip-rule="evenodd"
        d="M19.9914 21.686C20.367 21.2912 20.3579 20.6619 19.9703 20.2785L19.1415 19.4587V13.3666H21.9706C22.5992 13.3666 23.1297 13.4783 23.5619 13.7017C24.002 13.9252 24.3281 14.2245 24.5403 14.5995C24.7603 14.9746 24.8704 15.3936 24.8704 15.8564C24.8704 16.3991 24.7132 16.8939 24.3989 17.3408C24.0924 17.7797 23.6169 18.0789 22.9725 18.2385L25 21.686H23.3969L21.5108 18.3582H20.4853V21.686H19.9914ZM21.9706 17.2689H20.4853V14.4798H21.9706C22.4814 14.4798 22.8625 14.6035 23.114 14.8509C23.3655 15.0903 23.4912 15.4255 23.4912 15.8564C23.4912 16.2874 23.3615 16.6305 23.1022 16.8859C22.8507 17.1413 22.4735 17.2689 21.9706 17.2689Z"
        fill="#212121" />
    <path d="M1 1.93518L20.2671 20.9924" stroke="#212121" stroke-width="1.5" stroke-linecap="round" />
</svg>