<svg width="24" height="24" viewBox="0 0 24 24" fill="none" xmlns="http://www.w3.org/2000/svg">
<path d="M5.39997 9.50003C6.04997 9.50003 6.66663 9.6167 7.24997 9.85003C7.8333 10.0834 8.36663 10.425 8.84997 10.875L18.4 20H19C19.2833 20 19.521 19.904 19.713 19.712C19.905 19.52 20.0006 19.2827 20 19C20 18.8667 19.9873 18.725 19.962 18.575C19.9366 18.425 19.8493 18.275 19.7 18.125L15.125 13.55L13.35 8.20003L11.5 8.65003C10.8666 8.8167 10.2916 8.70003 9.77497 8.30003C9.2583 7.90003 8.99997 7.37503 8.99997 6.72503V4.62503L8.29997 4.27503L4.44997 9.42503C4.4333 9.4417 4.42497 9.45403 4.42497 9.46203C4.42497 9.47003 4.41663 9.4827 4.39997 9.50003H5.39997ZM5.39997 11.5H4.24997C4.29997 11.6167 4.36263 11.725 4.43797 11.825C4.5133 11.925 4.60063 12.0167 4.69997 12.1L12.8 19.475C12.9833 19.6584 13.1916 19.7917 13.425 19.875C13.6583 19.9584 13.9 20 14.15 20H15.5L7.47497 12.325C7.19163 12.0417 6.87097 11.8334 6.51297 11.7C6.15497 11.5667 5.78397 11.5 5.39997 11.5ZM14.15 22C13.65 22 13.175 21.9084 12.725 21.725C12.275 21.5417 11.8583 21.2834 11.475 20.95L3.34997 13.575C2.5833 12.875 2.15397 12.0167 2.06197 11C1.96997 9.98337 2.23263 9.05837 2.84997 8.22503L6.69997 3.07503C6.9833 2.6917 7.36263 2.43737 7.83797 2.31203C8.3133 2.1867 8.7673 2.24103 9.19997 2.47503L9.89997 2.82503C10.25 3.00837 10.521 3.25837 10.713 3.57503C10.905 3.8917 11.0006 4.2417 11 4.62503V6.72503L12.85 6.25003C13.35 6.1167 13.8333 6.17937 14.3 6.43803C14.7666 6.6967 15.0833 7.06737 15.25 7.55003L16.875 12.45L21.125 16.7C21.4583 17.0334 21.6876 17.3917 21.813 17.775C21.9383 18.1584 22.0006 18.5667 22 19C22 19.8334 21.7083 20.5417 21.125 21.125C20.5416 21.7084 19.8333 22 19 22H14.15Z" fill="#212121"/>
</svg>
