<svg width="20" height="20" viewBox="0 0 20 20" fill="none" xmlns="http://www.w3.org/2000/svg">
<path d="M6.19 2.77C6.321 2.314 6.738 2 7.212 2H12.462C13.187 2 13.699 2.71 13.469 3.398L13.467 3.406L12.205 7H14.769C15.716 7 16.176 8.144 15.536 8.811L15.532 8.815L6.856 17.673C6.101 18.455 4.796 17.733 5.06 16.677L6.23 11.998H4.963C4.79852 11.9981 4.63626 11.9601 4.489 11.8868C4.34174 11.8135 4.21351 11.7071 4.11442 11.5758C4.01533 11.4445 3.94809 11.292 3.918 11.1303C3.8879 10.9686 3.89577 10.8021 3.941 10.644L6.19 2.77ZM7.213 3C7.19937 2.99957 7.18601 3.00379 7.1751 3.01197C7.1642 3.02015 7.1564 3.0318 7.153 3.045L4.903 10.919C4.893 10.959 4.923 10.999 4.963 10.999H6.87C6.94584 10.9991 7.02067 11.0164 7.08884 11.0496C7.157 11.0829 7.2167 11.1312 7.26343 11.1909C7.31016 11.2507 7.34269 11.3202 7.35855 11.3944C7.37442 11.4686 7.3732 11.5454 7.355 11.619L6.03 16.919C6.02749 16.9288 6.02648 16.9389 6.027 16.949C6.027 16.953 6.028 16.9567 6.03 16.96C6.03333 16.9687 6.04333 16.9787 6.06 16.99C6.078 17 6.094 17 6.102 17L6.112 16.996C6.12086 16.9912 6.12895 16.9852 6.136 16.978L6.14 16.974L14.815 8.118C14.8238 8.10934 14.8298 8.09816 14.832 8.086C14.833 8.07099 14.8306 8.05595 14.825 8.042C14.8192 8.02902 14.8107 8.01743 14.8 8.008C14.796 8.00333 14.786 8.00067 14.77 8H11.5C11.42 8.00006 11.3412 7.98094 11.2702 7.94424C11.1991 7.90755 11.1379 7.85435 11.0917 7.78911C11.0455 7.72387 11.0155 7.6485 11.0045 7.56931C10.9934 7.49012 11.0015 7.40943 11.028 7.334L12.521 3.08C12.5238 3.07068 12.5244 3.06083 12.5227 3.05124C12.521 3.04165 12.5171 3.03259 12.5113 3.0248C12.5054 3.01701 12.4978 3.0107 12.4891 3.00639C12.4804 3.00208 12.4707 2.99989 12.461 3H7.213Z" fill="#212121"/>
</svg>
