<svg width="24" height="25" viewBox="0 0 24 25" fill="none" xmlns="http://www.w3.org/2000/svg">
<path d="M4.68015 14.8812L5.41033 14.7099L4.68015 14.8812ZM4.68015 9.2408L3.94997 9.06952L4.68015 9.2408ZM20.6737 9.24081L19.9435 9.41208L20.6737 9.24081ZM20.6737 14.8812L21.4038 15.0525L20.6737 14.8812ZM15.4971 20.0578L15.3258 19.3276L15.4971 20.0578ZM9.85671 20.0578L10.028 19.3276L9.85671 20.0578ZM9.85671 4.06425L10.028 4.79443L9.85671 4.06425ZM15.4971 4.06425L15.3258 4.79443L15.4971 4.06425ZM5.36113 16.6515L6.01774 16.289L5.78588 15.8689L5.3073 15.9034L5.36113 16.6515ZM8.08646 19.3768L8.83453 19.4306L8.86896 18.952L8.4489 18.7202L8.08646 19.3768ZM9.11173 9.78307C8.69752 9.78307 8.36173 10.1189 8.36173 10.5331C8.36173 10.9473 8.69752 11.2831 9.11173 11.2831V9.78307ZM12.1676 11.2831C12.5818 11.2831 12.9176 10.9473 12.9176 10.5331C12.9176 10.1189 12.5818 9.78307 12.1676 9.78307V11.2831ZM10.1304 12.8389C9.71614 12.8389 9.38035 13.1747 9.38035 13.5889C9.38035 14.0032 9.71614 14.3389 10.1304 14.3389V12.8389ZM15.2235 14.3389C15.6377 14.3389 15.9735 14.0032 15.9735 13.5889C15.9735 13.1747 15.6377 12.8389 15.2235 12.8389V14.3389ZM5.41033 14.7099C5.00164 12.9676 5.00164 11.1544 5.41033 9.41208L3.94997 9.06952C3.48843 11.0371 3.48843 13.0849 3.94997 15.0525L5.41033 14.7099ZM19.9435 9.41208C20.3522 11.1544 20.3522 12.9676 19.9435 14.7099L21.4038 15.0525C21.8654 13.0849 21.8654 11.0371 21.4038 9.06953L19.9435 9.41208ZM15.3258 19.3276C13.5835 19.7363 11.7703 19.7363 10.028 19.3276L9.68543 20.7879C11.653 21.2495 13.7008 21.2495 15.6684 20.7879L15.3258 19.3276ZM10.028 4.79443C11.7703 4.38574 13.5835 4.38574 15.3258 4.79443L15.6684 3.33407C13.7008 2.87253 11.653 2.87253 9.68543 3.33407L10.028 4.79443ZM10.028 19.3276C7.73677 18.7901 5.94778 17.0011 5.41033 14.7099L3.94997 15.0525C4.61752 17.8983 6.83958 20.1204 9.68543 20.7879L10.028 19.3276ZM15.6684 20.7879C18.5142 20.1204 20.7363 17.8983 21.4038 15.0525L19.9435 14.7099C19.406 17.0011 17.617 18.7901 15.3258 19.3276L15.6684 20.7879ZM15.3258 4.79443C17.617 5.33188 19.406 7.12087 19.9435 9.41208L21.4038 9.06953C20.7363 6.22368 18.5142 4.00162 15.6684 3.33407L15.3258 4.79443ZM9.68543 3.33407C6.83958 4.00162 4.61752 6.22367 3.94997 9.06952L5.41033 9.41208C5.94778 7.12087 7.73677 5.33188 10.028 4.79443L9.68543 3.33407ZM5.3073 15.9034C3.59798 16.0264 2.25 17.4511 2.25 19.1914H3.75C3.75 18.2435 4.48457 17.4665 5.41496 17.3995L5.3073 15.9034ZM2.25 19.1914C2.25 21.012 3.72592 22.4879 5.54655 22.4879V20.9879C4.55435 20.9879 3.75 20.1836 3.75 19.1914H2.25ZM5.54655 22.4879C7.2868 22.4879 8.71153 21.1399 8.83453 19.4306L7.33839 19.3229C7.27144 20.2533 6.49445 20.9879 5.54655 20.9879V22.4879ZM8.4489 18.7202C7.42615 18.1556 6.58229 17.3118 6.01774 16.289L4.70452 17.0139C5.40578 18.2843 6.4536 19.3321 7.72402 20.0334L8.4489 18.7202ZM9.11173 11.2831H12.1676V9.78307H9.11173V11.2831ZM10.1304 14.3389H15.2235V12.8389H10.1304V14.3389Z" fill="#212121"/>
</svg>
