<svg width="24" height="25" viewBox="0 0 24 25" fill="#212121" xmlns="http://www.w3.org/2000/svg">
<path d="M12.4498 16.3702L12.5562 17.1126L12.5562 17.1126L12.4498 16.3702ZM11.559 16.3702L11.6655 15.6278H11.6655L11.559 16.3702ZM11.5523 3.77066L11.4443 3.02848L11.5523 3.77066ZM12.4564 3.77066L12.5644 3.02848H12.5644L12.4564 3.77066ZM7.87983 12.6506L7.13784 12.7599L7.87983 12.6506ZM7.88002 7.49485L8.62201 7.6042L7.88002 7.49485ZM16.1263 7.51194L16.8685 7.40367L16.1263 7.51194ZM16.1265 12.6335L15.3844 12.5253L16.1265 12.6335ZM12.5495 16.3559L12.4431 15.6135L12.4431 15.6135L12.5495 16.3559ZM12.5532 3.78474L12.4452 4.52692H12.4452L12.5532 3.78474ZM11.4402 3.78698L11.5482 4.52916L11.4402 3.78698ZM11.4438 16.3537L11.3374 17.0961H11.3374L11.4438 16.3537ZM19.75 12.191C19.75 11.7768 19.4142 11.441 19 11.441C18.5858 11.441 18.25 11.7768 18.25 12.191H19.75ZM5.75 12.191C5.75 11.7768 5.41421 11.441 5 11.441C4.58579 11.441 4.25 11.7768 4.25 12.191H5.75ZM11.25 21.7379C11.25 22.1521 11.5858 22.4879 12 22.4879C12.4142 22.4879 12.75 22.1521 12.75 21.7379H11.25ZM11.5482 4.52916L11.6604 4.51284L11.4443 3.02848L11.3322 3.0448L11.5482 4.52916ZM12.3484 4.51284L12.4452 4.52692L12.6612 3.04256L12.5644 3.02848L12.3484 4.51284ZM12.4431 15.6135L12.3433 15.6278L12.5562 17.1126L12.656 17.0983L12.4431 15.6135ZM11.6655 15.6278L11.5503 15.6113L11.3374 17.0961L11.4526 17.1126L11.6655 15.6278ZM12.3433 15.6278C12.1183 15.6601 11.8904 15.6601 11.6655 15.6278L11.4526 17.1126C11.8187 17.1651 12.19 17.1651 12.5562 17.1126L12.3433 15.6278ZM11.6604 4.51284C11.8887 4.47961 12.1201 4.47961 12.3484 4.51284L12.5644 3.02848C12.1929 2.97439 11.8159 2.97439 11.4443 3.02848L11.6604 4.51284ZM8.62181 12.5412C8.38082 10.906 8.381 9.23952 8.62201 7.6042L7.13804 7.38549C6.87567 9.16572 6.87546 10.9796 7.13784 12.7599L8.62181 12.5412ZM15.3842 7.6202C15.6212 9.24512 15.6214 10.9004 15.3844 12.5253L16.8687 12.7418C17.1267 10.9733 17.1265 9.17207 16.8685 7.40367L15.3842 7.6202ZM15.3844 12.5253C15.1449 14.167 13.9262 15.4008 12.4431 15.6135L12.656 17.0983C14.8486 16.7839 16.541 14.9884 16.8687 12.7418L15.3844 12.5253ZM16.8685 7.40367C16.541 5.15886 14.852 3.36141 12.6612 3.04256L12.4452 4.52692C13.9274 4.74265 15.1447 5.97857 15.3842 7.6202L16.8685 7.40367ZM8.62201 7.6042C8.8626 5.97169 10.0741 4.74371 11.5482 4.52916L11.3322 3.0448C9.15041 3.36234 7.46741 5.1506 7.13804 7.38549L8.62201 7.6042ZM7.13784 12.7599C7.46748 14.9966 9.15376 16.783 11.3374 17.0961L11.5503 15.6113C10.0752 15.3998 8.86243 14.1739 8.62181 12.5412L7.13784 12.7599ZM18.25 12.191C18.25 15.92 15.4107 18.8664 12 18.8664V20.3664C16.3213 20.3664 19.75 16.6638 19.75 12.191H18.25ZM12 18.8664C8.58929 18.8664 5.75 15.92 5.75 12.191H4.25C4.25 16.6638 7.67872 20.3664 12 20.3664V18.8664ZM11.25 19.6164V21.7379H12.75V19.6164H11.25Z" fill="white"/>
</svg>
