<svg width="96" height="96" viewBox="0 0 96 96" fill="none" xmlns="http://www.w3.org/2000/svg">
    <g clip-path="url(#clip0_2456_14839)">
        <path
            d="M75.9288 72.6235C75.4403 72.7284 74.7538 72.7055 74.1953 72.4847C72.3918 72.0201 71.4486 70.0078 71.9481 68.3672C71.9131 68.2043 75.5958 55.9985 72.7279 42.6438C69.86 29.2891 61.6187 19.4736 61.6187 19.4736C60.4547 18.0198 60.5236 15.9606 61.9773 14.7965C63.4311 13.6325 65.4904 13.7014 66.6544 15.1551C67.0851 15.5737 76.3155 26.0287 79.6031 41.3378C82.8906 56.6468 78.7664 69.9697 78.5456 70.5282C78.069 71.4824 77.0689 72.3787 75.9288 72.6235ZM66.9202 63.995C67.0132 63.6343 68.7545 55.0824 66.3763 44.0078C63.998 32.9332 58.8992 25.8503 58.6664 25.5595C57.6652 24.0708 55.536 23.6762 54.0822 24.8402C52.5935 25.8414 52.1989 27.9706 53.3629 29.4244C53.3629 29.4244 57.7983 35.7979 59.8618 45.4068C61.9253 55.0156 60.4976 62.6483 60.4976 62.6483C60.1959 64.4168 61.2671 66.2312 63.0356 66.5329C63.5591 66.5909 63.9198 66.6838 64.4084 66.5789C65.7113 66.2991 66.7114 65.4028 66.9202 63.995ZM50.4691 62.7574C51.4113 62.3847 52.0857 61.5584 52.3994 60.6391C52.4923 60.2784 54.7812 53.4831 53.3473 46.8057C51.9134 40.1284 47.0014 34.7091 46.8035 34.5812C45.4766 33.1624 43.4174 33.0935 42.1614 34.3854C40.7427 35.7124 40.6738 37.7716 41.9657 39.0275C41.9657 39.0275 45.7836 43.3188 46.8328 48.2047C47.2875 50.3219 47.2885 52.7069 46.9868 54.4754L21.8976 40.7815C20.9434 40.3049 19.7335 40.224 18.8262 40.7596C17.919 41.2952 17.0817 42.1564 17.0008 43.3664C17.0358 43.5293 16.2935 48.7999 17.5176 54.5C18.7417 60.2002 21.5824 64.7014 21.6524 65.0271C22.6536 66.5158 24.6549 67.1083 26.3065 66.0721C27.7952 65.0709 28.3877 63.0696 27.3515 61.418C27.3515 61.418 24.9764 57.4984 24.0321 53.1011C23.7523 51.7982 23.6354 50.4603 23.5534 49.2853L47.6884 62.5027C48.4448 62.8513 49.1662 63.0372 49.9805 62.8623L50.4691 62.7574Z"
            fill="white" />
    </g>
    <defs>
        <clipPath id="clip0_2456_14839">
            <rect width="79.9561" height="79.9561" fill="white"
                transform="translate(0.980469 17.1619) rotate(-12.12)" />
        </clipPath>
    </defs>
</svg>
    