<svg width="12" height="12" viewBox="0 0 12 12" fill="none" xmlns="http://www.w3.org/2000/svg">
    <path
        d="M2.49886 0.75C3.47012 0.75013 4.40954 1.09636 5.14858 1.72657C5.88761 2.35677 6.37789 3.22971 6.53144 4.18875C6.88292 3.83769 7.30015 3.55935 7.75928 3.36968C8.21841 3.18 8.71043 3.0827 9.20719 3.08333H10.3739C11.1793 3.08333 11.8322 3.73625 11.8322 4.54167C11.8322 5.54728 11.4327 6.5117 10.7216 7.22278C10.0106 7.93386 9.04614 8.33333 8.04053 8.33333H6.58219V10.6667C6.58219 10.9888 6.32103 11.25 5.99886 11.25C5.67669 11.25 5.41553 10.9888 5.41553 10.6667V6.58333H4.24886C3.16589 6.58333 2.12728 6.15313 1.36151 5.38735C0.595734 4.62158 0.165527 3.58297 0.165527 2.5C0.165527 1.5335 0.949029 0.75 1.91553 0.75H2.49886ZM10.6655 4.54167C10.6655 4.38058 10.5349 4.25 10.3739 4.25H9.20719C8.511 4.25 7.84332 4.52656 7.35104 5.01884C6.85876 5.51113 6.58219 6.17881 6.58219 6.875V7.16667H8.04053C8.73672 7.16667 9.4044 6.8901 9.89668 6.39782C10.389 5.90554 10.6655 5.23786 10.6655 4.54167ZM2.49886 1.91667H1.91553C1.59336 1.91667 1.33219 2.17783 1.33219 2.5C1.33219 3.27355 1.63948 4.01541 2.18647 4.56239C2.73345 5.10938 3.47531 5.41667 4.24886 5.41667H5.41553V4.83333C5.41553 4.05979 5.10824 3.31792 4.56126 2.77094C4.01427 2.22396 3.27241 1.91667 2.49886 1.91667Z"
        fill="#212121" />
</svg>