<svg width="28" height="28" viewBox="0 0 28 28" fill="none" xmlns="http://www.w3.org/2000/svg">
<path d="M20.8968 3.7255C20.4737 2.43164 19.1183 0.955419 17.2233 0.790056C15.2112 0.613674 13.3528 1.56703 12.5154 3.92432C12.3166 4.4869 12.1907 5.07533 12.1411 5.67407C11.4371 4.69483 10.1425 3.37971 8.26834 3.37667C5.59951 3.37475 4.21296 5.14372 3.91457 6.51916C3.50524 8.39804 4.20926 9.8332 5.50768 9.89991C6.80746 9.96648 7.62933 9.03772 8.40857 8.49859C9.53677 7.71716 11.4098 7.72834 11.9677 8.93761C12.0621 9.26405 12.1498 9.59263 12.2279 9.92219C12.2773 10.3745 11.8815 12.5803 11.7244 12.9976C11.5112 13.5664 11.2764 13.9383 11.5406 14.2127C11.7646 14.4449 12.1507 14.496 12.492 14.4609C13.5679 14.35 14.0325 13.8053 14.1504 13.6113C14.2932 13.3767 14.7925 10.6486 13.703 8.49859C13.2427 6.89835 14.9055 6.48276 15.4283 6.41444C16.4824 6.27981 18.1404 6.50135 19.169 6.53383C21.5002 6.60663 21.2034 4.6649 20.8968 3.7255Z" fill="#008000"/>
<path d="M7.24873 6.00229C7.34603 5.78161 7.46255 5.57338 7.59512 5.37359C7.73486 5.16297 8.07685 4.91995 8.06136 4.63587C8.0427 4.25401 7.47869 4.35111 7.25654 4.39132C7.11148 4.41637 6.9673 4.44999 6.82688 4.49332C6.57261 4.57003 6.32675 4.67472 6.09778 4.80942C5.70624 5.04023 5.36205 5.35561 5.09924 5.73763C4.90727 6.01712 4.74976 6.33635 4.67696 6.67425C4.50402 7.45965 4.58502 8.17847 4.88884 8.59587C5.05765 8.82807 5.28717 8.95302 5.57148 8.967C6.76027 9.02769 6.8655 7.63897 7.04796 6.71841C7.09497 6.47839 7.15036 6.22596 7.24873 6.00229ZM13.3643 4.15562C13.3229 4.4095 13.3302 4.68143 13.4721 4.85293C13.5744 4.97512 13.8122 5.01986 13.957 4.96598C14.385 4.80788 14.6337 4.15463 14.8139 3.76092C14.9534 3.45509 15.1408 3.15732 15.3425 2.89269C15.4689 2.72672 15.6396 2.53456 15.6665 2.31392C15.7155 1.90632 15.1502 2.12474 14.9828 2.18673C14.3293 2.433 13.7424 3.05764 13.4829 3.72643C13.437 3.84369 13.3906 3.99565 13.3643 4.15562Z" fill="#BDCF46"/>
<path d="M23.2724 19.0071C24.3496 22.5779 22.2602 26.3272 18.6052 27.3811C14.9503 28.435 11.1139 26.3942 10.0367 22.8234C8.8717 18.9613 10.547 13.3549 11.7217 10.1981C11.8735 9.79024 11.9459 9.17649 12.4451 9.15205C12.835 9.13296 13.0247 8.97942 13.4021 8.82485C13.8914 8.62392 14.3807 8.94856 14.8426 9.29056C17.5806 11.3176 22.1063 15.1415 23.2724 19.0071Z" fill="#A37B65"/>
<path d="M18.3931 26.7893C15.7956 27.5775 13.1872 26.6372 12.5678 24.6888C11.9485 22.7403 13.5529 20.5216 16.1503 19.7334C18.7484 18.945 21.3568 19.8853 21.9761 21.8338C22.5955 23.7822 20.9911 26.0009 18.3931 26.7893Z" fill="#75503F" fill-opacity="0.8"/>
<path d="M12.842 12.2012C12.8197 12.1475 12.7386 12.1319 12.6913 12.1582C12.4058 12.3179 12.3112 12.7773 12.2033 13.0631C12.0596 13.4464 11.9293 13.8314 11.8117 14.2228C11.6955 14.6128 11.5824 15.0048 11.486 15.3999C11.4042 15.7357 11.187 16.2331 11.3116 16.5664C11.371 16.7261 11.5818 16.8341 11.7248 16.6868C11.9867 16.4172 11.9963 15.9316 12.0819 15.5784C12.1771 15.182 12.271 14.7857 12.3751 14.3913C12.4792 13.9968 12.584 13.603 12.69 13.2092C12.7724 12.9027 12.9685 12.5083 12.842 12.2012Z" fill="white"/>
<path d="M11.3039 17.2882C11.1193 17.2813 11.0018 17.4187 10.9781 17.5834C10.9647 17.6764 10.9513 17.7694 10.9379 17.8618C10.9053 17.9829 10.8862 18.1071 10.8836 18.2356C10.881 18.3967 11.0107 18.539 11.1781 18.5452C11.3608 18.5514 11.4674 18.4179 11.4949 18.2575C11.5319 18.0409 11.569 17.8237 11.606 17.6065C11.6335 17.4424 11.4578 17.2938 11.3039 17.2882Z" fill="white"/>
<path d="M13.8282 8.76978C13.8714 8.8932 13.593 9.35515 13.1182 9.52135C12.6435 9.68755 12.1301 9.45115 12.0869 9.32772C12.0437 9.2043 12.4088 9.0171 12.8835 8.8509C13.3582 8.6847 13.7849 8.64635 13.8282 8.76978Z" fill="#008000"/>
</svg>
