<svg width="126" height="155" viewBox="0 0 126 155" fill="none" xmlns="http://www.w3.org/2000/svg">
<path d="M98.7265 102.213C98.1492 102.213 97.6071 101.853 97.403 101.279C97.1389 100.546 97.5191 99.7392 98.2513 99.4749C111.061 94.8658 117.242 84.1675 117.306 84.0583C117.686 83.3817 118.545 83.1421 119.221 83.5262C119.9 83.9103 120.139 84.7666 119.756 85.4467C119.488 85.9224 113.036 97.1527 99.2017 102.128C99.0468 102.185 98.8849 102.213 98.7265 102.213Z" fill="#133441"/>
<path d="M124.593 88.541C124.55 88.541 124.505 88.5375 124.459 88.534C124.279 88.5163 120.034 88.09 117.704 85.359C115.028 82.2264 115.387 78.8858 115.401 78.7484C115.493 77.9731 116.194 77.4199 116.964 77.5115C117.735 77.6031 118.284 78.2973 118.2 79.0655C118.189 79.1783 118.006 81.3771 119.844 83.5267C121.417 85.3696 124.691 85.7255 124.723 85.729C125.497 85.7995 126.067 86.4902 125.994 87.2619C125.927 87.9948 125.311 88.541 124.593 88.541Z" fill="#133441"/>
<path d="M119.51 86.1621C118.746 86.1621 118.091 85.9013 117.633 85.2671C116.204 83.2972 118.714 80.6015 121.069 78.6846C121.674 78.1948 122.562 78.2864 123.051 78.8925C123.54 79.4951 123.449 80.3831 122.847 80.8729C122.023 81.5424 121.213 82.3494 120.678 83.0013C121.491 82.6418 122.558 82.0428 123.487 81.3909C124.124 80.9469 125.001 81.1019 125.448 81.7397C125.892 82.3775 125.737 83.2585 125.1 83.7025C123.318 84.9499 121.161 86.1621 119.51 86.1621Z" fill="#133441"/>
<path d="M29.2673 114.455C29.1793 114.455 29.0913 114.448 29.0033 114.43C13.1521 111.411 6.50618 101.1 6.23161 100.663C5.81624 100.004 6.01336 99.1336 6.67163 98.7178C7.3299 98.3055 8.19934 98.5028 8.61472 99.1618C8.67456 99.2534 14.9404 108.88 29.5278 111.661C30.2917 111.805 30.7951 112.545 30.6473 113.31C30.5205 113.983 29.9291 114.455 29.2673 114.455Z" fill="#133441"/>
<path d="M1.75047 104.521C1.11333 104.521 0.536012 104.085 0.381127 103.44C0.2016 102.682 0.666244 101.921 1.42307 101.741C1.45475 101.734 4.64052 100.938 5.95353 98.8799C7.48478 96.4731 6.96731 94.2672 6.96027 94.2461C6.76314 93.492 7.21372 92.7203 7.96351 92.5229C8.71682 92.3256 9.48774 92.7767 9.68487 93.5272C9.72007 93.6647 10.5403 96.9207 8.32611 100.395C6.39708 103.426 2.25036 104.44 2.07787 104.483C1.96523 104.511 1.85608 104.521 1.75047 104.521Z" fill="#133441"/>
<path d="M5.82704 99.3944H5.83055H5.82704ZM6.10508 101.48C4.52454 101.48 2.50046 100.666 0.772074 99.789C0.0786078 99.4331 -0.199469 98.5874 0.152544 97.8932C0.504558 97.1991 1.35294 96.9207 2.0464 97.273C3.05668 97.7875 4.19014 98.228 5.04553 98.4711C4.41895 97.8968 3.50022 97.2096 2.60963 96.674C1.94432 96.2723 1.72961 95.4054 2.1309 94.7394C2.5322 94.0699 3.39809 93.855 4.0634 94.2567C6.66478 95.8248 9.52317 98.1469 8.38265 100.296C7.93207 101.149 7.10832 101.48 6.10508 101.48Z" fill="#133441"/>
<path d="M101.177 140.369C100.719 140.369 100.275 140.147 100.004 139.742C99.9481 139.657 94.073 131.038 85.3009 130.14C84.5264 130.059 83.9668 129.368 84.0442 128.593C84.1216 127.817 84.8151 127.257 85.5895 127.335C93.5133 128.149 99.149 134.107 101.342 136.835C101.515 136.595 101.698 136.299 101.881 135.936C102.233 135.242 103.078 134.964 103.771 135.316C104.468 135.665 104.746 136.514 104.394 137.208C103.317 139.344 102 140.115 101.856 140.196C101.641 140.313 101.405 140.369 101.177 140.369Z" fill="#133441"/>
<path d="M54.8023 155C54.0666 155 53.4471 154.429 53.3978 153.686C53.3485 152.907 53.9329 152.237 54.7108 152.184C55.091 152.16 55.4184 152.11 55.6965 152.051C54.3271 149.587 52.1024 144.386 53.5492 138.463C53.7322 137.705 54.4926 137.24 55.2494 137.427C56.0063 137.614 56.4673 138.375 56.2843 139.132C54.6228 145.94 58.8575 151.822 58.8998 151.881C59.3504 152.495 59.2342 153.354 58.6358 153.823C58.5055 153.925 57.2805 154.838 54.8974 154.996C54.8657 155 54.834 155 54.8023 155Z" fill="#133441"/>
<path d="M80.1218 18.8011C79.3459 13.5003 74.9375 6.82681 67.4058 4.8296C59.4095 2.70592 51.2196 5.056 46.1397 13.5606C44.9316 15.591 43.9993 17.7736 43.3673 20.0506C41.231 15.7637 36.9519 9.75595 29.3874 8.40069C18.6138 6.48006 11.7409 12.3186 9.54494 17.4173C6.53829 24.381 8.34635 30.4289 13.5405 31.6174C18.7402 32.8063 22.7277 29.8082 26.2623 28.2844C31.3804 26.075 39.7615 26.5098 41.1425 31.5806C41.2883 32.9091 41.4055 34.2411 41.4834 35.57C41.3567 37.3523 38.1691 45.5886 37.2342 47.0878C35.9635 49.1319 34.7472 50.4001 35.6163 51.649C36.3534 52.7068 37.8754 53.1809 39.2789 53.2897C43.7026 53.6327 44.4538 53.0464 45.0699 52.3819C45.8154 51.5778 49.7973 41.3986 46.9479 32.3133C46.2431 25.8025 53.9454 25.1558 56.1055 25.2668C60.4584 25.5024 66.9925 27.5467 71.1218 28.4095C80.4812 30.3619 80.6825 22.6493 80.1218 18.8011Z" fill="#008000"/>
<path d="M23.3787 17.8111C23.9305 17.0285 24.551 16.3077 25.2303 15.6311C25.9462 14.9177 27.5021 14.2243 27.6443 13.1159C27.8441 11.6276 25.497 11.5983 24.5712 11.5944C23.9674 11.5872 23.3611 11.6136 22.763 11.6803C21.6811 11.7943 20.6131 12.0225 19.5915 12.3786C17.8444 12.9894 16.2275 13.9608 14.8911 15.2479C13.9147 16.1898 13.0487 17.3099 12.5112 18.5629C11.247 21.4725 11.056 24.3069 11.9818 26.1369C12.496 27.1548 13.3326 27.802 14.4704 28.0598C19.2262 29.1464 20.6519 23.858 22.052 20.4332C22.4147 19.5398 22.8203 18.6045 23.3787 17.8111ZM49.4003 15.0625C49.05 16.0134 48.8836 17.069 49.3328 17.8331C49.6577 18.3784 50.5856 18.7217 51.2092 18.6174C53.0512 18.3136 54.5259 15.9687 55.5371 14.5772C56.321 13.496 57.2919 12.4802 58.2973 11.6027C58.9272 11.0522 59.7545 10.4323 60.0223 9.59942C60.5141 8.06026 58.0743 8.49865 57.3535 8.61803C54.5376 9.10075 51.7179 11.0926 50.1883 13.4898C49.9187 13.9099 49.6217 14.4635 49.4003 15.0625Z" fill="#A4B46B"/>
<path d="M99.4904 92.6037C104.925 112.908 92.8902 133.779 72.6072 139.22C52.3241 144.661 31.4744 132.609 26.0393 112.305C20.0888 90.0745 30.4239 58.1588 37.3424 40.6332C40.0277 33.8307 48.1862 31.6455 53.912 36.1952C68.6569 47.9116 93.5407 70.3759 99.4904 92.6037Z" fill="#A37B65"/>
<path d="M72.7975 135.606C58.4832 140.056 44.1084 134.747 40.6954 123.746C37.2823 112.745 46.1237 100.218 60.4379 95.7682C74.7556 91.3169 89.1304 96.626 92.5434 107.627C95.9564 118.628 87.1151 131.155 72.7975 135.606Z" fill="#75503F" fill-opacity="0.8"/>
<path d="M43.2532 41.1528C43.13 40.8497 42.6829 40.7616 42.4224 40.9096C40.8489 41.8117 40.3279 44.4052 39.733 46.0191C38.941 48.1827 38.2229 50.3569 37.5752 52.5663C36.9345 54.7687 36.3114 56.9817 35.7799 59.2122C35.3293 61.108 34.1325 63.9165 34.8189 65.7982C35.1463 66.7003 36.3079 67.3099 37.0964 66.4783C38.5397 64.956 38.5925 62.2145 39.0642 60.22C39.5887 57.9824 40.1062 55.7448 40.68 53.5178C41.2537 51.2907 41.831 49.0672 42.4153 46.8437C42.8694 45.1135 43.9501 42.8865 43.2532 41.1528Z" fill="white"/>
<path d="M34.7765 69.8716C33.7592 69.8329 33.1115 70.6081 32.9812 71.5384C32.9073 72.0634 32.8334 72.5885 32.7595 73.11C32.58 73.7936 32.4744 74.4948 32.4603 75.2207C32.4462 76.1299 33.1608 76.9333 34.0831 76.9685C35.0898 77.0038 35.6777 76.2497 35.829 75.3441C36.0332 74.1213 36.2374 72.895 36.4415 71.6688C36.5929 70.742 35.6248 69.9033 34.7765 69.8716Z" fill="white"/>
<path d="M73.0243 112.595C75.9566 114.466 75.4462 119.889 68.508 122.141C61.5698 124.392 58.2045 119.801 59.2676 117.056C59.8801 115.484 62.4147 115.347 65.9418 114.205C69.4655 113.06 71.567 111.668 73.0243 112.595Z" fill="#AB1700"/>
<path d="M72.1866 113.377C72.3732 113.958 69.976 115.259 66.829 116.281C63.682 117.299 60.975 117.655 60.7885 117.073C60.5984 116.492 63.1962 115.808 66.3432 114.786C69.4902 113.765 71.9965 112.796 72.1866 113.377Z" fill="white"/>
<path d="M63.1785 121.739C64.4704 122.06 66.1776 122.014 68.2791 121.33C70.6341 120.566 72.1724 119.477 73.0383 118.349C67.7617 115.77 64.671 119.135 63.1785 121.739Z" fill="#FD6C6C"/>
<path d="M36.3399 109.72C38.0718 115.097 43.8378 118.047 49.2131 116.31C54.5918 114.572 57.5452 108.807 55.8133 103.434C54.0779 98.0563 48.3154 95.1069 42.9366 96.8441C37.5614 98.5813 34.6045 104.346 36.3399 109.72Z" fill="white"/>
<path d="M51.5186 109.188C51.0997 110.044 50.1844 110.46 49.4698 110.115C48.7588 109.769 48.5194 108.793 48.9383 107.933C49.3537 107.074 50.2724 106.658 50.9835 107.003C51.6981 107.352 51.934 108.328 51.5186 109.188ZM45.0451 106.112C44.3234 107.595 42.7394 108.314 41.5073 107.715C40.2753 107.116 39.8635 105.428 40.5851 103.944C41.3067 102.461 42.8908 101.742 44.1228 102.341C45.3549 102.937 45.7667 104.628 45.0451 106.112ZM52.7753 104.413C51.5819 100.71 47.6112 98.6799 43.908 99.8744C40.2013 101.073 38.1667 105.044 39.36 108.744C40.5569 112.447 44.5241 114.481 48.2308 113.282C51.934 112.088 53.9686 108.117 52.7753 104.413Z" fill="#133441"/>
<path d="M68.2004 99.7551C69.9323 105.129 75.6983 108.078 81.0735 106.345C86.4523 104.607 89.4057 98.8425 87.6738 93.4652C85.9384 88.0914 80.1759 85.1419 74.7972 86.8757C69.4219 88.6129 66.465 94.3778 68.2004 99.7551Z" fill="white"/>
<path d="M83.7666 98.8461C83.3477 99.7059 82.4325 100.122 81.7214 99.7764C81.0068 99.4311 80.7675 98.4514 81.1864 97.5952C81.6053 96.7354 82.5205 96.3195 83.2316 96.6649C83.9462 97.0137 84.1855 97.9898 83.7666 98.8461ZM76.8883 95.7205C75.9872 97.1018 74.3257 97.6163 73.1781 96.8657C72.0305 96.1187 71.8334 94.392 72.7381 93.0107C73.6392 91.6294 75.3007 91.1149 76.4483 91.8619C77.5959 92.6125 77.793 94.3392 76.8883 95.7205ZM84.6361 94.4449C83.4428 90.7449 79.4721 88.7117 75.7689 89.9098C72.0657 91.1043 70.0276 95.0756 71.2209 98.7792C72.4178 102.479 76.3885 104.512 80.0916 103.314C83.7948 102.12 85.8295 98.1484 84.6361 94.4449Z" fill="#133441"/>
<path d="M68.5854 83.4613C69.2789 85.1351 72.5315 84.4656 75.7841 83.0314C78.6987 81.7487 81.6486 80.7586 81.1312 78.4082C80.061 73.57 66.4979 78.4223 68.5854 83.4613Z" fill="#133441"/>
<path d="M32.6439 92.7512C33.3972 95.0346 36.4421 94.3721 39.5997 93.981C43.1269 93.544 46.2633 92.4517 46.0028 90.6616C45.2178 85.2631 31.088 88.0469 32.6439 92.7512Z" fill="#133441"/>
<path d="M93.5762 105.716C93.9247 106.984 92.2913 108.538 89.9223 109.19C87.5568 109.846 85.3567 109.345 85.0082 108.08C84.6597 106.815 86.2966 105.258 88.6621 104.606C91.0276 103.954 93.2277 104.451 93.5762 105.716Z" fill="#543B2F"/>
<path d="M47.7767 120.333C48.1252 121.602 46.4884 123.156 44.1229 123.808C41.7573 124.46 39.5572 123.963 39.2087 122.698C38.8602 121.429 40.4936 119.875 42.8591 119.223C45.2282 118.572 47.4282 119.068 47.7767 120.333Z" fill="#543B2F"/>
</svg>
