<svg width="38" height="36" viewBox="0 0 38 36" fill="none" xmlns="http://www.w3.org/2000/svg">
<path d="M17.791 0.836776C9.56604 0.649276 0.494164 7.47115 0.669164 18.5212C0.822289 28.2368 8.12229 35.5899 17.5817 35.743C27.041 35.8962 35.4223 29.643 35.4723 18.4712C35.5254 7.21178 26.8379 1.04303 17.791 0.836776V0.836776Z" fill="#FF2A23"/>
<path d="M17.8166 4.78083C11.2916 5.0027 4.70719 9.87145 4.55406 18.4558C4.40094 27.0402 11.9041 31.8215 17.8166 31.8215C25.3228 31.8215 31.5947 25.909 31.4384 18.0433C31.2853 10.1808 25.3728 4.52458 17.8166 4.78083V4.78083Z" fill="#FFFDFE"/>
<path d="M17.9694 8.12461C12.0569 7.99023 7.68815 13.2152 7.63502 18.1996C7.58502 23.2902 10.7694 28.4809 17.8663 28.7371C24.9631 28.9934 28.3006 23.3402 28.4038 18.559C28.51 13.7777 24.7038 8.27773 17.9694 8.12461Z" fill="#FF2A23"/>
<path d="M11.2109 18.3874C11.1609 22.8593 14.3452 25.4312 18.2015 25.4312C21.7046 25.4312 25.1421 23.2218 25.1421 18.5437C25.1421 14.328 21.9546 11.8093 18.4077 11.6561C14.8609 11.4999 11.2609 14.0718 11.2109 18.3874V18.3874Z" fill="white"/>
<path d="M14.3731 18.3529C14.1824 21.0186 16.3512 22.2936 18.3043 22.2936C20.1543 22.2936 21.9793 21.0779 22.0324 18.6092C22.0793 16.2904 20.2606 14.8748 18.3043 14.8061C16.2856 14.7373 14.5262 16.1873 14.3731 18.3529V18.3529Z" fill="#FB2B22"/>
<path d="M18.9482 18.5615L17.9014 19.1428L19.8982 21.9834C19.8982 21.9834 21.442 22.1021 21.7983 21.699C22.1545 21.2959 21.7514 20.1084 21.7514 20.1084L18.9482 18.5615V18.5615Z" fill="#CC1935"/>
<path d="M25.411 15.4744C25.1298 14.8931 24.8423 14.4275 24.0798 14.5712C23.3204 14.715 21.9173 15.5212 21.6548 15.9025C21.4141 16.2525 21.1798 16.6869 21.1798 16.6869C21.1798 16.6869 18.4923 18.1556 18.0673 18.3962C17.4016 18.7775 17.861 19.5525 18.3298 19.465C18.9704 19.3462 21.8329 18.1806 21.8329 18.1806C21.8329 18.1806 22.4391 18.3244 22.7954 18.3244C23.1516 18.3244 25.1829 17.3212 25.4579 17.1369C25.911 16.8275 25.6954 16.0681 25.411 15.4744V15.4744Z" fill="#ACB1B5"/>
<path d="M21.7419 20.1025C21.7419 20.1025 21.5919 20.6338 21.0451 21.1838C20.4763 21.7525 19.8919 21.9775 19.8919 21.9775L21.6951 24.6213C21.6951 24.6213 23.0357 24.7182 24.0107 23.7682C24.9857 22.8182 24.5607 21.5744 24.5607 21.5744L21.7419 20.1025V20.1025Z" fill="#C8C8C8"/>
<path d="M23.5296 27.3994L21.6921 24.6182C21.6921 24.6182 21.9983 24.4557 22.4014 24.1807C23.1421 23.6744 23.5546 23.2713 24.0827 22.4463C24.3702 22.0025 24.5546 21.5713 24.5546 21.5713L27.3952 22.9744C27.3952 22.9744 27.3327 25.1682 26.4046 26.2369C25.4764 27.3057 23.5296 27.3994 23.5296 27.3994V27.3994Z" fill="#CC1935"/>
<path d="M23.5296 27.3998L25.1078 29.7654C25.1078 29.7654 27.1671 29.9686 28.8546 27.9467C30.5421 25.9248 30.0921 24.2623 30.0921 24.2623L27.3953 22.9717C27.3953 22.9717 26.8703 24.2342 25.8265 25.4467C24.7828 26.6592 23.5296 27.3998 23.5296 27.3998V27.3998Z" fill="#C8C8C8"/>
<path d="M27.4444 33.2613L25.11 29.7676C25.11 29.7676 26.8694 28.7395 28.1194 27.2613C29.4163 25.727 30.0944 24.2676 30.0944 24.2676L33.8725 26.1457C33.8725 26.1457 33.0225 28.3426 31.1382 30.327C29.2944 32.2613 27.4444 33.2613 27.4444 33.2613V33.2613Z" fill="#CC1935"/>
<path d="M23.5954 16.3996C23.9485 17.059 24.5329 17.0652 25.1517 16.8027C25.7704 16.5402 28.6923 14.4746 28.6923 14.4746C28.6923 14.4746 32.661 16.4715 35.2267 15.4715C37.7923 14.4746 37.7204 11.7652 37.7204 11.7652L36.2017 10.8027C36.2017 10.8027 37.3079 10.2277 37.6642 10.0152C37.8392 9.90898 38.0985 9.51523 37.9548 9.16211C37.8423 8.88711 37.411 8.79336 37.0548 8.93711C36.6985 9.08086 35.6704 9.40273 35.6704 9.40273C35.6704 9.40273 36.0798 7.69961 36.0079 7.60586C35.936 7.51211 35.1985 7.13086 35.1985 7.13086C35.1985 7.13086 32.7985 7.13086 32.4892 7.24961C32.1798 7.36836 29.8048 9.72148 29.8048 9.72148L28.6642 12.0496L28.1767 13.0871C28.1767 13.0871 24.8485 14.5777 24.3485 14.7902C23.8517 15.0059 23.161 15.5965 23.5954 16.3996V16.3996Z" fill="#006CA9"/>
<path d="M28.8861 12.7997C28.8861 12.7997 30.2861 11.7872 31.283 11.2872C32.2799 10.7872 34.1299 10.1778 34.6768 10.1122C35.2236 10.0466 35.4486 10.1935 35.5455 10.4497C35.6424 10.706 35.3205 11.0278 35.0455 11.1747C34.7736 11.3185 33.3236 11.9778 31.7174 12.831C30.1111 13.6841 29.3486 14.3091 28.6986 14.456C28.3705 14.531 27.9486 14.2372 27.9236 13.7466C27.9049 13.3653 27.9799 13.0466 28.2299 12.3153C28.5361 11.4153 29.208 10.0622 29.7736 9.18096C30.6111 7.87783 31.8174 6.99346 33.1518 6.75283C34.4861 6.51221 35.5799 6.84971 35.8549 7.07471C36.1268 7.29971 36.1111 7.53096 36.0143 7.60908C35.9174 7.68721 35.7736 7.74971 35.0486 7.49346C34.5455 7.31533 32.9424 7.31533 31.8174 8.15283C30.6799 8.99658 30.4018 9.51846 29.9049 10.4372C29.408 11.356 28.8861 12.7997 28.8861 12.7997V12.7997Z" fill="#1F87FD"/>
</svg>
