<?xml version="1.0" encoding="UTF-8"?>
<svg xmlns="http://www.w3.org/2000/svg" xmlns:xlink="http://www.w3.org/1999/xlink" width="34px" height="34px" viewBox="0 0 34 34" version="1.1">
<g id="surface1">
<path style=" stroke:none;fill-rule:nonzero;fill:rgb(0%,3.921569%,7.058824%);fill-opacity:1;" d="M 16.980469 6.820312 C 12.554688 6.820312 8.554688 7.9375 5.402344 9.996094 L 0.09375 10.003906 C 0.09375 10.003906 1.347656 11.671875 1.753906 13.359375 L 15.179688 23.664062 L 16.984375 26.355469 L 18.804688 23.640625 L 32.261719 13.351562 C 32.664062 11.65625 33.929688 9.960938 33.929688 9.960938 L 28.273438 9.957031 C 25.105469 7.910156 21.25 6.820312 16.980469 6.820312 Z M 16.980469 6.820312 "/>
<path style=" stroke:none;fill-rule:nonzero;fill:rgb(98.823529%,76.862745%,5.882353%);fill-opacity:1;" d="M 25.191406 9.933594 C 24.28125 9.960938 23.378906 10.132812 22.523438 10.445312 C 20.410156 11.222656 18.695312 12.808594 17.761719 14.855469 C 17.335938 15.78125 17.09375 16.761719 17.015625 17.75 C 16.699219 13.421875 13.128906 9.988281 8.742188 9.898438 C 11.167969 8.863281 13.957031 8.300781 16.976562 8.300781 C 20.019531 8.300781 22.765625 8.847656 25.191406 9.933594 "/>
<path style="fill-rule:nonzero;fill:rgb(100%,100%,100%);fill-opacity:1;stroke-width:5.847;stroke-linecap:butt;stroke-linejoin:miter;stroke:rgb(0%,3.921569%,7.058824%);stroke-opacity:1;stroke-miterlimit:4;" d="M 85.198134 39.394701 C 85.198134 53.282315 73.95085 64.529599 60.07618 64.529599 C 46.188566 64.529599 34.941282 53.282315 34.941282 39.394701 C 34.941282 25.520031 46.188566 14.259804 60.07618 14.259804 C 73.95085 14.259804 85.198134 25.520031 85.198134 39.394701 Z M 85.198134 39.394701 " transform="matrix(0.301809,0,0,0.301809,-9.66278,6.821263)"/>
<path style="fill:none;stroke-width:5.102;stroke-linecap:butt;stroke-linejoin:miter;stroke:rgb(0%,3.921569%,7.058824%);stroke-opacity:1;stroke-miterlimit:4;" d="M 71.375235 39.394701 C 71.375235 45.633126 66.314604 50.693757 60.07618 50.693757 C 53.824812 50.693757 48.777124 45.633126 48.777124 39.394701 C 48.777124 33.156277 53.824812 28.095646 60.07618 28.095646 C 66.314604 28.095646 71.375235 33.156277 71.375235 39.394701 Z M 71.375235 39.394701 " transform="matrix(0.301809,0,0,0.301809,-9.66278,6.821263)"/>
<path style=" stroke:none;fill-rule:nonzero;fill:rgb(93.72549%,41.568627%,27.058824%);fill-opacity:1;" d="M 9.875 18.710938 C 9.875 19.488281 9.246094 20.121094 8.46875 20.121094 C 7.691406 20.121094 7.058594 19.488281 7.058594 18.710938 C 7.058594 17.933594 7.691406 17.304688 8.46875 17.304688 C 9.246094 17.304688 9.875 17.933594 9.875 18.710938 Z M 9.875 18.710938 "/>
<path style="fill-rule:nonzero;fill:rgb(100%,100%,100%);fill-opacity:1;stroke-width:5.847;stroke-linecap:butt;stroke-linejoin:miter;stroke:rgb(0%,3.921569%,7.058824%);stroke-opacity:1;stroke-miterlimit:4;" d="M 141.745182 39.34293 C 141.745182 53.230544 130.497898 64.477828 116.610285 64.477828 C 102.735614 64.477828 91.48833 53.230544 91.48833 39.34293 C 91.48833 25.46826 102.735614 14.208033 116.610285 14.208033 C 130.497898 14.208033 141.745182 25.46826 141.745182 39.34293 Z M 141.745182 39.34293 " transform="matrix(0.301809,0,0,0.301809,-9.66278,6.821263)"/>
<path style="fill:none;stroke-width:5.102;stroke-linecap:butt;stroke-linejoin:miter;stroke:rgb(0%,3.921569%,7.058824%);stroke-opacity:1;stroke-miterlimit:4;" d="M 127.90934 39.34293 C 127.90934 45.581355 122.861652 50.641986 116.610285 50.641986 C 110.37186 50.641986 105.311229 45.581355 105.311229 39.34293 C 105.311229 33.104506 110.37186 28.043875 116.610285 28.043875 C 122.861652 28.043875 127.90934 33.104506 127.90934 39.34293 Z M 127.90934 39.34293 " transform="matrix(0.301809,0,0,0.301809,-9.66278,6.821263)"/>
<path style=" stroke:none;fill-rule:nonzero;fill:rgb(0%,69.019608%,52.941176%);fill-opacity:1;" d="M 26.941406 18.695312 C 26.941406 19.472656 26.3125 20.105469 25.53125 20.105469 C 24.753906 20.105469 24.125 19.472656 24.125 18.695312 C 24.125 17.917969 24.753906 17.289062 25.53125 17.289062 C 26.3125 17.289062 26.941406 17.917969 26.941406 18.695312 Z M 26.941406 18.695312 "/>
</g>
</svg>
